{"glyphs":{"0":{"ha":644,"x_min":0,"x_max":0,"o":"m 237 0 b 378 52 290 -1 337 16 b 485 195 420 87 456 134 b 555 391 515 254 538 319 b 585 603 572 463 582 533 b 573 791 588 673 584 736 b 517 919 562 848 543 890 b 476 948 504 932 490 942 b 432 961 463 955 448 959 b 384 964 416 963 400 964 b 206 893 316 962 257 939 b 83 718 156 848 115 789 b 20 489 52 646 31 570 b 22 258 9 408 10 331 b 92 78 33 186 56 125 b 237 0 127 31 176 5 z m 446 936 b 528 865 481 931 509 907 b 561 703 547 822 557 768 b 550 494 564 637 561 567 b 497 284 539 420 522 351 b 407 117 473 218 443 162 b 283 39 371 73 330 47 b 245 43 269 38 256 39 b 172 134 211 56 186 86 b 153 311 157 183 151 241 b 180 524 155 379 164 450 b 243 730 196 598 217 667 b 335 883 270 794 300 845 b 446 936 370 921 406 939 z "},"1":{"ha":312,"x_min":0,"x_max":0,"o":"m 146 940 b 137 897 145 932 142 918 b 116 806 130 867 123 837 b 67 588 99 734 82 661 b 28 366 52 515 39 441 b 17 273 24 334 20 304 b 12 180 14 243 12 212 b 20 88 11 147 14 117 b 56 21 26 60 38 37 b 134 3 74 5 100 -1 b 115 111 122 30 116 65 b 123 262 114 155 117 206 b 169 526 134 347 149 435 b 224 772 188 617 207 699 b 254 901 237 825 247 869 b 237 939 256 918 251 930 b 190 958 224 948 208 955 b 151 964 172 962 159 964 b 131 962 141 964 134 963 l 0 911 b 8 894 2 905 4 899 b 146 940 62 912 109 928 z "},"2":{"ha":574,"x_min":0,"x_max":0,"o":"m 11 25 b 56 6 22 14 37 8 b 201 10 75 4 123 5 b 341 3 277 14 324 12 l 349 24 b 175 37 313 37 255 42 b 43 45 94 33 51 36 b 133 212 61 98 91 154 b 273 379 175 269 222 325 b 413 524 323 433 370 482 b 434 546 420 532 427 538 b 555 725 498 612 539 671 b 555 861 572 779 572 824 b 474 945 538 899 511 927 b 355 967 437 964 397 971 b 238 916 312 963 273 946 b 166 784 203 886 179 842 l 188 779 b 259 905 201 836 224 878 b 367 945 293 932 329 945 b 459 913 405 945 435 935 b 482 821 483 891 490 861 b 427 718 472 785 454 750 b 361 645 401 686 378 662 b 191 468 303 588 247 529 b 50 290 136 406 89 347 b -20 137 12 233 -12 182 b 11 25 -29 92 -18 55 z "},"3":{"ha":615,"x_min":0,"x_max":0,"o":"m 30 35 b 235 6 102 3 170 -6 b 404 89 300 19 356 47 b 511 240 453 132 488 182 b 526 416 533 298 538 357 b 421 575 513 476 478 529 b 342 618 397 595 371 609 b 405 648 364 621 385 631 b 488 774 454 688 481 730 b 461 892 494 819 486 858 b 358 961 437 927 402 949 b 210 938 313 972 264 964 b 143 878 182 923 160 903 l 158 863 b 222 920 174 888 195 907 b 344 929 267 940 308 943 b 419 854 379 916 404 890 b 416 726 434 817 433 774 b 375 665 407 703 393 682 b 309 633 357 648 336 637 b 290 643 304 636 298 640 b 265 649 281 647 273 649 b 250 636 257 650 252 645 b 260 618 250 629 253 623 b 286 610 268 614 277 612 b 308 606 296 608 303 606 b 422 486 365 575 403 535 b 432 332 441 437 444 386 b 362 184 420 279 397 230 b 234 81 327 140 284 105 b 72 62 184 58 130 51 b -23 100 41 68 9 81 b -52 119 -33 106 -43 112 l -68 100 b -55 88 -65 97 -60 92 b 30 35 -28 66 1 49 z "},"4":{"ha":549,"x_min":0,"x_max":0,"o":"m 283 385 l 280 366 b 269 273 276 334 273 304 b 264 180 267 243 264 212 b 272 88 263 147 266 117 b 308 21 278 60 290 37 b 387 3 326 5 352 -1 b 367 111 374 30 368 65 b 376 262 366 155 369 206 b 394 388 380 302 387 345 l 417 389 l 416 410 l 398 409 b 476 771 423 543 450 663 b 506 901 489 825 499 868 b 489 939 509 918 503 930 b 442 958 476 948 460 955 b 403 964 425 962 411 964 l 1 397 l 2 376 l 283 385 z m 393 914 l 389 897 b 368 807 382 867 375 837 b 323 608 353 740 338 673 b 286 406 309 541 296 474 l 28 398 l 393 914 z "},"5":{"ha":536,"x_min":0,"x_max":0,"o":"m 75 623 b 161 623 100 626 129 626 b 254 591 193 620 224 610 b 326 496 283 572 307 541 b 336 316 346 441 349 380 b 257 142 323 252 296 193 b 109 41 217 91 168 57 b 14 33 80 33 48 31 b -81 56 -20 35 -52 43 l -90 37 b 83 -1 -33 10 24 -2 b 269 54 156 1 218 19 b 388 189 321 90 360 134 b 433 359 415 243 431 300 b 399 522 435 418 424 473 b 298 628 374 571 340 606 b 153 663 255 650 208 661 b 145 663 150 663 147 663 b 141 663 142 663 141 663 b 168 776 149 701 158 739 b 196 899 178 817 187 859 b 197 909 197 902 197 905 b 201 925 199 914 199 920 b 206 935 202 930 204 934 b 301 929 239 932 271 930 b 377 935 332 928 357 930 l 372 954 b 300 950 354 950 330 949 b 208 956 271 951 239 954 b 184 958 200 957 193 958 b 118 962 163 961 141 962 b 113 962 117 962 115 962 b 100 960 108 962 103 962 b 94 947 98 959 95 955 b 73 860 90 929 83 900 b 31 690 57 799 43 742 b 29 635 24 663 24 644 b 75 623 35 625 50 621 z "},"6":{"ha":694,"x_min":0,"x_max":0,"o":"m 583 222 b 602 370 599 271 605 320 b 561 504 597 419 584 464 b 463 596 538 545 505 575 b 309 616 421 617 370 624 b 229 585 279 612 253 602 b 328 733 264 637 297 688 b 402 845 357 776 382 813 b 407 916 418 871 419 895 b 351 963 395 937 376 952 b 288 878 336 944 315 916 b 205 759 261 841 233 801 b 200 752 203 757 202 755 b 89 576 163 699 125 641 b 8 378 52 512 24 446 b 20 160 -10 290 -6 218 b 135 33 45 102 83 60 b 302 -1 186 5 242 -6 b 469 61 362 3 418 24 b 583 222 520 98 558 152 z m 85 266 b 115 397 88 311 98 354 b 180 510 132 440 153 477 b 272 577 206 542 237 564 b 384 573 307 590 344 589 b 465 503 416 559 444 536 b 506 387 487 471 500 432 b 496 245 511 340 508 293 b 435 116 484 197 463 154 b 321 32 401 73 363 45 b 203 35 280 19 240 20 b 112 116 165 50 135 77 b 85 266 90 155 81 205 z "},"7":{"ha":385,"x_min":0,"x_max":0,"o":"m 85 1 b 83 20 83 7 83 13 l 83 25 l 83 25 b 134 230 83 79 101 148 b 256 484 168 311 208 396 b 392 728 303 572 349 654 b 460 848 418 774 441 814 b 459 918 473 875 473 899 b 399 962 446 939 425 953 b 395 963 397 962 396 963 b 393 964 394 964 393 964 b 392 964 393 964 392 964 b 391 964 391 964 391 964 b 385 962 389 963 387 962 b 234 939 343 948 293 941 b 115 959 184 938 145 944 l 104 941 b 235 918 138 924 182 916 b 379 938 289 920 337 926 l 373 927 l 374 927 b 311 819 357 899 337 863 b 204 634 279 764 243 703 b 96 425 165 565 130 495 b 18 226 62 353 36 288 b 3 73 -1 164 -5 113 b 85 1 12 33 39 8 z "},"8":{"ha":680,"x_min":0,"x_max":0,"o":"m 262 1 b 437 55 331 2 389 20 b 545 189 484 90 521 135 b 581 357 570 243 582 299 b 537 515 581 415 566 468 b 406 616 508 562 465 595 b 492 692 443 631 471 657 b 523 802 512 726 522 763 b 492 906 524 841 513 876 b 393 962 471 936 437 955 b 267 932 342 968 300 958 b 194 834 233 907 208 874 b 185 715 180 794 176 754 b 252 625 194 676 216 646 b 100 535 191 610 140 581 b 15 377 60 490 31 437 b 7 202 -1 317 -4 259 b 86 60 18 145 44 98 b 262 1 127 22 186 2 z m 391 945 b 446 889 419 939 437 921 b 446 781 454 857 454 821 b 404 675 439 741 425 705 b 330 630 384 646 359 631 b 277 665 304 631 287 644 b 263 746 266 688 262 714 b 283 841 265 779 271 810 b 328 918 294 872 309 898 b 391 945 347 937 368 947 z m 343 601 b 443 543 387 595 420 576 b 481 417 465 509 477 467 b 466 264 484 368 479 317 b 406 123 452 212 433 165 b 309 33 379 82 347 52 b 184 33 272 15 230 15 b 99 129 142 53 114 85 b 87 277 84 174 80 223 b 134 435 94 332 110 385 b 224 557 158 486 188 526 b 343 601 260 589 300 603 z "},"9":{"ha":570,"x_min":0,"x_max":0,"o":"m 292 345 b 372 376 321 349 348 359 b 273 228 337 323 304 274 b 199 116 244 185 220 148 b 195 45 184 90 182 66 b 250 -3 207 24 225 8 b 313 82 266 16 287 45 b 396 202 340 120 368 159 b 401 208 398 204 399 206 b 513 384 438 261 475 320 b 593 583 549 448 576 514 b 582 800 611 670 607 743 b 466 928 556 859 517 901 b 298 962 414 955 359 966 b 132 899 239 958 183 937 b 18 738 81 863 43 808 b 0 591 2 689 -4 640 b 40 456 3 541 17 496 b 138 364 63 416 96 385 b 292 345 180 343 231 336 z m 165 844 b 279 928 200 888 238 916 b 399 926 321 941 361 941 b 489 845 436 911 467 884 b 517 695 511 806 521 755 b 486 564 513 650 503 606 b 421 451 470 521 448 483 b 330 383 395 418 364 396 b 217 387 295 370 258 372 b 136 457 184 401 157 425 b 95 573 114 490 100 529 b 105 715 90 621 94 668 b 165 844 117 764 138 806 z "}," ":{"ha":345,"x_min":0,"x_max":0,"o":""}," ":{"ha":345,"x_min":0,"x_max":0,"o":""},"!":{"ha":302,"x_min":0,"x_max":0,"o":"m 26 187 b 47 153 28 172 35 160 b 98 145 58 144 75 142 b 132 410 104 233 115 321 b 191 673 150 498 170 585 b 241 895 209 747 226 822 b 231 942 245 917 241 932 b 189 958 220 952 206 957 b 140 946 172 958 156 954 b 115 804 140 935 132 888 b 73 586 102 740 87 667 b 36 355 58 505 45 428 b 26 187 26 282 24 227 z m 55 -5 b 90 20 72 -5 83 3 b 92 73 96 37 97 55 b 60 104 87 90 77 101 b 22 79 42 105 29 96 b 18 26 14 62 13 44 b 55 -5 23 7 35 -3 z "},"\"":{"ha":204,"x_min":0,"x_max":0,"o":"m 52 817 b 63 817 55 817 58 817 b 76 817 67 817 72 817 b 84 837 79 818 82 825 b 90 880 87 849 88 863 b 90 924 90 896 90 911 b 86 950 90 938 88 947 b 75 958 84 954 81 956 b 50 955 62 958 54 958 b 47 949 49 954 47 951 b 45 944 45 947 45 945 b 42 883 43 924 42 904 b 45 828 42 861 43 843 b 47 821 46 825 47 823 b 52 817 49 819 50 818 z m 111 817 b 123 817 115 817 118 817 b 136 817 127 817 131 817 b 144 837 139 818 142 825 b 149 880 146 849 148 863 b 150 924 150 896 150 911 b 146 950 149 938 148 947 b 135 958 144 954 140 956 b 110 955 122 958 113 958 b 106 949 109 954 107 951 b 104 944 105 947 104 945 b 102 883 102 924 102 904 b 105 828 102 861 103 843 b 107 821 105 825 106 823 b 111 817 109 819 110 818 z "},"#":{"ha":724,"x_min":0,"x_max":0,"o":"m 111 267 b 104 174 107 237 105 207 b 113 82 104 141 106 111 b 149 15 119 54 131 31 b 228 -3 167 -1 193 -7 b 208 104 216 24 209 59 b 217 256 207 149 210 200 b 223 306 218 273 221 289 l 392 306 b 388 267 391 293 389 280 b 382 174 385 237 383 207 b 391 82 382 141 385 111 b 427 15 397 54 409 31 b 505 -3 445 -1 471 -7 b 486 104 493 24 487 59 b 494 256 485 149 488 200 b 501 306 496 273 498 289 l 656 306 l 656 328 l 504 328 b 563 627 520 429 540 528 l 695 627 l 695 648 l 568 648 b 595 766 578 690 587 730 b 625 895 608 819 618 863 b 608 933 627 911 622 924 b 561 952 595 942 579 949 b 522 958 543 956 530 958 b 508 891 519 942 515 920 b 487 802 501 861 494 831 b 452 648 475 750 463 699 l 290 648 b 317 766 300 690 309 730 b 347 895 330 819 340 863 b 330 933 349 911 344 924 b 283 952 317 942 301 949 b 243 958 265 956 252 958 b 230 891 241 942 237 920 b 209 800 223 861 216 831 b 174 648 197 749 186 699 l 61 648 l 61 627 l 170 627 b 121 360 150 539 134 450 b 117 328 120 349 119 338 l 23 328 l 23 306 l 115 306 b 111 267 113 293 112 280 z m 285 627 l 448 627 b 399 360 428 539 412 450 b 395 328 397 349 396 338 l 227 328 b 285 627 243 429 262 528 z "},"$":{"ha":752,"x_min":0,"x_max":0,"o":"m 117 43 l 74 -31 l 92 -42 l 135 33 b 280 0 174 12 222 1 b 513 68 386 1 464 24 b 593 247 564 113 590 173 b 545 493 596 321 580 404 b 507 588 532 526 519 558 b 493 619 502 599 497 609 b 485 639 490 625 488 632 l 646 916 b 684 880 661 907 674 895 b 701 811 696 861 702 838 b 670 717 701 783 690 751 l 688 706 b 722 812 710 745 722 781 b 701 892 723 843 716 870 b 656 934 690 909 674 924 l 690 994 l 672 1004 l 637 943 b 621 948 631 945 627 947 b 521 937 587 956 554 953 b 438 850 481 916 453 887 b 416 732 422 814 416 774 b 429 610 417 690 421 649 b 433 590 430 603 431 597 l 136 77 b 60 179 101 102 75 136 b 62 326 45 222 45 271 b 135 431 77 370 101 406 b 254 453 169 456 208 464 b 250 516 264 484 263 505 b 189 521 236 527 216 528 b 75 447 142 506 104 481 b 16 329 45 413 26 374 b 22 170 5 275 6 222 b 117 43 38 118 69 76 z m 530 918 b 616 928 559 932 587 935 b 626 924 619 927 623 926 l 476 665 b 456 760 466 695 459 727 b 467 851 452 793 456 823 b 530 918 478 880 499 902 z m 439 559 b 453 505 444 541 448 524 b 462 469 456 493 459 481 b 481 335 472 428 479 383 b 470 196 484 287 481 241 b 410 85 460 152 439 115 b 282 34 380 56 337 38 b 154 65 237 31 194 42 l 439 559 z "},"%":{"ha":647,"x_min":0,"x_max":0,"o":"m 248 576 b 295 675 275 604 290 636 b 273 780 300 713 292 749 b 179 834 254 811 223 829 b 77 803 137 837 103 826 b 24 715 50 779 33 750 b 28 616 16 681 17 648 b 86 551 40 586 60 564 b 171 539 113 538 141 534 b 248 576 201 543 227 555 z m 179 820 b 228 777 203 817 219 802 b 235 688 237 751 239 721 b 207 600 231 654 222 625 b 149 559 193 574 173 561 b 96 599 123 559 106 573 b 90 690 87 625 85 656 b 120 781 94 725 104 755 b 179 820 136 807 155 820 z m 564 201 b 610 300 590 229 606 262 b 589 405 614 339 608 374 b 494 460 570 436 538 454 b 392 428 452 462 418 452 b 339 341 366 405 348 376 b 343 241 331 307 332 273 b 401 177 355 211 374 189 b 486 164 428 164 456 160 b 564 201 516 168 542 181 z m 494 445 b 543 402 517 442 534 428 b 550 313 551 376 554 347 b 522 225 546 279 537 250 b 465 184 507 199 488 186 b 412 224 439 184 421 198 b 405 316 402 251 400 281 b 435 407 409 351 419 381 b 494 445 450 433 471 446 z m 529 851 b 534 934 543 887 545 914 b 484 958 524 953 507 961 b 442 855 482 945 468 911 b 347 655 416 800 385 734 b 287 528 328 614 307 572 l 247 443 b 176 290 222 389 199 337 b 91 102 137 204 109 142 b 85 20 76 66 74 39 b 135 -5 96 1 113 -7 b 177 98 138 8 151 43 b 273 300 203 154 235 221 b 333 425 292 340 312 382 l 372 511 b 446 670 399 567 423 621 b 529 851 484 752 511 812 z "},"&":{"ha":659,"x_min":0,"x_max":0,"o":"m 353 528 b 238 464 309 517 271 496 b 209 509 228 479 218 494 b 223 534 214 517 218 526 b 302 693 253 587 279 640 b 326 777 313 720 321 747 b 322 859 330 804 328 831 b 286 929 316 886 304 909 b 213 964 268 948 243 960 b 142 945 188 966 164 960 b 88 873 115 926 98 902 b 79 782 79 846 76 814 b 99 691 83 752 90 722 b 134 604 109 661 121 632 b 74 494 112 568 92 532 b 33 379 56 457 43 418 b 45 155 15 288 19 214 b 163 29 71 98 111 55 b 334 0 216 3 273 -6 b 503 68 396 6 452 29 b 530 24 513 52 522 38 b 561 -64 550 -9 560 -38 b 547 -127 562 -89 557 -110 b 505 -163 536 -144 522 -155 b 456 -168 489 -170 472 -172 l 455 -168 b 422 -149 443 -165 431 -159 b 401 -107 412 -139 405 -125 b 423 -35 397 -77 405 -52 b 448 -19 431 -27 439 -22 b 473 -16 456 -16 465 -15 b 507 -45 488 -18 498 -28 l 507 -45 b 512 -77 511 -55 513 -66 b 504 -102 511 -86 509 -95 l 521 -115 b 533 -77 528 -104 532 -92 b 526 -37 534 -64 531 -50 b 477 5 514 -12 498 1 b 441 1 465 6 453 5 b 409 -20 429 -3 418 -10 b 384 -59 398 -30 389 -43 b 380 -111 378 -75 378 -92 b 407 -164 385 -134 394 -152 b 451 -189 419 -177 434 -185 b 513 -182 472 -193 493 -191 b 564 -138 534 -173 551 -159 b 583 -64 577 -119 583 -94 b 549 35 581 -35 570 -2 b 519 81 540 50 530 65 b 612 233 568 127 599 177 b 606 391 625 289 623 342 b 515 506 588 441 557 479 b 353 528 471 533 418 540 z m 413 190 b 367 161 399 177 384 168 b 271 167 336 149 304 151 b 199 260 236 186 212 217 b 212 388 189 298 193 341 b 235 429 218 403 227 416 b 380 232 283 359 332 294 b 413 190 391 218 401 204 z m 100 783 b 108 865 98 813 100 840 b 155 928 116 890 132 911 l 155 929 l 157 930 l 157 930 l 157 930 l 158 930 b 209 941 175 941 192 944 b 241 915 225 937 236 928 b 248 869 247 901 250 886 b 241 826 248 852 245 838 b 201 725 231 791 218 758 b 146 627 184 692 165 660 b 100 783 123 678 107 730 z m 131 342 b 197 488 149 391 171 440 l 223 447 b 193 397 211 431 201 415 b 180 254 172 345 167 298 b 260 149 194 205 221 170 b 374 141 300 130 338 127 b 425 173 393 149 410 159 l 452 139 l 464 122 b 336 29 427 74 385 43 b 203 38 288 16 243 18 b 116 144 161 58 132 93 b 131 342 99 195 104 260 z m 476 140 l 468 152 l 440 189 b 474 255 457 208 469 231 b 473 318 479 277 478 298 b 440 370 467 338 456 356 b 431 359 437 366 434 362 b 428 355 430 357 429 356 b 453 311 440 342 448 328 b 454 260 457 294 457 277 b 427 205 449 240 440 222 b 397 245 417 218 407 232 b 250 446 345 312 296 378 b 355 501 279 477 315 495 b 466 473 402 507 439 497 b 519 377 493 449 511 417 b 520 253 528 337 528 296 b 476 140 513 210 498 173 z "},"'":{"ha":119,"x_min":0,"x_max":0,"o":"m 37 817 b 48 817 41 817 44 817 b 62 817 53 817 57 817 b 70 837 65 818 68 825 b 75 880 72 849 74 863 b 76 924 76 896 76 911 b 72 950 75 938 74 947 b 61 958 70 954 66 956 b 36 955 48 958 39 958 b 32 949 34 954 33 951 b 31 944 31 947 31 945 b 28 883 28 924 28 904 b 31 828 28 861 29 843 b 33 821 31 825 32 823 b 37 817 35 819 36 818 z "},"(":{"ha":444,"x_min":0,"x_max":0,"o":"m 317 -5 l 319 18 b 203 92 271 22 232 47 b 144 260 174 136 155 193 b 139 476 134 329 132 401 b 182 692 146 552 160 624 b 271 861 205 760 235 817 b 400 935 307 905 351 930 l 402 958 b 260 926 349 958 302 947 b 149 837 218 904 180 874 b 71 709 117 799 91 756 b 24 556 50 661 35 610 b 13 397 15 503 11 450 b 35 244 14 343 22 292 b 93 116 49 197 68 154 b 186 27 118 79 149 49 b 317 -5 224 5 267 -5 z "},")":{"ha":444,"x_min":0,"x_max":0,"o":"m 17 18 l 15 -5 b 157 27 68 -5 115 5 b 268 116 199 49 237 79 b 347 244 300 154 326 197 b 393 397 368 292 382 343 b 404 556 402 450 406 503 b 382 709 403 610 395 661 b 324 837 368 756 349 799 b 231 926 299 874 268 904 b 100 958 193 947 149 958 l 98 935 b 214 861 146 930 185 905 b 273 692 242 817 262 760 b 278 476 283 624 285 552 b 235 260 271 401 257 329 b 146 92 212 193 182 136 b 17 18 110 47 66 22 z "},"*":{"ha":232,"x_min":0,"x_max":0,"o":"m 79 879 b 90 878 84 879 87 878 b 97 878 95 878 97 878 b 90 873 97 877 95 876 b 83 868 88 871 85 870 b 69 856 77 865 72 860 b 67 838 66 851 65 845 b 79 821 70 832 74 826 b 97 813 85 817 90 814 b 115 823 104 813 111 817 b 125 845 119 829 122 837 b 126 849 125 846 125 848 b 128 855 127 853 128 855 b 131 850 129 855 130 854 b 133 845 132 848 132 847 b 140 827 135 838 137 832 b 151 816 143 821 146 817 b 179 825 161 814 170 817 b 189 852 189 832 192 842 b 174 867 186 857 182 863 b 166 873 171 870 168 872 b 160 878 162 876 160 878 b 169 879 161 878 163 879 b 180 880 172 879 176 880 b 205 892 193 882 201 886 b 204 915 208 900 208 907 b 188 932 201 923 195 928 b 166 930 181 936 174 935 b 159 924 163 928 161 926 b 153 920 155 921 153 920 b 155 929 152 921 153 924 b 156 935 155 931 156 932 b 152 960 159 946 158 954 b 131 966 146 964 139 967 b 109 958 122 966 115 963 b 104 935 103 953 101 945 b 107 918 107 924 109 918 b 98 924 106 917 103 919 b 85 935 94 927 90 931 b 64 932 77 938 70 937 b 54 914 59 928 56 922 b 54 892 52 906 52 899 b 63 882 56 887 58 884 b 79 879 68 880 73 879 z "},"+":{"ha":309,"x_min":0,"x_max":0,"o":"m 122 349 b 144 286 123 317 130 297 b 189 284 158 275 173 275 b 188 442 186 302 185 354 l 278 442 l 278 463 l 189 463 l 189 557 b 167 618 189 587 181 608 b 122 621 153 629 138 630 b 123 463 125 604 126 551 l 33 463 l 33 442 l 123 442 l 122 349 z "},",":{"ha":137,"x_min":0,"x_max":0,"o":"m 66 90 b 35 87 50 92 40 91 b 31 83 33 86 32 85 b 29 77 30 81 29 79 b 26 20 26 59 25 40 b 29 -31 26 0 27 -17 b 33 -38 30 -34 31 -36 b 37 -41 34 -40 35 -41 b 51 -42 41 -42 45 -42 b 66 -42 56 -43 61 -42 b 77 -23 71 -41 74 -35 b 83 17 79 -12 81 2 b 84 60 84 33 84 47 b 79 84 83 72 82 80 b 66 90 77 87 73 90 z "},"-":{"ha":330,"x_min":0,"x_max":0,"o":"m 216 419 b 262 429 236 419 252 422 b 280 455 273 437 279 445 b 273 486 281 465 279 475 b 219 481 260 482 242 481 b 146 484 196 481 172 482 b 89 486 125 484 106 485 b 42 475 68 486 52 481 b 24 449 32 468 26 459 b 32 418 23 439 26 429 b 85 423 44 422 62 423 b 158 421 109 423 133 422 b 216 419 179 420 198 419 z "},"­":{"ha":330,"x_min":0,"x_max":0,"o":"m 216 419 b 262 429 236 419 252 422 b 280 455 273 437 279 445 b 273 486 281 465 279 475 b 219 481 260 482 242 481 b 146 484 196 481 172 482 b 89 486 125 484 106 485 b 42 475 68 486 52 481 b 24 449 32 468 26 459 b 32 418 23 439 26 429 b 85 423 44 422 62 423 b 158 421 109 423 133 422 b 216 419 179 420 198 419 z "},".":{"ha":137,"x_min":0,"x_max":0,"o":"m 58 -5 b 87 19 72 -4 81 4 b 88 64 92 34 93 49 b 58 90 84 79 74 88 b 23 66 41 89 29 81 b 23 20 17 50 17 35 b 58 -5 29 4 41 -4 z "},"/":{"ha":475,"x_min":0,"x_max":0,"o":"m 64 -5 b 106 98 66 8 80 43 b 201 300 132 154 163 221 b 261 425 221 340 241 382 l 301 511 b 375 671 327 568 352 621 b 457 851 412 752 440 812 b 463 934 472 887 474 914 b 413 958 452 953 435 961 b 371 855 410 945 397 911 b 276 655 345 800 313 733 b 215 528 256 614 236 572 l 176 443 b 105 290 151 389 127 337 b 19 102 66 204 37 142 b 14 20 5 66 3 39 b 64 -5 24 1 41 -7 z "},":":{"ha":158,"x_min":0,"x_max":0,"o":"m 61 507 b 90 532 75 509 85 516 b 92 577 96 547 96 562 b 62 602 87 592 77 601 b 26 578 44 602 33 593 b 26 532 21 563 21 547 b 61 507 33 517 44 509 z m 61 340 b 90 364 75 340 85 349 b 92 410 96 379 96 394 b 62 435 87 425 77 433 b 26 410 44 434 33 426 b 26 365 21 395 21 380 b 61 340 33 349 44 341 z "},";":{"ha":200,"x_min":0,"x_max":0,"o":"m 54 303 b 66 302 57 302 62 302 b 83 302 72 302 77 302 b 93 321 87 304 90 310 b 99 361 96 333 98 346 b 100 404 100 377 100 391 b 95 428 99 416 98 425 b 82 435 93 431 88 433 b 52 432 66 436 56 435 b 47 427 50 431 48 429 b 45 422 45 425 45 423 b 41 364 43 404 41 385 b 45 313 41 345 43 327 b 48 307 46 311 47 309 b 54 303 50 304 52 303 z m 77 507 b 106 532 92 509 101 516 b 108 577 112 547 113 562 b 78 602 103 592 94 601 b 43 578 60 602 49 593 b 43 532 37 563 37 547 b 77 507 48 517 60 509 z "},"<":{"ha":351,"x_min":0,"x_max":0,"o":"m 73 397 l 146 328 b 263 214 214 267 253 229 b 292 247 281 219 290 230 b 264 304 294 264 285 283 l 190 374 b 109 448 157 404 130 429 b 193 526 130 469 158 494 l 266 595 b 294 652 287 616 296 635 b 266 685 292 669 283 680 b 149 571 255 670 216 632 l 75 503 b 44 451 56 485 45 468 b 73 397 43 435 52 416 z "},"=":{"ha":338,"x_min":0,"x_max":0,"o":"m 94 464 b 47 453 73 464 58 460 b 30 427 37 446 31 437 b 37 397 28 417 31 407 b 91 401 50 400 67 401 b 163 399 114 401 138 401 b 220 397 184 398 203 397 b 267 408 241 397 257 401 b 285 434 277 415 283 423 b 278 464 286 444 284 454 b 224 459 265 461 248 459 b 151 462 201 460 176 460 b 94 464 130 463 111 463 z m 278 556 b 224 551 265 553 248 551 b 151 553 201 551 176 552 b 94 555 130 555 111 555 b 47 545 73 555 58 552 b 30 519 37 538 31 529 b 37 488 28 509 31 498 b 91 494 50 492 67 494 b 163 491 114 493 138 492 b 220 489 184 490 203 490 b 267 500 241 489 257 492 b 285 526 277 507 283 515 b 278 556 286 536 284 546 z "},">":{"ha":404,"x_min":0,"x_max":0,"o":"m 267 502 l 193 571 b 75 685 125 632 85 670 b 46 652 58 680 48 669 b 75 595 44 635 54 616 l 149 526 b 230 450 182 496 209 471 b 146 374 208 430 180 404 l 73 304 b 44 247 52 283 42 264 b 73 214 46 230 56 219 b 191 328 83 229 123 267 l 264 397 b 294 448 283 414 293 431 b 267 502 296 465 287 483 z "},"?":{"ha":457,"x_min":0,"x_max":0,"o":"m 60 -5 b 94 20 77 -5 88 3 b 97 73 101 37 102 55 b 64 104 92 90 81 101 b 26 79 47 105 34 96 b 22 26 19 62 18 44 b 60 -5 28 7 40 -3 z m 48 732 b 78 859 45 784 56 826 b 160 926 100 892 127 914 b 251 928 193 938 223 939 b 305 859 279 918 297 895 b 279 715 313 825 304 777 b 224 617 264 682 245 649 b 161 524 203 585 182 554 b 104 441 140 495 121 467 b 46 328 80 404 61 366 b 27 224 32 290 25 256 b 66 150 28 193 41 168 b 111 262 70 183 85 220 b 207 397 138 304 170 350 b 315 551 245 447 281 498 b 389 708 349 603 374 655 b 389 846 403 764 403 810 b 321 930 374 884 352 911 b 221 958 290 948 257 958 b 122 933 186 958 153 950 b 50 857 92 916 67 891 b 27 730 32 823 24 781 l 48 732 z "},"@":{"ha":636,"x_min":0,"x_max":0,"o":"m 252 -4 b 393 47 304 -5 352 12 b 500 191 435 83 471 130 b 570 387 530 250 553 315 b 600 599 587 458 596 529 b 588 787 603 669 599 732 b 532 915 576 844 557 886 b 491 944 519 928 505 938 b 447 957 477 951 463 955 b 399 960 431 959 415 960 b 221 889 331 958 272 935 b 98 713 171 844 130 785 b 35 485 67 642 46 566 b 36 254 24 404 24 327 b 106 74 47 182 71 121 b 252 -4 142 27 191 1 z m 460 932 b 536 873 492 928 518 908 b 573 736 555 838 567 792 b 572 555 578 681 578 621 b 538 362 566 490 555 426 l 533 353 b 493 323 521 335 508 325 b 460 354 479 321 468 332 b 456 432 455 375 454 401 b 470 524 459 463 464 494 b 486 597 476 553 481 578 b 489 611 487 603 488 608 b 490 622 490 616 490 619 b 484 638 490 628 488 633 b 465 649 479 644 473 647 b 449 650 460 650 454 650 b 435 646 443 649 438 648 b 425 591 436 641 433 623 b 386 644 419 618 406 636 b 319 642 366 653 343 652 b 242 562 286 625 260 599 b 219 450 224 524 216 487 b 258 375 222 416 235 391 b 336 380 280 360 306 361 b 403 464 364 399 387 428 b 405 402 402 446 402 426 b 423 339 407 379 413 357 b 475 306 438 317 455 306 b 529 330 495 305 513 313 b 435 130 505 252 474 184 b 298 35 396 76 351 44 b 260 39 283 34 271 35 b 186 130 226 52 201 82 b 168 307 172 179 166 237 b 195 520 170 375 179 446 b 258 726 210 594 232 663 b 350 879 285 790 315 841 b 460 932 385 917 421 935 z m 416 568 b 410 518 416 552 414 536 b 395 473 406 501 400 486 b 372 436 391 463 383 451 b 335 399 361 421 349 408 b 294 392 317 387 303 385 b 276 444 283 401 277 418 b 288 523 275 468 279 495 b 323 596 296 551 307 576 b 376 627 338 616 356 627 b 405 612 388 627 397 623 b 416 568 412 603 416 588 z "},"A":{"ha":1066,"x_min":0,"x_max":0,"o":"m 13 61 b 70 9 26 37 45 20 b 159 1 94 -2 124 -5 b 309 89 205 10 256 39 b 469 273 361 138 414 199 b 625 500 522 345 574 421 b 707 480 652 494 680 487 b 711 479 708 479 709 479 b 793 459 740 471 767 465 b 772 237 780 380 773 306 b 802 68 772 168 781 112 b 907 -1 822 25 857 2 b 1032 77 956 -1 998 25 b 1043 97 1036 84 1040 90 b 1075 181 1057 123 1067 151 b 1090 271 1084 212 1088 242 l 1069 273 b 1055 186 1068 245 1063 216 b 1025 106 1047 158 1037 131 b 1015 88 1021 100 1017 94 b 964 39 999 64 983 48 b 911 39 945 29 928 29 b 874 119 892 52 880 79 b 876 264 869 159 869 208 b 902 446 881 321 890 382 b 966 477 932 447 954 458 l 956 488 b 905 467 944 475 927 469 b 979 796 931 593 956 703 b 1004 900 991 842 999 876 b 987 937 1006 916 1000 928 b 940 957 974 947 958 954 b 901 962 922 961 909 962 b 835 880 886 951 863 924 b 733 716 806 836 772 781 b 731 713 732 715 732 714 b 614 524 695 654 656 591 b 524 541 585 531 555 537 b 311 536 444 553 372 551 b 152 466 249 522 196 498 b 47 356 108 434 73 397 b -11 197 14 303 -5 250 b 13 61 -16 144 -9 98 z m 751 705 b 894 927 814 811 862 885 b 868 817 888 897 879 861 b 796 479 843 718 819 606 b 720 498 772 485 747 492 b 711 500 717 499 714 500 l 636 519 b 751 705 677 585 715 647 z m 521 521 b 603 505 549 517 576 511 b 451 283 553 428 503 354 b 297 106 399 213 347 154 b 155 21 246 58 199 30 b 54 46 109 14 75 22 b 28 144 34 70 25 102 b 69 277 31 185 45 230 b 170 409 94 325 127 368 b 323 503 213 450 264 481 b 521 521 382 524 448 530 z "},"B":{"ha":1153,"x_min":0,"x_max":0,"o":"m 193 298 b 311 406 235 324 275 360 b 399 540 347 452 376 497 b 488 782 448 635 478 716 b 477 938 499 848 495 900 b 468 956 474 945 471 950 b 539 983 492 970 516 979 b 592 970 562 987 580 983 b 598 896 604 958 606 932 b 591 864 596 885 593 874 b 590 859 591 862 591 861 b 577 802 586 840 581 821 b 528 585 559 730 543 658 b 490 364 513 513 500 439 b 479 271 485 333 481 302 b 473 178 475 242 473 211 b 481 87 472 145 475 115 b 517 20 487 58 499 36 b 595 1 535 3 562 -3 b 576 129 582 32 575 75 b 656 35 597 87 625 56 b 720 6 676 20 698 11 b 785 -1 742 1 764 -1 b 939 54 844 1 896 19 b 1040 189 983 90 1017 134 b 1074 360 1064 243 1075 300 b 1029 524 1074 419 1059 474 b 889 638 999 574 953 612 b 901 649 893 642 897 646 b 986 764 943 688 972 726 b 998 866 1001 802 1005 836 b 955 939 991 897 977 921 b 874 962 932 956 905 964 b 795 935 849 961 823 952 b 714 857 768 919 741 892 l 702 839 b 697 916 703 867 701 892 b 669 975 694 939 684 959 b 595 1009 653 992 629 1003 b 444 985 551 1017 500 1008 b 404 1010 432 996 418 1004 b 298 1019 373 1023 337 1026 b 140 941 245 1010 193 984 b 8 769 87 899 43 842 l 27 760 b 152 924 60 829 102 884 b 302 998 202 965 252 989 b 396 991 337 1004 369 1002 b 422 976 406 987 414 982 l 410 970 b 229 833 347 937 286 892 b 82 644 171 775 122 712 b 5 450 42 576 16 512 b 15 334 -1 405 1 366 b 81 274 28 302 50 282 b 193 298 111 265 149 273 z m 680 747 b 731 845 694 785 711 818 b 829 911 765 888 798 911 b 905 872 860 912 886 899 b 934 774 925 846 935 813 b 889 667 933 736 918 701 b 865 646 882 659 874 652 l 859 648 b 751 663 827 657 791 662 b 661 648 704 662 674 657 l 656 645 l 680 747 z m 661 610 b 752 589 675 598 706 591 b 869 623 797 588 836 600 b 952 541 907 609 935 581 b 975 402 969 501 977 455 b 949 243 974 349 965 296 b 882 106 932 191 910 145 b 785 29 854 67 821 41 b 667 52 748 17 709 24 b 578 178 629 77 600 119 b 585 260 579 205 581 232 b 651 620 600 379 623 498 b 661 610 653 616 656 612 z m 41 435 b 130 606 58 486 88 544 b 273 787 173 669 220 730 b 427 930 327 845 378 892 b 450 945 435 935 441 941 b 458 929 452 940 455 935 b 467 782 475 894 478 845 b 380 549 456 719 428 642 b 290 414 358 506 328 461 b 169 309 253 367 212 332 b 83 296 135 293 106 289 b 37 345 60 304 45 320 b 41 435 28 370 30 399 z "},"C":{"ha":542,"x_min":0,"x_max":0,"o":"m 4 517 l 13 516 b -5 327 -1 452 -7 389 b 32 159 -3 265 9 210 b 130 41 54 110 86 71 b 296 -1 174 12 229 -2 b 399 28 334 0 369 9 b 483 101 430 45 458 70 b 541 194 507 132 526 163 b 565 273 555 225 563 252 l 565 274 l 551 274 l 544 275 l 544 274 b 521 201 542 254 534 230 b 467 115 508 172 490 143 b 380 43 438 81 410 57 b 296 27 351 29 323 24 b 179 114 242 35 203 64 b 147 298 156 163 145 224 b 180 524 149 370 160 446 b 268 550 210 530 239 539 b 435 654 331 574 387 609 b 532 823 484 700 516 755 b 519 925 541 865 536 900 b 426 962 501 951 470 963 b 222 882 349 959 281 932 b 192 903 212 889 202 896 b 9 962 132 941 71 961 b -133 932 -47 962 -95 951 b -218 859 -171 914 -199 889 b -248 766 -236 831 -246 800 b -227 668 -249 733 -242 701 b -143 572 -210 631 -182 599 b 4 517 -104 544 -55 526 z m 287 786 b 315 743 297 772 307 758 l 334 753 b 298 805 323 771 311 789 b 363 884 319 838 341 864 b 432 924 386 905 409 918 b 500 903 463 930 486 922 b 511 827 513 882 517 857 b 418 668 496 764 465 711 b 260 570 372 625 319 592 b 186 547 236 560 212 553 b 287 786 212 637 245 718 z m 32 928 b 205 867 92 924 150 903 b 91 720 161 827 122 777 b 18 536 59 663 35 602 l 7 538 b -134 589 -54 547 -100 564 b -206 692 -174 618 -197 653 b -194 808 -215 732 -211 770 b -110 899 -177 845 -149 876 b 32 928 -71 922 -24 932 z "},"D":{"ha":1149,"x_min":0,"x_max":0,"o":"m 73 275 b 190 298 104 264 143 272 b 308 406 233 324 272 360 b 395 540 345 452 374 497 b 486 782 445 635 475 716 b 474 938 496 848 492 900 b 465 956 471 944 468 950 b 516 978 481 964 498 972 b 564 983 534 983 549 985 b 595 962 580 981 590 974 b 600 922 600 951 602 937 b 593 882 598 907 595 894 b 591 875 592 879 591 877 b 576 812 587 853 581 832 b 570 783 574 800 572 791 b 562 747 567 771 564 760 b 549 691 557 728 553 709 b 503 467 531 616 516 542 b 487 364 497 433 492 399 b 476 271 483 333 479 302 b 470 178 473 242 471 211 b 478 87 469 145 472 115 b 515 20 485 58 496 36 b 593 1 532 3 559 -3 b 573 118 581 30 574 68 b 585 93 577 109 581 101 b 654 20 604 60 627 35 b 742 -1 682 4 711 -3 b 897 77 799 3 850 29 b 1013 257 942 124 981 184 b 1081 488 1044 330 1067 406 b 1093 716 1095 568 1099 644 b 1038 890 1086 787 1068 846 b 907 958 1008 935 964 958 b 846 949 888 959 868 956 b 780 911 825 943 803 930 b 689 794 748 884 718 845 b 680 949 702 862 699 913 b 589 1011 661 985 631 1006 b 440 985 547 1017 497 1008 b 401 1010 429 996 416 1004 b 295 1019 370 1023 334 1026 b 137 941 242 1010 189 984 b 5 769 84 899 40 842 l 24 760 b 149 924 58 829 99 884 b 298 998 199 965 249 989 b 393 991 334 1004 366 1002 b 418 976 402 987 411 982 b 237 844 357 944 296 901 b 85 656 178 788 127 726 b 2 450 42 588 15 519 b 0 381 -2 429 -3 406 b 20 316 2 357 9 336 b 73 275 32 297 50 283 z m 688 749 b 793 895 721 814 756 863 b 871 922 825 920 850 929 b 918 873 891 915 907 899 b 943 789 930 847 938 819 b 950 712 947 758 950 733 b 935 511 951 650 945 583 b 890 301 924 439 909 369 b 821 130 870 234 847 176 b 732 41 793 82 764 53 b 663 44 709 33 686 34 b 604 103 640 54 621 73 b 583 180 593 125 585 151 b 583 260 580 210 580 237 b 612 446 589 320 600 382 b 651 633 625 511 637 573 b 667 692 655 650 660 670 b 688 749 673 714 680 733 z m 35 394 b 62 494 39 433 48 466 b 227 739 100 572 155 654 b 446 945 298 825 372 894 b 455 929 450 940 452 935 b 464 782 471 894 475 845 b 377 549 454 719 425 642 b 287 414 355 506 325 461 b 165 309 250 367 210 332 b 68 304 124 290 92 288 b 35 394 44 319 33 350 z "},"E":{"ha":900,"x_min":0,"x_max":0,"o":"m 83 385 l 90 393 b 44 513 56 428 41 468 b 90 642 47 558 62 601 b 194 735 117 682 152 713 b 372 784 250 762 309 778 b 559 789 436 790 498 792 b 597 722 565 767 578 745 b 442 710 540 725 488 721 b 245 600 359 689 293 652 b 156 420 197 547 168 487 b 176 224 144 353 151 288 b 309 66 201 160 245 108 b 557 -1 372 24 455 1 b 789 68 645 -1 722 22 b 926 267 856 115 901 181 l 905 273 b 814 117 887 208 857 155 b 671 43 772 79 725 54 b 510 44 617 31 564 31 b 370 119 457 58 410 82 b 285 264 329 156 301 204 b 294 454 270 328 273 391 b 408 616 315 518 353 572 b 622 688 464 660 535 684 l 624 685 b 673 628 636 663 652 644 b 696 616 680 623 688 619 b 722 617 705 614 713 614 b 733 629 727 620 730 624 b 732 650 735 636 735 643 b 722 667 730 656 726 662 b 694 690 713 676 705 684 b 641 712 680 699 662 707 l 631 717 b 644 788 623 737 627 761 b 705 791 665 788 686 789 b 842 826 760 795 805 807 b 878 852 854 833 866 841 b 903 887 889 863 897 874 b 897 935 909 906 907 922 b 855 966 887 947 873 958 b 806 981 838 973 822 979 b 682 974 763 990 722 987 b 587 909 642 960 610 939 b 555 810 562 880 552 847 b 507 812 539 810 523 811 b 336 812 450 815 393 815 b 170 775 279 809 224 797 b 64 699 127 757 92 731 b 7 591 36 665 16 629 b 9 477 -3 551 -3 514 b 83 385 21 441 45 410 z m 813 937 b 878 933 844 947 865 945 b 885 899 888 922 890 911 b 859 865 880 886 871 876 b 832 845 848 855 839 848 b 704 811 798 827 755 815 b 659 809 690 810 674 810 b 739 889 682 839 709 865 b 813 937 769 913 794 929 z "},"F":{"ha":858,"x_min":0,"x_max":0,"o":"m 192 298 b 310 406 234 324 274 360 b 397 540 346 452 375 497 b 487 782 447 635 477 716 b 476 938 498 848 494 900 b 467 956 473 945 470 950 l 467 956 b 513 976 480 963 496 970 b 562 984 530 982 547 985 b 597 962 578 983 589 976 b 597 896 604 949 604 926 b 579 817 591 869 585 843 b 564 749 574 794 569 772 b 519 542 548 680 533 612 b 326 358 443 493 378 432 l 343 347 b 507 479 383 389 438 433 b 489 364 500 441 494 403 b 478 271 484 333 481 302 b 472 178 475 242 473 211 b 480 87 471 145 474 115 b 517 20 486 58 498 36 b 595 1 534 3 561 -3 b 576 109 583 28 576 64 b 584 260 574 154 577 204 b 635 553 596 355 613 452 b 870 621 714 591 793 614 l 873 642 b 648 608 801 650 726 639 l 676 732 b 693 817 683 759 688 787 b 696 903 698 847 699 876 b 666 974 693 931 683 955 b 585 1010 649 994 623 1006 b 513 1007 563 1015 538 1013 b 442 985 487 1002 463 994 b 403 1010 431 996 418 1004 b 297 1019 372 1023 336 1026 b 138 941 244 1010 191 984 b 7 769 86 899 42 842 l 26 760 b 151 924 60 829 101 884 b 300 998 201 965 250 989 b 395 991 336 1004 368 1002 b 420 976 404 987 413 982 l 409 970 b 227 833 345 937 285 892 b 81 644 170 775 121 712 b 4 450 41 576 15 512 b 14 334 -3 405 1 366 b 79 274 27 302 49 282 b 192 298 110 265 147 273 z m 39 435 b 129 606 57 486 87 544 b 272 787 172 669 219 730 b 426 930 326 845 376 892 b 448 945 433 935 441 941 b 456 929 451 940 454 935 b 466 782 473 894 477 845 b 379 549 456 719 427 642 b 289 414 357 506 327 461 b 168 309 252 367 211 332 b 82 296 134 293 105 289 b 35 345 59 304 43 320 b 39 435 27 370 28 399 z "},"G":{"ha":659,"x_min":0,"x_max":0,"o":"m 1 517 l 10 516 b -5 353 -1 467 -7 412 b 24 184 -4 294 6 238 b 109 52 42 131 71 87 b 263 -1 149 18 199 0 b 370 36 304 0 340 12 b 445 124 400 60 425 89 b 493 231 465 159 481 195 l 503 260 b 466 78 496 199 484 138 b 450 29 461 61 456 45 l 420 13 l 408 6 l 375 -12 l 375 -12 b 346 -30 365 -18 355 -24 b 249 -115 302 -60 269 -88 b 214 -187 228 -142 216 -167 b 227 -235 212 -207 216 -223 b 271 -256 237 -248 252 -255 b 352 -231 300 -256 328 -248 b 420 -163 377 -214 399 -191 b 484 -54 445 -129 466 -92 b 523 48 501 -15 514 19 b 627 138 563 73 597 103 b 683 270 658 174 676 218 l 662 272 b 618 161 656 229 642 192 b 532 80 594 130 566 102 b 572 346 557 169 570 258 b 549 379 571 361 564 372 b 498 372 535 387 518 385 b 492 315 499 361 496 342 b 473 238 488 288 481 262 b 385 87 450 173 420 123 b 278 34 349 52 314 35 b 188 90 242 33 212 52 b 148 271 163 128 150 189 b 156 410 147 319 150 365 b 177 524 162 455 169 493 b 264 550 207 530 236 539 b 432 654 328 574 384 609 b 529 823 481 700 513 755 b 515 925 538 865 534 900 b 423 962 498 951 467 963 b 218 882 346 959 278 932 b 189 903 208 889 199 896 b 6 962 128 941 68 961 b -136 932 -51 962 -98 951 b -221 859 -174 914 -202 889 b -251 766 -239 831 -250 800 b -231 668 -252 733 -245 701 b -146 572 -213 631 -185 599 b 1 517 -108 544 -58 526 z m 309 -210 b 276 -228 299 -220 288 -226 b 245 -223 264 -231 254 -229 b 235 -190 237 -217 234 -206 b 267 -126 237 -172 248 -151 b 357 -47 286 -102 317 -75 b 385 -31 366 -41 375 -36 l 418 -12 l 429 -5 l 438 -1 b 412 -57 433 -12 425 -31 b 364 -139 398 -83 382 -110 b 309 -210 347 -168 328 -191 z m 283 786 b 312 743 294 772 303 758 l 330 753 b 295 805 320 771 309 789 b 360 884 316 838 338 864 b 429 924 382 905 406 918 b 496 903 460 930 483 922 b 508 827 511 882 514 857 b 416 668 493 764 463 711 b 257 570 369 625 316 592 b 184 547 233 560 208 553 b 283 786 210 637 243 718 z m 28 928 b 202 867 89 924 147 903 b 87 720 157 827 119 777 b 15 536 56 663 31 602 l 4 538 b -138 589 -57 547 -104 564 b -210 692 -177 618 -201 653 b -197 808 -218 732 -214 770 b -113 899 -180 845 -152 876 b 28 928 -75 922 -27 932 z "},"H":{"ha":1106,"x_min":0,"x_max":0,"o":"m 105 276 b 278 316 152 277 210 290 b 498 412 347 342 420 374 l 491 364 b 480 271 487 333 484 302 b 475 178 477 242 475 211 b 483 87 474 145 477 115 b 519 20 489 58 501 36 b 597 1 537 3 563 -3 b 578 109 585 28 579 64 b 587 260 577 154 580 204 b 621 470 595 328 606 397 b 851 572 703 510 780 544 b 819 370 837 504 827 437 b 812 189 811 304 809 243 b 849 56 817 134 829 90 b 945 3 870 22 902 5 b 1071 81 994 3 1036 28 b 1082 100 1075 87 1078 94 b 1114 184 1095 126 1105 154 b 1129 275 1122 216 1127 245 l 1108 277 b 1093 190 1106 248 1101 220 b 1063 110 1086 161 1076 134 b 1053 92 1059 103 1056 97 b 1002 42 1038 68 1021 52 b 950 42 983 33 966 33 b 913 117 931 54 919 79 b 913 254 908 155 908 201 b 936 427 918 309 925 366 b 972 607 947 488 959 548 b 1042 608 1000 612 1023 612 b 1076 573 1060 604 1072 592 l 1085 576 b 1050 625 1080 601 1067 616 b 977 629 1033 632 1008 633 b 1018 800 992 693 1006 750 b 1042 903 1029 846 1038 880 b 1025 941 1044 919 1039 932 b 979 960 1012 950 996 957 b 939 966 960 964 947 966 b 907 820 934 935 923 887 b 856 596 890 753 873 679 b 626 496 785 569 709 536 b 679 734 644 581 661 661 b 682 745 680 737 680 741 b 700 842 690 776 696 808 b 692 935 705 875 702 906 b 628 1000 684 962 662 985 b 411 970 570 1023 498 1013 b 227 831 347 937 286 890 b 80 639 169 772 120 707 b 36 545 66 616 52 585 b 4 425 21 506 10 466 b 16 321 -2 384 2 349 b 105 276 30 292 60 277 z m 115 581 b 264 776 157 648 208 713 b 429 930 321 838 376 890 b 486 964 444 942 463 954 b 549 984 508 975 529 981 b 595 968 570 986 585 981 b 600 896 606 956 607 931 b 581 813 593 868 587 841 b 517 526 559 718 538 623 l 517 524 l 515 514 l 516 515 l 502 437 b 279 338 422 399 349 366 b 105 297 209 311 151 298 b 39 334 69 298 47 311 b 41 418 31 357 32 385 b 77 513 50 451 62 482 b 115 581 92 543 105 566 z "},"I":{"ha":776,"x_min":0,"x_max":0,"o":"m 189 298 b 307 406 232 324 271 360 b 395 540 344 452 373 497 b 485 782 444 635 474 716 b 473 938 495 848 492 900 b 464 956 471 944 467 950 b 534 983 487 968 511 977 b 587 972 557 987 575 983 b 595 896 600 960 603 934 b 570 787 587 859 578 823 b 511 514 548 696 528 606 b 485 329 498 451 490 389 b 486 166 479 269 480 215 b 524 49 491 117 504 78 b 616 3 545 20 575 4 b 741 81 665 3 707 28 b 752 100 745 87 749 94 b 784 184 766 126 776 154 b 800 275 793 216 798 245 l 779 277 b 764 190 777 248 772 220 b 733 110 756 161 746 134 b 724 92 730 103 726 97 b 673 42 708 68 692 52 b 621 42 654 33 637 33 b 581 148 597 58 584 94 b 593 340 578 201 582 266 b 634 565 604 414 617 489 b 682 772 650 642 667 710 l 683 774 l 687 789 b 673 958 703 866 699 922 b 557 1012 648 995 609 1013 b 439 985 517 1010 477 1002 b 401 1010 428 996 415 1004 b 294 1019 369 1023 334 1026 b 136 941 241 1010 189 984 b 4 769 83 899 39 842 l 23 760 b 149 924 57 829 98 884 b 298 998 198 965 248 989 b 393 991 333 1004 365 1002 b 418 976 401 987 410 982 l 406 970 b 224 833 342 937 282 892 b 78 644 168 775 119 712 b 2 450 38 576 13 512 b 12 334 -5 405 -2 366 b 77 274 24 302 46 282 b 189 298 107 265 144 273 z m 37 435 b 127 606 54 486 84 544 b 270 787 169 669 217 730 b 424 930 323 845 374 892 b 446 945 431 935 438 941 b 454 929 449 940 452 935 b 463 782 471 894 474 845 b 376 549 453 719 424 642 b 287 414 354 506 324 461 b 165 309 249 367 209 332 b 80 296 132 293 103 289 b 33 345 57 304 41 320 b 37 435 25 370 26 399 z "},"J":{"ha":591,"x_min":0,"x_max":0,"o":"m 316 728 b 485 798 374 749 430 773 l 451 651 l 450 646 l 449 641 b 397 604 431 629 414 617 b 258 488 348 569 301 530 b 148 345 214 445 178 397 b 97 223 124 302 107 261 b 84 121 87 185 83 151 b 100 53 85 94 90 71 b 139 12 109 33 122 20 b 194 -1 156 3 174 -1 b 350 55 256 -1 308 17 b 452 201 391 92 425 141 b 515 394 478 262 499 326 b 555 587 532 462 545 526 b 578 701 564 630 571 668 b 740 815 641 740 694 778 b 823 932 785 852 812 891 l 803 937 b 729 834 793 902 769 868 b 585 730 690 801 642 766 b 596 789 590 751 593 770 b 610 873 601 821 606 849 b 647 905 622 882 634 893 b 679 946 659 918 670 931 b 692 992 688 961 692 976 b 673 1034 692 1010 686 1024 b 615 1043 660 1044 641 1047 b 576 1023 602 1040 588 1034 b 542 979 563 1013 551 998 b 511 897 530 954 519 926 b 492 829 502 867 495 845 l 491 825 b 311 749 433 797 374 772 b 309 747 311 748 309 748 b 176 694 262 730 218 712 b 68 633 135 675 99 655 b 2 558 38 612 16 587 l 21 549 b 83 618 33 575 54 598 b 188 676 113 640 148 659 b 316 728 229 694 271 711 z m 250 52 b 179 22 229 34 205 23 b 119 62 154 20 134 33 b 105 122 111 78 106 98 b 117 218 104 151 108 182 b 166 335 127 255 144 294 b 273 473 195 386 231 431 b 409 587 315 515 361 553 l 442 611 b 425 520 437 583 431 553 b 387 344 414 464 401 405 b 333 175 373 283 355 227 b 250 52 311 123 283 82 z m 617 907 b 646 987 627 947 637 975 b 665 998 654 1001 661 1004 b 660 963 668 992 667 981 b 617 907 653 946 639 927 z "},"K":{"ha":1002,"x_min":0,"x_max":0,"o":"m 192 298 b 310 406 234 324 274 360 b 397 540 346 452 375 497 b 487 782 447 635 477 716 b 476 938 498 848 494 900 b 467 956 473 944 470 950 b 513 977 478 963 494 970 b 567 983 532 983 550 985 b 600 951 584 981 595 970 b 600 909 602 939 602 925 b 589 860 597 894 593 878 b 581 831 586 850 584 841 b 575 804 579 823 577 813 b 526 587 558 732 542 659 b 488 364 511 514 498 439 b 477 271 484 333 479 302 b 471 178 473 242 472 211 b 479 87 470 145 473 115 b 515 20 486 58 497 36 b 594 1 533 3 559 -3 b 574 109 582 28 575 64 b 583 260 573 154 576 204 b 621 490 592 334 605 411 b 686 456 651 484 673 473 b 712 396 700 439 709 420 b 713 279 716 361 717 322 b 712 188 712 248 711 218 b 725 102 713 157 717 129 b 767 33 733 75 747 52 b 844 3 787 14 812 4 b 969 81 892 3 935 28 b 980 100 973 87 977 94 b 1012 184 994 126 1004 154 b 1027 275 1021 216 1025 245 l 1006 277 b 991 190 1005 248 1000 220 b 962 110 984 161 974 134 b 951 92 958 103 954 97 b 901 42 936 68 919 52 b 848 42 882 33 865 33 b 818 92 834 52 824 68 b 808 172 812 115 809 141 b 808 263 807 201 808 232 b 804 389 810 315 809 357 b 754 468 798 421 781 448 b 626 511 728 489 685 503 b 829 661 703 544 771 594 b 932 806 869 706 903 754 b 1000 960 962 857 984 908 l 980 966 b 914 816 964 916 943 866 b 814 675 886 766 852 719 b 631 536 760 614 699 568 b 677 740 646 609 662 677 b 694 829 684 768 690 798 b 693 916 698 860 698 888 b 656 983 688 943 676 966 b 566 1012 637 1001 607 1010 b 511 1006 549 1013 530 1010 b 442 985 489 1002 466 995 b 403 1010 431 996 418 1004 b 297 1019 372 1023 336 1026 b 138 941 244 1010 191 984 b 7 769 86 899 42 842 l 26 760 b 151 924 60 829 101 884 b 300 998 201 965 251 989 b 395 991 336 1004 368 1002 b 420 976 404 987 413 982 l 409 970 b 227 833 345 937 285 892 b 81 644 170 775 121 712 b 4 450 41 576 15 512 b 14 334 -3 405 1 366 b 79 274 27 302 49 282 b 192 298 110 265 147 273 z m 39 435 b 129 606 57 486 87 544 b 273 787 172 669 219 730 b 426 930 326 845 376 892 b 448 945 433 935 441 941 b 456 929 451 940 454 935 b 466 782 473 894 477 845 b 379 549 456 719 427 642 b 289 414 357 506 327 461 b 168 309 252 367 211 332 b 82 296 134 293 105 289 b 35 345 59 304 43 320 b 39 435 27 370 28 399 z "},"L":{"ha":781,"x_min":0,"x_max":0,"o":"m 63 279 b 191 298 96 263 138 269 b 309 406 233 324 273 360 b 397 540 345 452 374 497 b 486 782 446 635 475 716 b 475 938 496 848 493 900 b 466 955 472 944 469 949 b 536 982 490 968 513 977 b 591 972 559 987 578 984 b 598 896 604 960 606 935 b 573 787 590 859 582 823 b 514 514 551 696 532 606 l 515 515 b 489 330 503 452 494 390 b 490 166 484 270 484 215 b 528 50 495 117 508 79 b 619 3 549 20 579 4 b 745 81 669 3 711 28 b 756 100 749 87 753 94 b 788 184 769 126 780 154 b 804 275 796 216 802 245 l 783 277 b 768 190 781 248 776 220 b 737 110 760 161 750 134 b 727 92 734 103 730 97 b 677 42 712 68 695 52 b 625 42 658 33 641 33 b 586 136 603 57 590 88 b 593 307 582 183 584 240 b 627 513 601 373 612 441 b 671 713 642 584 656 650 b 679 743 674 723 676 733 b 694 808 684 765 690 786 b 701 871 698 829 701 850 b 656 981 699 922 684 959 b 548 1012 629 1004 593 1015 b 441 985 511 1008 475 1000 b 402 1010 429 996 416 1004 b 296 1019 370 1023 335 1026 b 138 941 243 1010 191 984 b 5 769 85 899 41 842 l 24 760 b 150 924 58 829 100 884 b 299 998 200 965 250 989 b 394 991 335 1004 366 1002 b 420 976 404 987 412 982 l 408 970 b 227 833 345 937 284 892 b 80 644 169 775 120 712 b 3 450 40 576 14 512 b 1 387 0 431 -1 410 b 18 323 3 364 8 343 b 63 279 28 304 43 289 z m 46 441 b 135 612 64 493 94 550 b 275 789 176 673 223 732 b 427 930 328 846 378 893 b 448 944 433 935 440 939 b 456 929 450 940 453 935 b 465 782 473 894 475 845 b 378 549 454 719 425 642 b 288 414 355 506 326 461 b 167 309 251 367 210 332 b 79 296 130 292 101 288 b 38 349 58 304 44 322 b 46 441 32 374 35 406 z "},"M":{"ha":1444,"x_min":0,"x_max":0,"o":"m 193 298 b 312 406 236 324 275 360 b 399 540 348 452 377 497 b 489 782 449 635 479 716 b 478 938 500 848 496 900 b 469 956 475 945 472 950 b 508 974 481 963 494 969 b 562 984 528 981 545 985 b 597 963 578 983 590 977 b 598 896 605 949 605 927 b 575 793 591 861 583 827 b 527 580 558 722 543 651 b 490 364 512 509 500 437 b 479 271 485 333 481 302 b 473 178 475 242 473 211 b 481 87 472 145 475 115 b 517 20 488 58 499 36 b 596 1 535 3 562 -3 b 576 124 583 31 576 72 l 576 125 b 624 442 582 241 597 347 b 693 638 644 515 667 580 b 777 789 720 696 748 747 b 860 890 797 821 825 854 b 893 915 869 899 881 907 b 924 922 906 922 916 925 b 928 885 931 920 932 907 b 911 817 923 864 918 842 b 874 656 900 768 888 714 b 839 475 861 597 850 536 b 827 391 835 447 831 419 b 823 364 825 382 824 374 b 812 271 818 333 814 302 b 806 178 808 242 806 211 b 814 87 805 145 808 115 b 850 20 820 58 832 36 b 928 1 868 3 895 -3 b 909 114 916 29 909 66 l 909 115 l 909 117 b 977 511 913 252 937 382 b 1111 789 1016 625 1061 718 b 1194 890 1131 821 1158 854 b 1227 915 1203 899 1215 907 b 1257 922 1239 922 1249 925 b 1261 885 1265 920 1266 907 b 1246 819 1257 865 1252 843 b 1202 627 1232 762 1217 698 b 1163 412 1186 556 1173 484 b 1151 212 1153 340 1149 273 b 1184 63 1152 151 1164 101 b 1284 3 1205 25 1238 5 b 1410 81 1333 3 1375 28 b 1421 100 1414 87 1418 94 b 1453 184 1434 126 1444 154 b 1468 275 1461 216 1466 245 l 1447 277 b 1432 190 1445 248 1440 220 b 1402 110 1425 161 1415 134 b 1392 92 1398 103 1395 97 b 1341 42 1377 68 1360 52 b 1289 42 1323 33 1305 33 b 1249 154 1265 59 1251 96 b 1264 357 1247 212 1252 279 b 1309 593 1276 435 1291 514 b 1357 800 1326 671 1343 741 b 1358 920 1369 854 1369 894 b 1299 962 1345 947 1326 961 b 1179 905 1265 966 1225 947 b 1093 802 1142 868 1114 833 b 962 532 1044 732 1001 642 b 1022 791 983 630 1003 717 b 1024 800 1023 794 1023 797 b 1024 920 1036 854 1036 894 b 966 962 1012 947 992 961 b 846 905 932 966 892 947 b 760 802 809 868 780 833 b 636 553 714 736 673 653 b 650 608 639 565 644 584 b 684 755 661 652 672 701 b 700 882 695 809 701 851 b 660 979 697 925 684 958 b 568 1012 636 1000 606 1011 b 444 985 530 1013 489 1004 b 405 1010 432 996 419 1004 b 298 1019 374 1023 338 1026 b 140 941 246 1010 193 984 b 9 769 88 899 44 842 l 28 760 b 153 924 61 829 103 884 b 302 998 203 965 252 989 b 397 991 338 1004 370 1002 b 422 976 406 987 414 982 l 410 970 b 223 829 345 936 282 889 b 75 633 165 768 115 703 b 3 435 35 563 11 497 b 17 328 -1 393 3 358 b 83 273 31 299 53 280 b 193 298 113 265 150 273 z m 41 435 b 131 606 59 486 89 544 b 274 787 174 669 221 730 b 428 930 328 845 378 892 b 450 945 435 935 442 941 b 458 929 453 940 456 935 b 468 782 475 894 479 845 b 381 549 457 719 429 642 b 291 414 359 506 328 461 b 170 309 254 367 213 332 b 84 296 136 293 107 289 b 37 345 61 304 45 320 b 41 435 29 370 31 399 z "},"N":{"ha":1111,"x_min":0,"x_max":0,"o":"m 1101 190 b 1071 110 1093 161 1083 134 b 1061 92 1067 103 1064 97 b 1010 42 1046 68 1029 52 b 958 42 991 33 974 33 b 918 154 933 59 920 96 b 933 357 916 212 921 279 b 977 593 945 435 960 514 b 1026 800 995 671 1011 741 b 1026 920 1038 854 1038 894 b 968 962 1014 947 995 961 b 848 905 934 966 894 947 b 762 802 811 868 783 833 b 638 553 716 736 675 653 b 651 612 642 571 646 591 b 688 795 665 673 678 734 b 677 954 699 867 696 920 b 589 1013 660 989 630 1008 b 442 985 549 1017 500 1007 b 404 1010 431 996 418 1004 b 297 1019 372 1023 336 1026 b 139 941 244 1010 191 984 b 7 769 86 899 42 842 l 26 760 b 151 924 60 829 102 884 b 300 998 201 965 251 989 b 395 991 336 1004 368 1002 b 421 976 404 987 413 982 l 409 970 b 228 833 346 937 285 892 b 81 644 170 775 121 712 b 5 450 41 576 16 512 b 14 334 -3 405 1 366 b 79 274 27 302 49 282 b 192 298 110 265 147 273 b 310 406 235 324 274 360 b 397 540 347 452 376 497 b 488 782 447 635 477 716 b 476 938 498 848 494 900 b 467 955 473 944 471 949 b 538 982 491 968 514 977 b 593 972 562 987 580 984 b 600 896 606 960 608 935 b 576 790 592 860 584 825 b 516 514 554 699 534 606 l 516 515 b 492 364 507 465 498 415 b 481 271 488 333 484 302 b 475 178 477 242 476 211 b 483 87 474 145 477 115 b 519 20 490 58 501 36 b 598 1 537 3 564 -3 b 578 124 585 31 578 72 l 578 125 b 626 442 584 241 600 347 b 695 638 646 515 669 580 b 779 789 722 696 750 747 b 862 890 800 821 827 854 b 895 915 872 899 883 907 b 926 922 908 922 918 925 b 930 885 933 920 935 907 b 914 819 926 865 920 843 b 870 627 901 762 886 697 b 831 412 854 555 842 484 b 819 212 821 339 817 273 b 853 63 821 150 832 100 b 953 3 873 25 907 5 b 1078 81 1002 3 1044 28 b 1090 100 1083 87 1086 94 b 1122 184 1103 126 1114 154 b 1137 275 1130 216 1135 245 l 1116 277 b 1101 190 1114 248 1109 220 z m 379 549 b 290 414 357 506 327 461 b 168 309 252 367 212 332 b 71 301 127 290 95 288 b 31 374 46 315 33 340 b 99 554 34 424 56 484 b 253 762 141 625 193 694 b 429 930 313 831 372 887 b 449 944 435 935 441 939 b 457 929 452 939 454 935 b 466 782 473 894 477 845 b 379 549 456 719 427 642 z "},"O":{"ha":844,"x_min":0,"x_max":0,"o":"m 722 951 b 684 962 711 958 698 962 b 638 958 670 963 655 962 l 632 956 b 558 1002 610 977 586 993 b 414 1009 514 1019 466 1021 b 276 943 368 998 321 977 b 148 812 230 911 187 867 b 42 589 104 751 69 677 b -2 320 17 511 3 420 l 19 319 b 62 583 24 418 38 506 b 165 800 88 669 123 741 b 288 926 203 852 243 895 b 419 988 331 958 375 978 b 551 983 467 999 511 998 b 591 962 565 978 578 971 l 580 962 b 382 890 505 960 439 935 b 245 716 326 844 280 787 b 173 491 210 646 186 570 b 172 263 161 411 160 336 b 261 70 186 182 216 117 b 418 -1 306 22 358 -1 b 543 41 465 1 506 15 b 638 138 579 66 610 98 b 707 264 665 178 688 220 b 753 387 726 307 741 349 b 805 749 791 516 809 637 b 781 876 803 798 795 840 b 722 951 768 911 748 937 z m 627 932 b 649 901 635 922 642 912 b 689 781 669 869 682 829 b 683 611 696 732 694 676 b 655 497 677 575 668 537 b 606 385 643 457 627 419 b 535 301 587 349 563 321 b 473 281 513 285 492 279 b 425 318 454 285 438 297 b 399 437 409 345 401 385 b 429 634 399 490 408 555 b 522 841 450 713 481 782 b 627 932 552 884 587 915 z m 733 393 b 685 267 720 349 703 307 b 629 166 671 235 652 201 b 548 76 606 131 579 101 b 443 37 516 51 481 38 b 340 104 396 39 362 62 b 304 269 318 147 306 202 b 335 524 303 349 313 434 b 427 766 357 614 387 694 b 559 914 465 838 509 887 b 505 853 539 897 521 877 b 409 640 463 792 431 721 b 379 434 387 558 377 490 b 408 307 380 378 390 336 b 469 261 424 281 444 265 b 547 283 494 257 520 264 b 623 371 576 305 602 334 b 675 488 644 408 661 447 b 704 608 688 530 698 570 b 709 785 715 675 717 734 b 667 912 703 836 688 878 b 648 938 661 922 655 930 b 682 941 661 941 672 942 b 711 933 694 941 703 938 b 764 865 734 920 751 898 b 785 747 775 833 782 793 b 733 393 788 638 771 520 z "},"P":{"ha":1086,"x_min":0,"x_max":0,"o":"m 956 962 b 847 926 915 961 879 949 b 763 846 815 903 787 876 b 677 716 730 805 701 762 b 682 740 678 724 680 732 b 704 863 694 782 701 823 b 659 982 704 918 689 958 b 542 1010 629 1006 590 1016 b 446 985 509 1007 476 998 b 407 1010 434 996 421 1004 b 300 1019 375 1023 340 1026 b 142 941 248 1010 195 984 b 10 769 90 899 45 842 l 29 760 b 155 924 63 829 104 884 b 304 998 204 965 254 989 b 399 991 339 1004 371 1002 b 424 976 408 987 416 982 l 412 970 b 231 833 349 937 288 892 b 84 644 173 775 124 712 b 7 450 44 576 19 512 b 17 334 1 404 3 365 b 84 274 31 302 54 282 b 195 298 115 266 152 273 b 313 406 238 324 277 360 b 401 540 350 452 379 497 b 491 782 450 635 480 716 b 479 938 501 848 498 900 b 471 956 477 944 473 950 b 541 982 494 968 517 977 b 595 972 564 987 582 984 b 602 896 608 960 610 935 b 580 799 595 863 587 831 b 522 537 559 712 540 625 b 482 271 505 450 491 361 b 477 178 479 242 477 211 b 485 87 475 145 478 115 b 521 20 491 58 503 36 b 600 1 539 3 565 -3 b 580 109 587 28 581 64 b 589 260 579 154 582 204 l 593 298 b 753 318 648 292 701 298 b 899 406 806 338 854 368 b 1014 541 943 445 982 490 b 1065 643 1032 569 1049 603 b 1097 765 1082 683 1092 724 b 1067 906 1103 822 1093 869 b 956 962 1042 943 1004 962 z m 382 549 b 292 414 360 506 330 461 b 171 309 255 367 215 332 b 80 298 132 291 102 288 b 39 359 58 310 44 330 b 52 456 35 388 39 420 b 211 711 84 536 138 621 b 431 930 285 802 358 875 b 452 945 437 935 444 940 b 460 929 455 940 458 935 b 469 782 477 894 480 845 b 382 549 459 719 430 642 z m 992 777 b 969 670 988 741 981 705 b 931 576 958 634 945 603 b 844 444 907 528 878 484 b 729 349 809 404 771 372 b 596 319 687 326 643 316 b 656 629 612 424 633 527 b 709 732 671 662 688 696 b 779 833 730 767 753 801 b 848 899 800 859 823 881 b 920 932 873 918 897 929 b 972 906 944 933 962 924 b 992 842 983 888 990 866 b 992 777 994 817 994 795 z "},"Q":{"ha":665,"x_min":0,"x_max":0,"o":"m 406 -36 b 342 23 382 -12 361 8 b 431 94 376 40 406 64 b 456 87 440 90 448 88 b 551 100 488 81 520 85 b 628 162 578 113 604 134 b 687 272 651 191 671 227 l 667 279 b 612 176 652 237 634 203 b 543 119 591 150 568 131 b 460 108 515 106 488 103 l 446 111 b 530 248 479 153 507 199 b 582 387 552 297 570 344 b 635 749 621 516 638 637 b 610 876 632 798 625 840 b 551 951 597 911 577 937 b 513 962 540 958 527 962 b 467 958 499 963 484 962 l 460 956 b 409 962 446 960 429 963 b 212 890 334 960 268 935 b 75 716 155 844 110 787 b 3 491 39 646 15 570 b 1 263 -10 411 -11 336 b 90 70 16 182 45 117 b 248 -1 135 22 187 -1 b 304 8 268 0 286 3 b 330 -24 312 -1 320 -12 b 404 -116 351 -53 375 -83 b 500 -198 433 -149 465 -176 b 615 -228 536 -220 574 -231 b 743 -160 656 -225 698 -202 l 739 -155 b 618 -187 698 -185 658 -196 b 506 -130 579 -178 542 -159 b 406 -36 470 -100 437 -68 z m 473 937 b 511 941 487 941 500 942 b 541 933 523 941 532 938 b 593 865 564 920 581 898 b 614 747 604 833 612 793 b 562 393 617 638 600 520 b 515 267 549 349 532 307 b 476 193 504 243 491 219 b 423 120 460 168 443 143 b 385 148 410 127 397 136 b 321 260 357 174 336 212 b 376 283 339 262 357 271 b 450 370 404 304 429 333 b 504 490 472 408 490 447 b 532 607 517 532 527 571 b 518 745 539 668 535 714 b 448 780 501 776 477 787 b 355 686 418 772 387 741 b 292 479 325 628 304 559 b 286 369 287 442 285 406 b 294 283 286 338 289 310 b 255 318 279 288 266 300 b 229 437 239 345 230 385 b 258 634 228 490 237 555 b 351 841 279 713 310 782 b 473 937 386 891 427 923 z m 316 281 b 307 370 311 308 307 337 b 313 477 306 405 308 441 b 374 675 324 554 345 620 b 452 760 403 726 429 754 b 504 726 475 766 492 754 b 511 610 515 699 517 660 b 484 496 507 574 497 536 b 434 383 471 456 454 418 b 364 301 414 348 390 320 b 316 281 347 289 332 283 z m 271 37 b 169 105 225 40 191 62 b 134 269 147 148 136 202 b 165 524 132 349 142 434 b 256 766 186 614 216 694 b 389 914 294 838 338 887 b 334 853 368 897 351 877 b 238 640 292 792 260 721 b 208 434 216 558 207 490 b 237 307 210 378 219 336 b 298 261 253 281 273 265 l 300 261 b 370 132 315 205 338 162 b 408 104 382 121 395 111 b 311 43 380 74 347 54 b 296 47 307 44 302 46 b 280 47 290 48 285 48 b 271 37 275 46 273 43 z "},"R":{"ha":1067,"x_min":0,"x_max":0,"o":"m 954 962 b 845 926 913 961 877 949 b 761 846 813 903 785 876 b 675 716 728 805 699 762 b 681 741 676 724 678 732 b 699 831 689 772 695 802 b 664 975 707 899 694 947 b 538 1010 634 1004 592 1016 b 444 985 506 1006 475 998 b 406 1010 433 996 420 1004 b 299 1019 374 1023 338 1026 b 141 941 246 1010 194 984 b 9 769 88 899 44 842 l 28 760 b 153 924 62 829 104 884 b 302 998 203 965 253 989 b 397 991 338 1004 370 1002 b 423 976 407 987 415 982 l 411 970 b 230 833 348 937 288 892 b 83 644 172 775 123 712 b 7 450 43 576 18 512 b 16 334 0 405 3 366 b 82 274 29 302 52 282 b 194 298 113 265 150 273 b 312 406 237 324 276 360 b 400 540 349 452 378 497 b 490 782 449 635 479 716 b 478 938 500 848 496 900 b 469 956 475 945 472 950 b 538 982 492 968 515 977 b 593 972 562 987 580 983 b 600 896 606 960 608 935 b 576 795 592 862 585 828 b 529 581 560 724 544 652 b 491 364 514 509 501 437 b 480 271 487 333 483 302 b 474 178 477 242 475 211 b 483 87 473 145 476 115 b 519 20 489 58 500 36 b 597 1 536 3 563 -3 b 578 109 585 28 578 64 b 587 260 576 154 580 204 l 591 298 b 738 313 641 292 690 297 b 758 219 747 289 753 258 b 778 119 763 186 769 153 b 820 36 786 86 800 58 b 905 -1 840 13 867 1 b 973 20 928 -1 951 6 b 1031 81 996 35 1015 55 b 1042 100 1035 87 1039 94 b 1074 184 1055 126 1065 154 b 1089 275 1082 216 1087 245 l 1068 277 b 1053 190 1067 248 1061 220 b 1023 110 1046 161 1036 134 b 1013 92 1019 103 1017 97 b 945 36 993 60 970 41 b 891 66 922 32 903 42 b 859 157 879 90 869 120 b 829 251 851 189 841 220 b 778 329 817 281 800 308 b 908 416 825 351 868 380 b 1012 541 948 453 983 494 b 1063 643 1030 569 1047 603 b 1095 765 1079 683 1090 724 b 1065 906 1101 822 1090 869 b 954 962 1039 943 1002 962 z m 381 549 b 292 414 359 506 329 461 b 170 309 254 367 214 332 b 85 296 136 293 108 289 b 38 345 62 304 46 320 b 42 435 30 370 31 399 b 132 606 59 486 89 544 b 275 787 174 669 222 730 b 429 930 328 845 379 892 b 450 945 435 935 443 941 b 459 929 454 940 456 935 b 469 782 476 894 479 845 b 381 549 458 719 429 642 z m 609 319 b 649 340 621 329 635 336 b 709 341 668 345 688 345 l 711 340 b 609 319 678 326 644 318 z m 990 777 b 966 670 986 741 978 705 b 928 576 956 634 943 603 b 846 448 906 530 878 487 b 738 355 813 410 777 378 b 713 362 730 358 722 360 b 644 360 689 367 666 366 b 597 336 627 355 611 347 b 654 629 613 435 632 533 b 707 732 669 662 686 696 b 777 833 728 767 751 801 b 846 899 798 859 821 881 b 917 932 871 918 895 929 b 970 906 942 933 960 924 b 989 842 981 888 987 866 b 990 777 991 817 992 795 z "},"S":{"ha":668,"x_min":0,"x_max":0,"o":"m 479 618 b 453 703 469 644 460 671 b 549 870 503 780 534 836 b 560 905 553 880 557 891 b 563 943 564 918 565 930 b 545 972 562 956 555 965 b 481 957 526 983 505 977 b 416 837 448 924 427 884 b 405 698 406 789 401 743 l 407 669 b 254 452 362 600 311 528 b 76 237 196 375 137 304 b 28 189 60 220 44 204 b 47 327 19 237 26 283 b 133 428 68 370 97 404 b 240 452 169 452 205 460 b 237 515 252 484 250 505 b 176 520 222 526 202 528 b 60 441 128 505 90 479 b 3 313 31 404 12 361 b 10 171 -7 264 -4 217 b -86 96 -22 140 -54 116 b -174 54 -118 77 -148 63 b -246 37 -204 43 -229 37 b -247 8 -251 24 -251 14 b -227 -1 -243 2 -236 -1 b -165 16 -208 -1 -187 5 b -96 56 -142 26 -119 40 b -32 105 -73 72 -52 89 b 18 150 -12 122 5 137 b 35 117 23 138 28 127 b 145 26 62 75 98 45 b 295 -1 191 7 241 -2 b 480 52 373 1 435 18 b 571 182 526 85 556 128 b 574 359 586 236 587 295 b 541 471 566 397 555 435 b 497 578 527 509 512 544 b 479 618 491 591 486 605 z m 496 941 b 515 955 502 948 509 952 b 533 955 522 958 528 958 b 543 934 540 951 543 943 b 538 903 543 924 541 913 b 530 878 535 892 532 884 b 448 732 516 848 489 800 b 448 846 441 771 441 810 b 496 941 454 884 470 916 z m 212 38 b 53 128 136 47 83 77 b 35 165 45 140 39 153 b 91 223 54 184 73 203 b 262 427 149 286 206 355 b 411 637 317 500 367 570 b 441 500 418 591 429 545 b 471 357 453 453 463 405 b 459 197 479 302 475 248 b 374 74 444 146 415 104 b 212 38 333 43 279 31 z "},"T":{"ha":292,"x_min":0,"x_max":0,"o":"m 220 850 b 398 806 281 828 340 813 b 557 827 456 798 509 806 b 670 958 604 849 642 892 l 655 964 b 576 882 636 924 610 897 b 460 863 543 866 504 860 b 321 885 417 865 370 872 b 173 928 273 898 223 912 b 163 931 170 929 166 930 b 155 934 160 932 157 933 b 59 962 122 944 90 954 b 62 983 60 968 61 975 b 61 1003 62 992 62 998 l 51 1005 b 39 968 47 991 43 979 b -67 989 5 977 -31 984 b -174 989 -104 994 -139 994 b -234 967 -199 985 -219 977 b -264 932 -249 957 -259 945 b -243 859 -274 902 -267 878 b -184 834 -229 847 -209 839 b -109 834 -161 830 -136 830 b -31 862 -82 839 -56 848 b 36 920 -5 876 17 895 l 113 890 l 111 882 b 96 815 106 862 101 840 b 51 623 81 758 66 694 b 13 408 35 552 23 480 b 0 208 3 336 -1 269 b 34 59 2 146 14 97 b 134 -1 54 22 88 1 b 260 77 183 -1 225 25 b 271 97 264 84 267 90 b 302 181 283 123 294 151 b 318 271 311 212 316 242 l 297 273 b 282 186 295 245 290 216 b 252 106 275 158 264 131 b 241 88 248 100 245 94 b 191 39 227 64 210 48 b 139 39 172 29 155 29 b 99 150 115 56 101 92 b 113 352 97 207 102 274 b 157 586 125 429 140 507 b 206 793 175 664 191 733 b 218 842 210 810 214 827 l 220 850 z m -112 855 b -181 855 -137 851 -160 851 b -231 876 -201 859 -218 866 b -244 925 -246 888 -251 905 b -212 956 -237 939 -227 949 b -168 968 -197 962 -182 966 b -136 969 -158 970 -147 970 b 15 928 -94 965 -43 951 b -43 878 -1 907 -21 890 b -112 855 -66 867 -89 859 z "},"U":{"ha":1131,"x_min":0,"x_max":0,"o":"m 1118 186 b 1087 106 1109 158 1099 131 b 1077 88 1084 100 1080 94 b 1027 39 1062 64 1045 48 b 975 39 1008 29 991 29 b 934 151 949 56 937 93 b 949 355 932 208 937 276 b 994 590 961 433 976 511 b 1042 797 1011 669 1027 738 b 1067 900 1053 842 1061 877 b 1050 937 1069 916 1063 928 b 1002 957 1036 947 1021 954 b 963 962 985 961 971 962 b 898 649 947 863 925 758 b 850 439 880 578 865 508 b 806 256 840 383 825 322 b 782 182 801 236 793 212 b 743 98 772 153 758 125 b 691 41 728 74 711 55 b 640 26 674 30 657 24 b 600 60 622 30 608 41 b 583 128 591 79 585 102 b 583 204 581 155 581 180 b 587 262 584 229 585 248 b 587 264 587 263 587 264 b 624 500 595 343 608 422 b 677 732 640 578 658 656 b 690 789 682 751 686 770 b 671 966 708 871 702 930 b 539 1011 642 1002 597 1017 b 442 985 506 1007 473 998 b 403 1010 431 996 418 1004 b 297 1019 372 1023 336 1026 b 138 941 244 1010 191 984 b 7 769 86 899 42 842 l 26 760 b 151 924 60 829 101 884 b 300 998 201 965 251 989 b 395 991 336 1004 368 1002 b 420 976 404 987 413 982 l 409 970 b 227 833 345 937 285 892 b 81 644 170 775 121 712 b 4 450 41 576 15 512 b 14 332 -3 404 0 364 b 81 274 28 301 50 281 b 192 298 112 266 149 274 b 310 406 234 324 273 360 b 397 540 346 452 375 497 b 487 782 447 635 477 716 b 476 938 498 848 494 900 b 467 956 473 944 470 950 b 545 983 493 970 519 979 b 593 969 566 987 582 982 b 598 896 604 956 606 932 b 574 795 591 863 583 829 b 516 529 553 707 533 618 b 488 265 498 439 489 351 b 497 153 487 231 490 194 b 539 48 504 113 517 78 b 634 0 560 18 592 3 b 707 22 661 -1 685 6 b 762 89 728 39 747 62 b 802 174 778 117 791 144 b 827 250 812 203 821 229 l 836 284 b 842 140 833 231 836 182 b 883 39 849 98 863 64 b 969 -1 903 14 932 1 b 1095 77 1019 -1 1060 25 b 1106 97 1099 84 1103 90 b 1138 181 1119 123 1130 151 b 1154 271 1146 212 1152 242 l 1133 273 b 1118 186 1131 245 1126 216 z m 379 549 b 289 414 357 506 327 461 b 168 309 252 367 211 332 b 75 299 127 290 97 287 b 37 362 54 311 41 332 b 50 462 34 393 38 426 b 155 644 72 520 107 581 b 302 817 202 707 251 765 b 427 930 353 868 395 906 b 448 945 433 935 441 940 b 456 929 452 940 454 935 b 466 782 473 894 477 845 b 379 549 456 719 427 642 z "},"V":{"ha":970,"x_min":0,"x_max":0,"o":"m 1166 926 l 1183 941 b 1120 951 1166 952 1146 956 b 1036 922 1095 946 1066 937 b 945 877 1005 909 975 893 l 943 876 b 935 907 941 887 939 897 b 883 960 926 935 908 953 b 866 962 878 962 872 962 b 806 937 845 961 825 952 b 761 882 787 920 772 902 b 748 838 753 866 748 852 b 766 802 747 823 753 810 b 852 809 781 792 810 794 b 926 844 874 817 899 829 b 928 812 927 833 928 823 b 911 642 928 772 922 715 b 862 406 899 568 883 489 b 789 181 841 323 817 248 b 701 43 762 114 732 68 b 631 26 673 22 649 17 b 587 94 608 37 593 60 b 578 212 579 128 576 168 b 591 339 581 256 585 298 b 607 436 597 380 603 412 b 608 440 608 437 608 439 b 673 736 629 549 650 648 b 678 758 675 744 676 751 b 691 815 683 777 688 795 b 696 876 695 834 696 854 b 658 977 694 920 682 954 b 566 1012 634 999 604 1010 b 439 985 528 1013 486 1004 b 401 1010 428 996 415 1004 b 294 1019 370 1023 334 1026 b 136 941 242 1010 189 984 b 5 769 84 899 40 842 l 24 760 b 149 924 58 829 99 884 b 298 998 199 965 248 989 b 393 991 334 1004 366 1002 b 418 977 402 987 410 982 l 406 970 b 219 828 340 936 278 889 b 71 633 160 768 111 703 b -1 435 31 563 7 496 b 8 333 -6 393 -3 359 b 58 281 18 307 35 290 b 132 276 79 272 104 271 b 218 316 160 281 189 295 b 319 421 254 345 288 380 b 395 540 351 463 376 502 b 485 782 445 635 475 716 b 474 938 496 848 492 900 b 465 956 471 945 468 950 l 476 962 l 477 962 l 478 963 l 479 964 l 480 964 l 481 964 l 482 965 l 484 966 l 484 966 l 485 966 l 486 967 l 488 968 l 488 968 l 489 968 l 490 969 l 492 970 l 492 970 l 494 970 l 495 970 l 496 971 l 498 972 l 499 972 l 500 973 l 505 975 l 506 975 l 507 975 l 509 976 b 560 984 528 983 545 985 b 593 962 575 983 587 975 b 594 896 600 948 601 926 b 579 835 591 880 586 860 b 538 659 567 787 553 728 b 499 440 523 589 509 516 b 486 227 488 364 484 293 b 522 64 488 160 500 106 b 633 -1 545 22 582 1 b 713 26 661 -1 688 7 b 807 169 747 53 779 100 b 882 397 836 237 861 313 b 932 637 903 481 920 562 b 949 812 943 712 949 770 b 947 854 949 827 948 841 l 954 858 b 1037 900 982 873 1010 887 b 1112 928 1065 913 1090 923 b 1166 926 1135 935 1153 934 z m 845 829 b 777 821 810 816 787 813 b 769 838 771 824 768 830 b 779 872 769 848 772 859 b 817 919 789 890 801 905 b 866 941 833 932 849 940 l 867 941 b 879 939 870 941 874 941 l 879 940 b 916 899 896 935 908 921 b 924 866 919 890 922 878 b 845 829 894 850 868 838 z m 377 549 b 301 432 357 513 332 473 b 199 329 270 391 236 356 b 102 294 164 304 132 294 b 37 332 72 296 51 308 b 37 435 24 355 24 390 b 127 606 55 486 85 544 b 270 787 170 669 217 730 b 424 930 323 845 374 892 b 446 945 431 935 439 941 b 454 929 449 940 452 935 b 464 782 471 894 475 845 b 377 549 454 719 425 642 z "},"W":{"ha":1318,"x_min":0,"x_max":0,"o":"m 1296 877 l 1295 876 b 1286 907 1293 887 1290 897 b 1235 960 1277 935 1260 953 b 1218 962 1230 962 1224 962 l 1217 962 b 1157 937 1196 961 1177 952 b 1112 882 1138 920 1123 902 b 1099 838 1104 866 1100 852 b 1118 802 1099 823 1105 810 b 1204 809 1133 792 1162 794 b 1278 844 1226 817 1251 829 b 1279 812 1279 833 1279 823 b 1262 642 1280 772 1274 715 b 1214 406 1251 568 1234 489 b 1141 181 1193 323 1168 248 b 1053 43 1114 114 1084 68 b 973 31 1019 19 993 16 b 935 109 954 46 941 72 b 930 195 930 137 928 166 b 934 264 930 223 932 246 b 984 564 944 359 961 459 b 1046 822 1008 668 1028 754 b 1065 900 1055 859 1061 885 b 1048 937 1067 916 1061 928 b 1001 957 1034 947 1019 953 b 961 962 983 961 970 962 b 947 896 959 946 954 924 b 932 829 944 880 939 858 b 886 639 918 778 903 714 b 846 404 869 563 856 484 l 840 380 b 809 256 831 340 821 299 b 787 191 804 239 797 218 b 751 112 778 165 766 138 b 703 47 738 85 722 64 b 640 27 681 29 660 22 b 593 83 616 34 601 53 b 584 178 586 112 583 144 b 589 261 585 212 587 240 b 589 264 589 262 589 263 b 627 498 597 338 610 416 b 677 724 643 580 660 655 b 683 748 679 732 681 740 b 699 826 690 774 695 800 b 659 981 707 901 694 952 b 513 1006 623 1010 574 1019 l 513 1006 l 511 1006 l 511 1006 l 509 1006 l 509 1006 l 507 1005 l 507 1005 l 505 1005 l 505 1004 l 503 1004 l 503 1004 l 502 1004 l 501 1004 l 500 1004 l 499 1003 l 498 1003 l 497 1003 l 496 1002 l 495 1002 l 494 1002 l 494 1002 l 493 1002 l 492 1002 l 491 1001 l 490 1001 l 488 1000 l 488 1000 l 486 1000 l 486 1000 l 484 1000 l 483 999 l 482 999 l 481 998 l 480 998 l 479 998 l 478 998 l 477 997 l 475 997 l 475 996 l 473 996 l 473 996 l 471 995 l 470 995 l 469 994 l 468 994 l 467 994 l 466 994 l 465 993 l 465 993 l 464 993 l 463 992 l 462 991 l 460 991 l 459 991 l 458 991 l 458 990 l 457 990 l 456 989 l 455 989 l 454 989 l 453 988 l 452 988 l 450 987 l 450 987 l 448 987 l 447 986 l 446 986 l 445 985 b 406 1010 433 996 420 1004 b 300 1019 374 1023 339 1026 b 141 941 247 1010 194 983 l 125 926 b 9 769 79 886 41 833 l 28 760 b 154 924 62 829 104 884 b 303 998 203 965 254 989 b 398 991 339 1004 370 1002 b 424 976 408 987 416 982 l 420 974 l 412 970 b 378 951 401 964 389 958 l 376 951 b 137 724 286 895 207 819 b 7 450 67 630 24 539 b 15 338 0 408 3 370 b 79 274 28 304 49 283 b 195 298 110 264 148 272 b 313 406 237 324 277 360 b 400 540 349 452 378 497 b 490 782 450 635 479 716 b 479 938 500 848 497 900 b 469 956 476 944 473 950 b 539 983 493 968 516 977 b 593 972 563 987 581 984 b 601 896 606 960 609 934 b 576 792 593 861 585 827 b 557 713 570 766 564 739 b 537 621 551 684 544 653 b 505 441 524 563 513 503 b 490 265 496 380 491 321 b 498 157 490 232 492 196 b 538 53 505 118 518 83 b 627 0 557 23 587 5 b 709 22 656 -3 684 4 b 765 89 731 39 749 62 b 804 174 781 117 793 144 b 829 250 814 203 823 229 l 836 276 b 844 149 835 229 838 187 b 868 74 850 121 857 96 b 955 3 888 36 918 12 b 1065 26 993 -7 1029 1 b 1159 169 1099 53 1130 100 b 1234 397 1187 237 1213 313 b 1283 637 1255 481 1272 562 b 1300 812 1295 712 1301 770 b 1298 854 1300 827 1299 841 l 1305 858 b 1394 903 1335 874 1364 888 b 1472 930 1423 916 1449 926 b 1524 922 1495 935 1512 932 l 1539 937 b 1477 951 1524 951 1503 956 b 1391 924 1451 948 1422 939 b 1296 877 1359 909 1328 894 z m 1197 829 b 1128 821 1161 816 1138 813 b 1120 838 1123 824 1120 830 b 1131 872 1121 848 1124 859 b 1168 919 1140 890 1153 905 b 1218 941 1185 932 1201 940 b 1230 939 1222 941 1226 941 l 1230 940 b 1267 899 1247 935 1259 921 b 1275 866 1271 890 1274 878 b 1197 829 1246 850 1219 838 z m 382 549 b 300 423 361 509 334 467 b 188 318 265 379 229 344 b 91 294 149 295 117 287 b 39 345 65 300 47 318 b 47 447 31 373 33 407 b 168 656 71 511 111 581 b 348 861 224 732 283 800 l 351 864 b 429 930 378 889 404 911 b 452 945 436 935 444 940 b 460 929 454 940 457 935 b 469 782 477 894 479 845 b 382 549 458 719 429 642 z "},"X":{"ha":829,"x_min":0,"x_max":0,"o":"m 766 962 b 671 824 750 937 719 890 b 523 610 627 762 577 690 b 473 735 507 654 490 696 b 380 903 444 804 413 861 b 268 965 347 947 309 968 b 241 958 258 964 248 962 b 220 945 233 955 225 950 b 180 954 206 949 193 952 b 102 947 154 957 128 955 b 27 905 77 940 52 926 b 5 885 20 899 12 892 l 21 871 b 40 889 27 878 34 884 l 41 889 b 109 927 62 907 85 920 b 177 932 132 933 155 935 b 206 926 186 931 197 929 l 203 920 b 197 863 197 903 195 884 b 214 797 199 841 205 819 b 256 734 227 769 241 749 b 304 709 273 720 289 711 b 348 716 321 707 335 709 b 373 751 360 724 368 735 b 370 802 377 765 376 783 b 331 869 364 823 351 845 b 311 889 325 876 319 882 b 242 936 292 909 268 924 l 249 939 b 270 944 255 942 262 943 b 364 889 302 946 334 928 b 454 727 396 848 426 795 b 509 589 473 684 491 638 b 389 395 466 524 426 459 b 304 214 353 330 325 269 b 283 73 284 157 277 111 b 355 -1 289 35 313 10 b 380 120 353 32 361 72 b 454 277 398 168 422 220 b 558 450 486 334 520 391 b 640 232 585 373 612 300 b 728 66 668 164 697 109 b 829 -1 759 24 793 1 l 829 20 b 738 87 797 22 766 45 b 654 255 709 131 681 186 b 572 473 627 323 600 396 b 746 729 634 567 692 652 b 823 840 776 772 802 809 b 827 914 839 868 840 892 b 766 962 813 937 792 952 z m 297 874 b 315 855 303 868 309 862 b 349 799 332 834 344 816 b 353 756 355 782 356 768 b 337 734 350 747 345 739 b 309 730 329 730 319 728 b 269 751 296 732 282 739 b 233 805 256 763 244 781 b 218 865 225 825 220 845 b 222 911 216 882 217 898 l 227 920 b 297 874 253 909 277 894 z "},"Y":{"ha":1013,"x_min":0,"x_max":0,"o":"m 928 962 b 914 896 925 946 921 924 b 893 806 907 865 900 836 b 831 521 871 711 850 616 b 800 461 822 500 811 479 b 788 444 795 455 791 449 b 696 398 759 410 728 394 b 648 439 671 404 655 417 b 638 512 640 461 636 485 b 645 580 640 538 642 561 b 669 696 652 618 660 658 b 688 779 677 726 683 753 l 686 774 l 690 789 b 692 927 703 847 703 892 b 629 999 680 962 659 986 b 522 1008 598 1013 563 1015 b 484 1000 506 1006 494 1003 b 453 989 473 997 463 994 b 443 985 450 988 446 987 b 404 1010 431 996 418 1004 b 298 1019 372 1023 337 1026 b 140 941 245 1010 192 984 b 7 769 87 899 43 842 l 26 760 b 152 924 60 829 102 884 b 301 998 201 965 252 989 b 396 991 336 1004 368 1002 b 421 976 405 987 414 982 b 170 770 329 928 245 860 b 14 492 94 680 42 587 b 1 396 5 462 1 430 b 24 309 1 362 8 334 b 109 272 41 286 68 273 b 193 298 134 272 162 281 b 311 406 235 324 275 360 b 398 540 347 452 376 497 b 488 782 448 635 477 716 b 477 938 498 848 495 900 b 467 956 474 944 471 950 b 537 982 490 968 514 977 b 591 971 560 987 578 983 b 598 896 604 959 606 934 b 581 825 593 876 587 852 b 537 626 563 762 549 696 b 536 504 531 586 530 545 b 582 401 541 462 557 428 b 696 366 606 374 645 363 b 747 382 714 368 731 373 b 804 431 768 393 787 410 b 817 450 809 438 814 444 l 819 452 b 805 364 814 422 809 394 b 794 271 801 333 798 302 b 793 257 794 267 793 262 b 785 157 790 227 787 193 b 790 53 784 120 785 85 b 822 -26 795 20 806 -6 b 896 -50 838 -45 863 -53 b 884 83 884 -20 880 24 b 901 260 888 143 893 202 b 946 524 911 346 926 433 b 1002 771 965 615 984 697 b 1031 900 1015 824 1024 867 b 1015 937 1034 916 1028 928 b 967 957 1001 947 985 953 b 928 962 949 961 936 962 z m 380 549 b 290 414 357 506 328 461 b 168 309 252 367 212 332 b 83 296 134 293 106 289 b 37 345 60 304 45 320 b 40 435 28 370 30 399 b 142 626 60 492 94 555 b 300 821 191 696 244 762 b 449 945 357 880 407 922 b 458 929 452 940 455 935 b 467 782 474 894 477 845 b 380 549 456 719 427 642 z "},"Z":{"ha":443,"x_min":0,"x_max":0,"o":"m 404 960 b 399 962 402 961 401 962 b 397 962 399 962 398 962 b 397 962 397 962 397 962 b 395 962 396 962 396 962 b 389 960 394 962 392 961 b 239 937 348 947 298 939 b 119 958 189 936 150 943 l 109 939 b 239 916 143 922 186 915 b 384 937 294 918 342 924 l 378 926 l 378 926 b 316 819 363 898 342 862 b 162 546 269 739 217 648 b 78 545 132 546 104 546 l 79 524 b 151 525 101 525 125 525 b 64 342 119 463 90 402 b 12 179 39 283 22 229 b 12 57 1 130 1 89 b 90 -1 24 25 50 5 b 87 24 88 6 87 14 b 89 48 87 33 88 41 b 155 266 96 109 117 181 b 283 524 192 350 235 437 b 284 524 283 524 284 524 b 286 524 285 524 286 524 l 372 524 l 372 545 l 294 545 b 396 726 330 610 364 670 b 465 846 423 772 446 812 b 464 917 477 873 477 897 b 404 960 450 937 430 951 z "},"[":{"ha":404,"x_min":0,"x_max":0,"o":"m 140 -5 b 193 -5 157 -5 175 -5 b 239 -3 210 -4 226 -3 l 239 18 l 125 18 b 113 121 117 45 113 79 b 121 256 113 161 116 207 b 167 519 132 341 147 429 b 222 766 186 610 205 692 b 252 895 235 819 245 863 b 229 937 254 913 247 928 l 366 937 l 366 958 l 151 958 l 150 958 l 149 958 b 135 891 146 942 142 920 b 114 800 128 861 121 830 b 65 582 96 727 80 654 b 26 360 50 509 37 435 b 16 267 22 328 18 298 b 9 170 12 237 10 204 b 20 75 9 136 12 104 b 46 22 26 52 35 34 b 86 0 57 11 71 3 b 140 -5 102 -4 119 -5 z "},"\\":{"ha":489,"x_min":0,"x_max":0,"o":"m 305 443 l 266 528 b 205 656 245 572 224 614 b 110 856 167 734 136 801 b 68 958 84 911 71 945 b 18 934 45 961 28 953 b 24 851 7 914 9 887 b 106 670 41 812 68 752 b 180 511 130 621 154 567 l 220 425 b 279 300 240 382 260 340 b 375 98 317 221 349 154 b 418 -5 401 43 415 8 b 467 20 440 -7 457 1 b 462 102 478 39 476 66 b 374 294 444 143 414 207 b 305 443 353 340 330 390 z "},"]":{"ha":408,"x_min":0,"x_max":0,"o":"m 224 -5 l 225 -5 b 239 62 227 11 232 33 b 273 243 245 90 256 150 b 323 542 290 336 307 435 b 356 803 339 648 351 735 b 356 895 359 841 359 872 b 324 943 353 918 342 934 b 234 958 306 954 276 958 b 180 957 217 958 199 958 b 134 956 163 956 148 956 l 134 935 l 249 935 b 229 701 254 905 248 827 b 169 317 212 575 191 447 b 121 58 146 186 130 100 b 144 16 119 39 127 25 l 8 16 l 8 -5 l 222 -5 l 224 -5 z "},"^":{"ha":211,"x_min":0,"x_max":0,"o":"m 62 822 b 75 854 66 831 71 842 b 87 888 78 865 82 876 b 89 890 87 890 88 891 b 90 887 90 890 90 889 b 98 870 92 884 94 878 b 111 844 102 862 106 853 b 124 821 115 835 120 827 b 132 820 125 819 128 819 b 144 825 136 821 139 822 b 155 832 148 827 151 829 b 158 840 157 835 159 838 b 110 951 149 879 133 916 b 90 958 106 956 99 958 b 68 951 80 958 73 956 b 52 920 63 945 58 935 b 34 874 45 906 39 890 b 24 836 28 858 25 845 b 32 823 23 830 26 826 b 50 818 38 820 44 819 b 62 822 57 818 61 819 z "},"_":{"ha":404,"x_min":0,"x_max":0,"o":"m 93 60 b 46 49 72 60 56 56 b 28 23 36 42 30 33 b 36 -7 27 13 30 3 b 119 -3 51 -4 79 -2 b 238 -5 159 -3 199 -4 b 298 -7 263 -6 283 -7 b 345 3 319 -7 334 -3 b 362 30 355 11 361 19 b 355 60 363 40 361 50 b 272 56 340 56 312 55 b 153 58 231 56 192 56 b 93 60 127 59 108 59 z "},"`":{"ha":197,"x_min":0,"x_max":0,"o":"m 106 824 b 113 820 109 822 111 821 b 119 820 115 819 117 819 b 130 826 122 821 126 823 b 140 836 134 829 137 832 b 135 859 143 839 141 846 b 111 899 128 870 120 884 b 81 938 100 913 90 926 b 60 958 71 949 64 956 b 46 956 56 959 52 958 b 26 936 34 948 27 941 b 26 929 25 934 26 932 b 28 924 27 926 28 924 b 67 869 40 905 53 887 b 106 824 81 850 95 836 z "},"a":{"ha":638,"x_min":0,"x_max":0,"o":"m 218 138 b 343 295 271 176 313 228 b 346 180 340 262 342 224 b 381 62 351 136 362 97 b 425 16 394 41 409 25 b 477 0 442 5 460 0 b 604 78 527 0 569 26 b 614 98 608 85 611 91 b 646 182 627 123 638 151 b 662 272 654 212 660 243 l 641 274 b 626 187 639 245 634 217 b 595 107 618 159 608 132 b 585 89 592 100 589 94 b 537 41 571 66 555 50 b 487 37 519 31 503 30 b 450 90 471 44 458 62 b 442 236 440 130 437 178 b 467 407 448 294 456 351 b 497 543 479 463 489 509 b 503 570 500 553 502 562 b 506 590 505 578 506 585 b 493 620 506 600 502 610 b 459 640 484 629 473 635 b 428 642 449 642 439 643 b 401 635 418 640 409 637 b 385 532 405 625 399 591 b 311 631 373 583 349 616 b 186 627 273 648 232 646 b 81 538 145 608 110 578 b 16 408 52 499 31 456 b -1 269 2 359 -3 313 b 37 163 3 227 16 191 b 115 113 57 136 83 119 b 218 138 147 106 182 115 z m 294 600 b 346 572 315 600 332 590 b 367 490 360 554 367 526 b 355 396 366 459 363 428 b 327 311 347 364 338 336 b 285 243 319 294 305 271 b 216 173 264 215 241 191 b 140 161 183 151 157 146 b 108 231 123 174 112 198 b 113 344 104 264 106 302 b 149 465 120 385 132 426 b 211 562 165 504 186 536 b 294 600 235 587 263 600 z "},"b":{"ha":549,"x_min":0,"x_max":0,"o":"m 121 963 b 87 808 115 927 104 876 b 43 615 73 750 58 686 b 8 404 28 545 16 475 b 5 208 0 333 -1 268 b 54 62 11 149 27 100 b 179 0 81 24 123 4 b 311 37 229 -2 273 11 b 408 146 349 64 382 100 b 467 292 435 191 454 239 b 484 443 480 344 486 394 b 428 589 481 505 462 553 b 311 643 394 625 355 644 b 227 606 279 642 252 629 b 162 526 201 584 180 557 b 122 441 144 496 132 467 b 168 667 136 520 151 595 b 210 842 184 739 199 797 b 224 901 218 871 222 890 b 208 938 227 916 222 929 b 161 958 195 947 179 954 b 121 963 143 962 130 963 z m 136 416 b 171 496 142 436 154 463 b 233 585 188 529 208 558 b 311 625 256 611 283 625 b 363 573 335 623 353 606 b 376 453 374 540 378 500 b 350 283 375 399 366 343 b 284 125 334 223 311 170 b 189 41 256 79 224 52 b 115 81 153 34 128 47 b 98 223 101 115 95 163 b 136 416 104 295 117 359 z "},"c":{"ha":432,"x_min":0,"x_max":0,"o":"m 356 443 b 397 526 377 471 391 499 b 392 593 402 551 401 574 b 351 633 383 613 369 626 b 291 642 332 641 313 644 b 229 629 269 640 249 636 b 112 546 184 612 144 585 b 35 416 80 507 54 464 b 1 275 17 368 5 321 b 12 146 -3 231 1 187 b 74 43 24 104 44 70 b 193 0 103 16 143 1 b 330 59 235 -2 279 18 b 401 146 356 81 380 111 b 454 271 423 182 441 224 l 434 275 b 385 160 421 231 405 193 b 321 78 366 127 344 100 b 199 30 277 39 237 23 b 123 97 162 37 137 59 b 109 235 109 135 104 181 b 143 397 113 289 124 342 b 214 538 161 452 185 498 b 310 613 243 578 275 603 b 363 601 332 618 350 614 b 378 543 376 588 380 569 b 340 455 375 517 362 488 b 340 447 338 452 338 450 b 349 441 342 444 345 443 b 356 443 351 440 354 441 z "},"d":{"ha":680,"x_min":0,"x_max":0,"o":"m 525 39 b 485 151 500 56 487 94 b 500 355 483 209 488 277 b 545 591 512 433 527 512 b 593 798 562 669 578 739 b 617 901 604 843 612 878 b 600 938 620 916 614 929 b 553 958 587 947 571 954 b 514 963 535 962 522 963 b 481 817 509 932 498 884 b 421 547 462 738 441 648 b 397 590 415 563 407 577 b 349 630 383 608 367 621 b 291 642 330 638 311 642 b 184 614 252 642 216 633 b 99 540 151 596 123 571 b 39 435 75 509 54 474 b 4 315 22 397 11 357 b -1 197 -3 275 -5 235 b 22 94 1 159 9 124 b 79 23 36 64 55 40 b 170 0 104 6 134 -1 b 261 45 201 1 232 16 b 342 185 290 75 317 121 b 389 326 359 229 374 275 b 390 163 385 266 385 212 b 429 46 395 115 408 75 b 520 0 450 17 480 1 b 646 78 569 0 611 26 b 656 98 650 85 654 91 b 688 182 670 123 680 151 b 704 272 697 212 702 243 l 683 274 b 668 187 681 245 676 217 b 638 107 661 159 650 132 b 628 89 634 100 631 94 b 577 39 612 65 596 49 b 525 39 559 30 541 30 z m 409 479 b 326 197 384 376 356 282 b 243 59 300 131 273 85 b 165 34 215 33 189 24 b 113 109 141 43 123 68 b 110 272 101 150 100 204 b 149 423 117 323 130 374 b 216 549 167 473 189 515 b 302 610 242 583 271 604 b 380 576 331 616 357 605 b 411 488 399 554 410 524 l 409 479 z "},"e":{"ha":429,"x_min":0,"x_max":0,"o":"m 191 0 b 328 59 233 -2 278 18 b 400 146 354 81 378 111 b 453 271 422 182 439 224 l 433 275 b 384 160 420 231 404 193 b 319 78 363 127 342 100 b 181 35 269 34 222 19 b 114 121 147 49 125 77 b 110 269 103 164 102 213 b 208 297 142 269 175 279 b 296 368 239 315 269 339 b 363 458 323 397 346 427 b 395 547 381 490 392 519 b 378 612 398 576 392 597 b 319 640 363 627 343 637 b 245 635 295 644 271 642 b 123 561 199 623 158 598 b 39 429 88 524 60 480 b 0 275 18 379 5 328 b 11 146 -4 231 -1 187 b 72 43 22 104 43 70 b 191 0 102 16 142 1 z m 259 587 b 314 611 277 600 296 609 b 360 600 333 614 349 610 b 374 549 372 590 377 573 b 345 469 372 525 361 498 b 281 382 328 439 307 410 b 200 317 256 356 229 334 b 113 290 171 300 142 291 b 168 462 124 351 142 408 b 259 587 193 516 224 557 z "},"f":{"ha":376,"x_min":0,"x_max":0,"o":"m 107 225 b 159 511 125 336 143 431 b 178 611 168 555 175 588 b 160 648 180 627 174 640 b 113 665 146 656 130 663 b 73 669 96 669 82 670 b 33 437 65 604 52 526 b -10 198 17 359 3 280 b -26 -35 -22 116 -28 39 b 20 -224 -24 -109 -8 -172 b 94 -288 40 -258 65 -279 b 178 -278 123 -297 152 -294 b 237 -195 205 -262 224 -235 b 246 -77 247 -160 250 -121 b 214 62 243 -31 231 15 b 138 189 195 109 170 151 b 226 180 161 183 191 180 b 327 200 260 181 294 188 b 399 264 359 213 384 234 l 380 273 b 307 216 366 245 341 227 b 200 203 273 205 237 201 b 107 225 163 206 132 213 z m 225 -79 b 217 -189 229 -121 226 -157 b 180 -248 209 -216 197 -235 b 132 -257 165 -260 148 -263 b 92 -203 115 -251 101 -233 b 77 -77 81 -168 76 -125 b 85 67 77 -30 80 18 b 103 195 92 115 97 158 b 189 67 140 159 168 116 b 225 -79 209 18 221 -31 z "},"g":{"ha":625,"x_min":0,"x_max":0,"o":"m 120 -31 b 14 -125 75 -61 40 -93 b -39 -222 -12 -158 -30 -190 b -45 -355 -55 -273 -56 -317 b 20 -441 -33 -393 -11 -422 b 126 -465 50 -461 86 -469 b 248 -411 167 -461 208 -444 b 340 -292 286 -382 316 -342 b 388 -142 359 -251 374 -201 b 424 64 401 -83 413 -14 b 549 130 469 78 511 100 b 648 270 587 161 620 208 l 629 278 b 540 151 604 222 574 180 b 427 87 505 122 468 101 b 497 486 452 245 475 378 b 515 583 506 531 512 564 b 500 629 518 605 513 621 b 453 642 486 638 471 642 b 410 632 435 642 421 638 b 406 601 409 622 408 612 b 401 574 404 591 402 581 b 351 625 388 595 372 612 b 283 643 332 637 309 643 b 159 612 236 643 195 633 b 71 532 124 592 94 565 b 18 423 47 498 29 463 b -1 306 5 384 -1 345 b 18 200 -1 267 5 231 b 71 126 30 168 47 144 b 161 104 96 108 125 101 b 282 176 203 107 243 131 b 324 239 299 196 313 217 b 355 309 336 262 346 285 b 314 53 340 224 326 139 b 218 21 282 44 250 33 b 120 -31 185 8 153 -9 z m 247 -319 b 159 -429 223 -375 194 -412 b 57 -435 123 -447 90 -449 b -18 -362 24 -422 -1 -398 b -20 -231 -34 -326 -35 -282 b 31 -139 -11 -201 5 -170 b 132 -47 55 -108 89 -77 b 221 -1 161 -28 191 -12 b 311 30 252 12 281 22 b 308 -3 311 20 309 9 b 288 -158 304 -49 297 -100 b 247 -319 279 -216 265 -269 z m 331 302 b 254 176 310 248 284 206 b 168 136 224 146 195 134 b 116 190 143 142 126 159 b 107 302 106 221 103 258 b 137 436 111 347 121 391 b 201 551 153 481 174 519 b 294 611 227 584 258 604 b 358 593 319 614 341 609 b 395 537 375 578 387 559 l 382 462 b 331 302 366 404 349 351 z "},"h":{"ha":556,"x_min":0,"x_max":0,"o":"m 291 635 b 276 625 286 632 281 629 b 252 602 268 619 260 611 b 198 514 233 579 215 550 b 151 396 181 478 165 439 b 104 229 132 340 116 284 b 147 500 113 315 127 406 b 205 763 167 596 186 684 b 237 901 218 818 229 864 b 220 938 239 916 233 929 b 172 958 206 947 191 954 b 133 963 155 962 142 963 b 119 897 131 947 126 925 b 99 806 113 866 106 836 b 50 587 81 733 65 661 b 11 365 34 515 21 441 b 0 272 6 334 3 303 b -6 179 -3 243 -5 212 b 2 87 -7 146 -4 115 b 39 20 8 59 20 37 b 117 2 56 4 83 -2 b 115 8 116 4 115 6 b 113 14 113 10 113 12 b 103 109 102 44 100 76 b 120 207 107 143 113 176 b 122 216 121 210 121 213 b 171 389 135 273 151 331 b 216 504 184 431 200 469 b 268 588 233 538 250 566 b 302 562 297 624 309 615 b 290 479 300 538 296 510 b 269 323 282 431 275 378 b 264 169 263 269 261 218 b 298 50 267 121 279 81 b 393 0 317 18 349 2 b 518 78 442 0 484 26 b 530 98 523 85 526 91 b 562 182 543 123 553 151 b 577 272 570 212 575 243 l 556 274 b 541 187 554 245 549 217 b 511 107 533 159 523 132 b 500 89 507 100 504 94 b 450 39 486 65 469 49 b 398 39 431 30 414 30 b 361 127 377 53 365 82 b 365 287 357 171 358 224 b 395 481 372 349 382 414 b 401 567 401 511 403 539 b 384 614 399 587 393 602 b 349 638 374 625 362 633 b 291 635 329 644 309 644 z "},"i":{"ha":261,"x_min":0,"x_max":0,"o":"m 126 416 b 135 456 128 426 131 439 b 150 526 140 478 145 501 b 159 591 155 551 158 572 b 134 636 160 614 152 629 b 66 636 117 643 94 643 b 37 452 62 598 52 537 b 50 422 35 439 39 429 b 87 412 60 416 73 413 b 126 416 102 412 115 413 z m -14 170 b -10 94 -16 145 -15 119 b 20 28 -5 68 5 47 b 89 0 36 11 58 1 b 163 18 114 -1 138 5 b 225 78 187 32 208 52 b 236 98 229 85 233 91 b 268 182 250 123 260 151 b 283 272 277 212 281 243 l 262 274 b 248 187 260 245 256 217 b 218 107 240 159 230 132 b 208 89 214 100 210 94 b 158 39 193 66 176 50 b 110 37 140 29 124 28 b 84 98 96 45 87 65 b 88 172 83 121 84 146 b 99 245 92 199 95 223 b 106 288 102 263 104 277 b 86 339 111 314 104 331 b 12 345 69 347 44 349 b 3 289 10 329 7 310 b -14 170 -5 252 -11 212 z "},"j":{"ha":278,"x_min":0,"x_max":0,"o":"m -97 -411 b -6 -292 -60 -382 -30 -342 b 42 -142 13 -251 29 -201 b 78 64 56 -83 68 -14 b 203 130 123 78 165 100 b 302 270 241 161 275 208 l 283 278 b 194 151 258 222 229 180 b 81 87 160 122 122 101 b 153 490 106 248 130 383 b 170 583 161 534 167 564 b 151 620 172 599 165 611 b 104 637 138 628 122 634 b 64 641 87 640 73 642 b 47 549 59 611 54 581 b -31 53 18 385 -8 220 b -128 21 -63 44 -96 33 b -225 -31 -161 8 -193 -9 b -331 -125 -270 -61 -305 -93 b -385 -222 -357 -158 -375 -190 b -390 -355 -400 -273 -402 -317 b -326 -441 -378 -393 -357 -422 b -219 -465 -295 -461 -260 -469 b -97 -411 -179 -461 -138 -444 z m -366 -231 b -315 -139 -357 -201 -340 -170 b -214 -47 -290 -108 -256 -77 b -124 -1 -184 -28 -154 -12 b -34 30 -94 12 -64 22 b -38 -4 -35 20 -37 8 b -58 -158 -42 -50 -48 -100 b -99 -319 -66 -216 -80 -269 b -186 -429 -122 -375 -151 -412 b -289 -435 -222 -447 -256 -449 b -363 -362 -321 -422 -347 -398 b -366 -231 -379 -326 -380 -282 z m 234 901 b 217 938 236 916 231 929 b 170 958 203 947 188 954 b 130 963 152 962 139 963 b 117 897 128 947 123 925 l 83 743 b 106 694 79 718 86 701 b 183 681 126 686 152 682 b 203 769 190 712 197 741 b 234 901 216 823 227 867 z "},"k":{"ha":454,"x_min":0,"x_max":0,"o":"m 0 272 b -6 179 -3 243 -5 212 b 2 87 -7 146 -4 115 b 39 20 9 59 20 37 b 117 2 56 4 83 -2 b 113 14 115 5 114 9 b 99 157 100 48 96 96 b 122 359 102 218 110 285 b 149 304 134 357 142 338 b 155 267 151 292 153 279 b 177 147 160 227 168 187 b 220 44 186 106 201 73 b 302 0 239 16 267 1 b 420 78 350 1 389 26 b 431 98 425 85 428 91 b 463 182 444 123 455 151 b 479 272 471 212 477 243 l 458 274 b 443 187 456 245 451 217 b 412 107 435 159 425 132 b 402 89 409 100 406 94 b 356 39 387 65 372 48 b 313 37 340 30 326 29 b 276 100 296 48 284 68 b 256 203 268 131 261 165 b 238 297 251 236 245 267 b 210 368 231 326 222 350 b 161 400 196 385 180 395 b 251 468 191 417 220 439 b 383 638 311 525 356 582 l 364 646 b 236 484 338 593 295 539 b 130 407 197 447 162 422 b 211 788 157 551 184 678 b 237 901 222 836 231 873 b 220 938 239 916 233 929 b 173 958 206 947 191 954 b 133 963 155 962 142 963 b 119 897 131 947 126 925 b 98 804 113 865 106 835 b 50 587 81 732 65 659 b 11 365 34 514 21 440 b 0 272 6 334 3 303 z "},"l":{"ha":296,"x_min":0,"x_max":0,"o":"m 127 963 b 96 818 123 932 112 884 b 51 625 81 760 66 696 b 13 410 36 554 23 482 b 0 210 3 338 -2 271 b 34 60 2 148 13 98 b 134 0 54 22 87 2 b 260 78 183 0 225 26 b 271 98 264 85 267 91 b 302 182 283 123 294 151 b 318 272 311 212 316 243 l 297 274 b 282 187 295 245 290 217 b 252 107 274 159 264 132 b 241 89 248 100 245 94 b 191 39 227 65 210 49 b 139 39 172 30 155 30 b 99 151 115 56 101 94 b 114 355 97 209 102 277 b 158 591 125 433 140 512 b 207 798 176 669 192 739 b 231 901 218 843 227 878 b 214 938 233 916 228 929 b 168 958 201 947 185 954 b 127 963 149 962 136 963 z "},"m":{"ha":832,"x_min":0,"x_max":0,"o":"m 133 635 b 92 642 119 640 106 643 b 52 633 79 641 65 638 b 47 558 54 615 52 590 b 29 450 43 526 37 490 b 2 283 19 396 10 340 b -5 128 -5 227 -8 175 b 26 26 1 78 11 44 b 75 0 42 7 58 -1 b 115 14 92 0 104 4 l 115 15 b 113 43 113 22 113 31 b 117 90 114 56 115 72 b 189 389 129 177 153 277 b 275 575 214 467 243 528 b 293 596 281 583 287 590 b 307 602 298 602 303 604 b 309 573 310 600 311 590 b 288 448 304 537 297 496 b 262 283 278 395 269 339 b 255 128 254 226 252 175 b 286 26 260 78 271 44 b 335 0 302 7 318 -1 b 375 14 351 0 364 4 l 374 15 b 373 43 373 22 373 31 b 377 90 374 56 375 72 b 448 389 388 177 412 277 b 494 504 463 431 477 469 b 545 588 511 538 528 566 b 581 562 575 624 587 615 b 568 480 577 538 573 510 b 547 324 560 431 553 378 b 542 169 541 269 539 218 b 576 50 545 121 556 81 b 671 0 595 18 627 2 b 796 78 720 0 762 26 b 807 98 800 85 804 91 b 839 182 821 123 831 151 b 854 272 847 212 852 243 l 833 274 b 819 187 831 245 827 217 b 788 107 811 159 801 132 b 779 89 785 100 781 94 b 728 39 763 65 746 49 b 675 39 709 30 692 30 b 638 127 655 53 642 82 b 643 287 634 171 635 224 b 672 481 650 349 660 414 b 679 567 678 511 681 539 b 661 614 677 587 671 602 b 626 638 652 625 640 633 b 569 635 606 644 587 644 b 554 625 564 632 559 629 b 529 602 545 619 537 611 b 475 514 511 579 492 550 b 429 396 458 478 443 439 b 362 132 397 301 375 214 b 385 365 364 205 372 283 b 422 562 399 447 411 513 b 401 629 427 593 420 615 b 350 642 387 638 370 643 b 304 632 332 642 317 639 b 270 602 292 625 281 615 b 216 514 251 579 233 550 b 169 396 199 478 183 439 b 102 132 138 301 116 214 b 125 365 104 205 113 283 b 162 562 139 447 151 513 b 159 608 165 581 165 597 b 133 635 153 621 144 629 z "},"n":{"ha":572,"x_min":0,"x_max":0,"o":"m 414 481 b 420 567 419 511 422 539 b 402 614 418 587 412 602 b 367 638 393 625 381 633 b 310 635 347 644 328 644 b 295 625 304 632 300 629 b 270 602 286 619 278 611 b 216 514 252 579 233 550 b 170 396 199 478 184 439 b 103 132 138 301 116 214 b 126 365 105 205 113 283 b 163 562 140 447 152 513 b 142 629 168 593 161 615 b 98 642 128 638 113 642 b 52 633 82 642 67 639 b 47 558 54 615 52 590 b 29 450 43 526 37 490 b 3 283 19 396 10 340 b -4 128 -5 227 -7 175 b 27 26 1 78 12 44 b 76 0 43 7 59 -1 b 116 14 92 0 105 4 l 115 15 b 114 43 114 22 114 31 b 118 90 115 56 116 72 b 189 389 129 177 153 277 b 235 504 203 431 218 469 b 286 588 252 538 269 566 b 321 562 316 624 328 615 b 309 479 318 538 314 510 b 288 323 301 431 294 378 b 283 169 281 269 280 218 b 317 50 286 121 297 81 b 412 0 336 18 368 2 b 537 78 460 0 503 26 b 548 98 541 85 545 91 b 580 182 562 123 572 151 b 595 272 589 212 593 243 l 574 274 b 559 187 572 245 568 217 b 529 107 552 159 542 132 b 519 89 526 100 522 94 b 469 39 504 65 487 49 b 416 39 450 30 433 30 b 379 127 396 53 383 82 b 384 287 375 171 376 224 b 414 481 391 349 401 414 z "},"o":{"ha":541,"x_min":0,"x_max":0,"o":"m 406 557 b 347 624 392 588 372 610 b 265 643 323 638 295 644 b 121 572 210 638 161 615 b 28 414 81 529 50 476 b -1 227 7 351 -3 289 b 46 70 1 165 16 113 b 181 0 75 27 120 4 b 277 30 215 -1 247 8 b 340 102 300 47 321 72 b 389 204 359 132 376 166 b 404 183 393 196 398 189 b 441 162 414 172 427 165 b 482 166 454 160 468 161 l 483 166 b 531 202 500 173 516 184 b 563 271 545 220 556 242 l 543 275 b 515 216 536 251 528 231 b 475 186 503 201 490 191 b 445 183 465 182 454 181 b 418 197 435 185 427 190 b 399 236 410 206 404 219 b 429 432 419 302 429 368 b 406 557 429 483 421 524 z m 399 328 b 393 330 397 329 395 329 b 383 330 389 330 385 330 b 379 318 381 328 380 325 b 378 237 374 286 374 260 l 377 235 b 310 94 360 180 338 133 b 250 39 292 69 272 51 b 186 26 229 26 208 22 b 113 101 150 35 125 60 b 106 248 101 142 98 192 b 148 416 113 305 127 361 b 224 552 169 471 195 516 b 319 604 254 588 286 605 b 391 541 350 603 374 582 b 408 432 402 513 408 477 b 399 328 408 399 405 365 z "},"p":{"ha":608,"x_min":0,"x_max":0,"o":"m 65 642 b 55 578 63 627 60 606 b 54 574 55 577 55 576 b 38 485 49 545 43 515 b -1 264 24 411 11 337 b -30 39 -14 190 -23 115 b -37 -54 -33 7 -35 -24 b -39 -148 -39 -84 -39 -115 b -26 -239 -37 -180 -33 -211 b 14 -304 -18 -267 -5 -289 b 92 -319 32 -319 58 -324 b 68 -212 79 -293 71 -257 b 70 -60 65 -168 66 -117 b 93 138 75 3 82 69 b 107 104 97 125 102 115 b 141 51 117 84 128 66 b 186 13 154 35 169 22 b 247 -1 203 4 224 -1 b 366 34 291 -1 330 11 b 456 125 401 57 431 87 b 515 248 481 162 500 203 b 540 384 529 294 538 338 b 529 509 543 429 539 471 b 478 603 519 547 502 578 b 408 640 458 622 435 634 b 330 634 382 644 356 643 b 260 591 305 625 282 611 b 201 521 239 572 220 548 b 136 394 176 482 155 439 b 149 459 140 417 144 439 b 171 584 158 511 166 552 b 153 621 173 600 167 612 b 105 638 138 629 123 635 b 65 642 87 642 75 643 z m 219 509 b 300 596 243 547 271 575 b 363 615 322 610 343 617 b 415 575 385 613 401 600 b 435 469 429 545 436 509 b 428 370 435 428 433 395 b 389 218 420 318 408 268 b 322 93 371 169 349 127 b 236 31 296 58 267 38 b 168 53 208 28 186 35 b 126 113 151 71 136 91 b 100 189 115 136 106 161 l 104 216 l 106 220 b 148 366 115 265 128 313 b 219 509 167 417 191 465 z "},"q":{"ha":499,"x_min":0,"x_max":0,"o":"m 321 73 b 401 243 356 121 383 177 b 429 431 420 309 429 371 b 406 556 429 482 421 524 b 347 624 392 587 372 610 b 265 642 323 637 295 644 b 121 571 210 638 161 614 b 28 413 81 528 50 475 b -1 227 7 351 -3 288 b 46 69 1 164 16 112 b 181 -1 75 26 120 3 b 231 6 198 -1 215 1 b 283 -45 248 -7 265 -24 b 336 -98 300 -64 317 -82 b 391 -127 353 -114 372 -123 b 439 -117 408 -130 424 -126 b 484 -74 454 -109 469 -94 l 466 -62 b 429 -99 453 -79 441 -92 b 395 -106 417 -106 406 -108 b 347 -80 379 -103 363 -94 b 298 -31 330 -65 315 -49 b 254 15 283 -14 269 1 b 277 29 262 19 269 24 b 321 73 292 41 307 55 z m 170 31 b 109 116 138 45 118 73 b 108 264 100 159 99 208 b 152 425 116 319 131 373 b 227 555 173 478 198 521 b 319 604 256 588 287 605 b 391 541 350 602 374 581 b 408 431 402 512 408 476 b 382 256 408 377 399 319 b 310 93 366 193 342 138 b 234 31 287 62 262 41 b 170 31 212 46 191 46 z "},"r":{"ha":408,"x_min":0,"x_max":0,"o":"m -6 128 b 25 26 -1 78 9 44 b 74 0 41 7 57 -1 b 113 13 90 0 102 4 b 105 35 109 18 105 25 b 106 66 104 45 105 56 b 111 92 109 77 110 86 b 184 269 126 152 151 211 b 218 203 193 242 203 220 b 273 167 233 184 252 172 b 342 179 295 162 318 166 b 433 271 372 195 401 225 l 415 283 b 332 198 386 239 359 212 b 278 187 313 187 294 184 b 235 216 261 191 247 201 l 234 216 b 199 296 218 236 206 262 b 248 376 216 323 232 351 b 317 497 275 420 298 460 b 349 597 337 534 347 568 b 342 626 349 610 347 619 b 328 637 338 631 334 635 b 313 640 323 639 318 640 b 274 627 299 640 286 636 b 224 573 257 616 241 597 b 184 484 208 549 195 519 b 177 300 168 431 165 370 b 98 123 143 242 116 183 b 101 181 98 145 99 165 b 104 208 102 198 103 207 b 128 399 109 272 117 336 b 161 562 140 461 151 516 b 140 629 165 593 159 615 b 96 642 126 638 111 642 b 50 633 80 642 65 639 b 45 558 52 615 50 590 b 27 450 41 526 35 490 b 1 283 17 396 8 340 b -6 128 -7 227 -9 175 z "},"s":{"ha":379,"x_min":0,"x_max":0,"o":"m 55 -5 b 167 18 100 -5 137 3 b 239 79 197 33 222 54 b 275 168 257 105 269 134 b 279 271 281 200 283 235 b 252 381 275 308 266 345 b 231 433 245 399 239 416 b 205 503 221 458 213 481 b 193 566 198 525 194 546 b 197 600 193 579 195 591 b 207 625 200 609 203 618 b 208 627 207 626 208 627 l 210 633 l 212 636 b 196 648 208 648 202 652 b 178 628 190 644 184 637 b 149 578 170 616 161 600 b 91 465 132 545 112 507 b 33 350 70 423 50 385 b -1 278 16 315 4 291 b -57 222 -26 263 -44 245 b -78 148 -69 199 -77 174 b -66 75 -80 122 -76 98 b -22 18 -57 52 -42 33 b 55 -5 -1 3 24 -5 z m 168 567 l 171 573 b 174 528 170 560 171 545 b 189 369 181 479 186 425 b 174 205 191 312 186 258 b 102 71 162 152 138 107 b 24 33 75 45 49 33 b -36 58 -1 32 -20 41 b -59 121 -52 74 -59 96 b -24 201 -58 148 -47 174 b 18 231 -13 214 1 224 b 62 240 34 237 49 240 b 66 273 69 252 70 262 b 43 292 61 285 54 290 b 28 290 39 292 35 291 l 28 290 b 92 420 43 322 64 366 b 168 567 119 474 144 523 z "},"t":{"ha":295,"x_min":0,"x_max":0,"o":"m 128 963 b 96 818 123 932 113 884 b 93 803 95 812 94 808 b -44 831 43 815 -2 825 b -153 833 -86 838 -123 838 b -218 789 -183 827 -205 812 l -199 779 b -142 814 -189 798 -169 810 b -41 810 -114 818 -80 817 b 87 783 -1 804 41 794 b 45 591 73 724 59 660 b 10 384 31 522 19 453 b 1 195 1 315 -1 252 b 37 56 5 138 16 91 b 134 0 58 20 90 2 b 260 78 184 0 226 26 b 271 98 264 85 268 91 b 303 182 284 123 295 151 b 319 272 311 212 317 243 l 298 274 b 283 187 296 245 291 217 b 252 107 275 159 264 132 b 242 89 249 100 245 94 b 192 39 227 65 210 49 b 140 39 173 30 156 30 b 100 142 117 55 103 90 b 111 329 97 194 100 256 b 150 550 121 401 134 475 b 197 755 166 625 182 693 b 370 720 256 740 313 728 b 524 720 426 712 477 712 b 640 781 572 727 610 747 l 624 794 b 516 739 596 764 561 746 b 368 741 472 732 422 733 b 202 775 314 749 259 761 b 208 798 204 783 206 791 b 232 901 219 843 227 878 b 215 938 234 916 229 929 b 168 958 201 947 186 954 b 128 963 150 962 137 963 z "},"u":{"ha":573,"x_min":0,"x_max":0,"o":"m 113 0 b 167 11 129 -2 147 2 b 230 71 189 22 210 41 b 281 186 250 100 267 139 b 313 55 283 134 294 90 b 411 0 332 20 365 2 b 537 78 460 0 503 26 b 548 98 541 85 545 91 b 580 182 561 123 572 151 b 595 272 588 212 593 243 l 574 274 b 559 187 572 245 568 217 b 529 107 551 159 542 132 b 519 89 526 100 522 94 b 468 39 504 65 487 49 b 416 39 450 30 432 30 b 379 127 395 53 383 82 b 383 287 375 171 376 224 b 413 481 391 349 400 414 b 414 489 414 484 414 486 b 424 545 418 505 420 524 b 428 597 427 566 429 583 b 390 635 425 617 412 630 b 324 627 368 640 347 637 b 321 562 327 621 326 600 b 309 480 318 538 314 510 b 285 292 299 420 291 357 b 212 83 268 198 243 128 b 167 35 196 58 180 42 b 131 29 153 27 141 25 b 99 107 112 38 101 64 b 106 258 96 150 99 201 b 134 425 114 316 123 372 b 159 545 144 477 153 517 b 162 562 160 552 161 557 b 142 629 168 593 161 615 b 98 642 127 638 113 642 b 52 633 82 642 67 639 b 47 563 54 616 52 593 b 31 461 43 532 38 499 b 6 309 22 412 13 361 b -3 160 -1 256 -4 206 b 26 47 -1 114 8 76 b 113 0 43 18 72 2 z "},"v":{"ha":405,"x_min":0,"x_max":0,"o":"m 29 40 b 104 -1 49 15 74 1 b 182 31 134 -2 160 8 b 252 166 208 62 232 106 b 311 360 273 225 292 290 b 364 540 328 423 345 483 b 425 680 382 597 403 643 b 500 735 447 715 472 734 l 500 756 b 413 698 467 755 438 736 b 347 553 388 661 366 612 b 290 366 327 494 308 431 b 232 172 271 295 252 231 b 167 43 212 113 191 71 b 128 29 152 28 139 24 b 104 66 117 35 109 47 b 101 216 96 102 94 153 b 129 404 107 280 117 342 b 157 545 140 466 150 513 b 161 562 159 551 160 557 b 140 629 166 593 159 615 b 96 642 127 638 112 642 b 51 633 81 642 66 639 b 47 562 52 616 51 593 b 30 461 42 532 37 499 b 4 304 20 411 12 358 b -3 153 -3 250 -5 199 b 29 40 -1 106 9 68 z "},"w":{"ha":684,"x_min":0,"x_max":0,"o":"m 113 0 b 166 11 129 -2 146 2 b 230 71 189 22 210 41 b 266 142 243 90 254 114 b 298 40 269 100 279 66 b 372 -1 317 15 342 1 b 451 31 402 -2 429 8 b 520 166 477 62 500 106 b 579 360 541 225 560 290 b 632 540 596 423 614 483 b 693 680 650 597 671 643 b 768 735 715 715 741 734 l 768 756 b 681 698 735 755 706 736 b 614 553 656 661 634 612 b 559 366 595 494 576 431 b 500 172 540 295 520 231 b 435 43 481 113 458 71 b 396 29 420 28 407 24 b 372 66 385 35 377 47 b 369 216 363 102 362 153 b 397 403 376 279 385 341 b 425 543 408 465 418 511 b 429 562 427 551 429 557 b 408 629 435 593 428 615 b 365 642 395 638 380 642 b 319 633 349 642 334 639 b 315 562 321 616 319 593 b 298 461 311 532 304 498 b 276 331 290 419 283 376 b 264 201 269 286 265 243 b 212 83 250 152 232 112 b 166 35 195 58 180 42 b 131 29 153 27 141 25 b 98 107 112 38 101 64 b 106 258 96 150 99 201 b 134 425 114 316 123 372 b 159 545 144 477 152 517 b 162 562 160 552 161 557 b 141 629 168 593 161 615 b 98 642 127 638 113 642 b 52 633 82 642 66 639 b 47 563 54 616 52 593 b 31 461 43 532 37 499 b 5 309 21 412 13 361 b -3 160 -1 256 -5 206 b 26 47 -1 114 8 76 b 113 0 43 18 72 2 z "},"x":{"ha":489,"x_min":0,"x_max":0,"o":"m 67 0 b 102 103 69 28 81 63 b 183 231 123 143 150 186 b 224 288 195 249 209 267 b 283 159 243 241 262 199 b 348 56 303 118 325 84 b 421 1 371 28 395 9 l 427 22 b 359 75 404 29 380 47 b 296 178 337 103 317 137 b 239 307 277 218 258 261 b 416 527 299 387 359 460 b 435 581 431 545 437 563 b 411 627 432 600 424 614 b 368 642 398 638 384 644 b 327 583 362 630 349 610 b 252 492 304 555 279 526 b 191 420 231 468 210 444 b 120 566 168 477 144 526 b 43 642 96 606 70 631 l 37 622 b 107 547 60 613 84 588 b 176 402 130 507 153 458 b 150 369 166 390 157 379 b 96 293 131 343 113 318 b 45 214 79 269 62 242 b 8 130 28 186 16 157 b 7 54 -1 102 -1 77 b 67 0 15 31 35 13 z "},"y":{"ha":534,"x_min":0,"x_max":0,"o":"m 164 -411 b 255 -292 201 -382 231 -342 b 303 -142 274 -251 290 -201 b 339 64 317 -83 329 -14 b 465 130 385 78 426 100 b 564 270 503 161 536 208 l 544 278 b 455 151 519 222 490 180 b 342 87 421 122 383 101 b 402 420 361 208 381 319 b 432 593 420 508 430 566 b 412 629 432 610 425 621 b 368 640 399 637 385 640 b 323 627 351 639 336 635 b 321 547 328 612 328 585 b 295 421 314 509 305 467 b 270 302 286 380 277 340 b 216 176 255 249 237 207 b 170 127 199 151 184 135 b 135 122 157 120 144 118 b 102 182 117 130 106 150 b 106 298 99 215 100 254 b 127 429 111 342 119 386 b 152 536 137 472 145 508 b 160 570 155 551 158 563 b 139 637 165 602 158 624 b 95 650 125 646 111 651 b 50 642 79 650 64 648 b 45 574 51 625 50 602 b 28 482 41 547 35 516 b 5 351 20 439 12 396 b -1 227 -1 307 -3 264 b 29 132 1 188 12 156 b 116 93 47 108 76 94 b 170 104 132 91 151 95 b 233 164 193 115 214 134 b 252 195 240 174 245 184 b 230 53 243 144 235 96 b 133 21 198 44 165 33 b 36 -31 100 8 68 -9 b -70 -125 -9 -61 -44 -93 b -124 -222 -96 -158 -114 -190 b -129 -355 -139 -273 -141 -317 b -64 -441 -117 -393 -96 -422 b 42 -465 -34 -461 1 -469 b 164 -411 82 -461 123 -444 z m -104 -231 b -54 -139 -96 -201 -79 -170 b 47 -47 -29 -108 5 -77 b 137 -1 77 -28 107 -12 b 227 30 167 12 197 22 b 223 -3 226 20 224 9 b 203 -158 219 -49 213 -100 b 162 -319 195 -216 181 -269 b 75 -429 139 -375 110 -412 b -28 -435 39 -447 5 -449 b -102 -362 -61 -422 -85 -398 b -104 -231 -118 -326 -119 -282 z "},"z":{"ha":460,"x_min":0,"x_max":0,"o":"m 365 642 b 258 613 339 623 303 612 b 140 645 210 614 170 625 l 127 629 b 258 592 162 605 205 593 b 341 605 288 592 316 596 b 250 493 317 574 287 536 b 165 392 218 457 191 424 b 89 394 134 393 109 393 l 88 373 b 150 372 104 373 125 372 b 149 371 149 372 149 371 b 147 369 149 370 148 370 b 93 293 128 343 111 318 b 43 214 76 269 59 242 b 5 130 26 186 14 157 b 5 54 -3 102 -3 77 b 64 0 13 31 33 13 b 76 7 67 2 71 5 b 90 12 81 9 85 11 b 90 13 90 12 90 12 b 164 26 114 22 138 26 b 265 -1 200 25 233 16 l 275 18 b 165 47 241 36 203 45 b 70 30 132 47 100 42 b 180 231 86 86 123 153 b 285 370 210 273 245 319 l 357 370 l 357 391 l 301 391 b 414 527 341 441 378 487 b 432 581 429 545 435 563 b 408 627 429 600 422 614 b 365 642 395 638 381 644 z "},"{":{"ha":475,"x_min":0,"x_max":0,"o":"m 119 439 b 144 374 134 424 142 402 b 144 278 147 345 146 313 b 142 198 142 252 142 225 b 151 122 142 172 145 146 b 181 57 156 98 166 76 b 245 12 196 38 217 22 b 353 -5 272 0 308 -5 l 355 18 b 273 58 316 21 288 35 b 245 146 256 82 248 111 b 246 256 243 181 243 218 b 245 381 250 302 249 343 b 199 466 241 420 226 448 b 264 553 230 484 252 513 b 290 685 275 593 285 637 b 312 800 296 726 302 764 b 357 892 321 838 336 868 b 447 935 377 917 408 931 l 449 958 b 335 939 404 958 366 951 b 261 888 304 926 280 909 b 216 817 242 867 227 843 b 192 732 205 789 197 762 b 178 648 186 704 182 675 b 161 552 174 612 168 579 b 124 492 153 524 141 505 b 50 496 89 501 64 503 b 28 469 37 490 29 481 b 45 439 26 456 31 446 b 119 439 58 431 83 431 z "},"|":{"ha":235,"x_min":0,"x_max":0,"o":"m 113 71 b 165 656 133 266 151 461 b 167 675 166 663 166 669 b 182 863 172 752 178 814 b 195 953 186 911 191 941 b 140 956 177 966 158 968 b 103 882 121 945 109 920 b 56 357 85 707 69 532 b 54 338 56 351 55 345 b 36 113 47 250 41 174 b 21 0 31 50 26 13 b 77 -4 39 -14 58 -15 b 113 71 96 7 107 32 z "},"}":{"ha":478,"x_min":0,"x_max":0,"o":"m 347 460 b 420 456 382 451 406 450 b 442 484 434 463 441 472 b 426 514 445 496 439 506 b 352 513 413 522 389 522 b 326 579 337 528 328 551 b 326 675 324 608 324 640 b 329 754 328 701 329 728 b 320 831 328 781 326 806 b 290 896 315 855 304 877 b 226 941 275 915 254 930 b 118 958 199 952 163 958 l 116 935 b 199 894 155 931 182 918 b 225 806 214 871 223 842 b 224 696 227 772 227 735 b 226 571 221 651 222 610 b 272 486 230 533 245 505 b 208 399 241 469 219 439 b 180 267 195 359 186 315 b 159 152 175 227 168 189 b 115 60 150 115 135 85 b 24 18 94 36 63 22 l 22 -5 b 136 14 67 -5 105 1 b 210 64 166 26 191 43 b 254 136 229 85 243 110 b 279 220 265 163 273 191 b 293 304 285 249 289 277 b 311 401 297 341 303 373 b 347 460 317 429 330 448 z "},"~":{"ha":383,"x_min":0,"x_max":0,"o":"m 18 457 l 31 450 b 83 465 43 464 61 469 b 156 444 105 461 130 454 b 231 420 181 433 205 426 b 300 422 256 414 279 415 b 352 479 321 430 338 449 l 339 487 b 287 472 327 473 309 468 b 214 494 265 475 241 483 b 139 517 189 503 164 511 b 70 514 114 523 91 522 b 18 457 49 507 31 488 z "},"¡":{"ha":306,"x_min":0,"x_max":0,"o":"m 126 43 b 151 269 136 117 144 193 b 183 537 160 359 171 448 b 237 798 195 627 214 713 b 186 808 217 808 200 812 b 156 782 172 805 163 796 b 110 621 140 746 125 692 b 68 390 95 549 81 472 b 36 170 56 309 45 235 b 14 28 25 86 17 39 b 56 1 26 16 40 7 b 100 2 73 -4 87 -4 b 126 43 114 7 122 21 z m 224 850 b 265 869 241 847 255 854 b 280 919 275 884 281 901 b 256 955 279 937 271 949 b 210 937 236 959 221 953 b 196 886 199 922 195 905 b 224 850 197 867 207 854 z "},"¢":{"ha":562,"x_min":0,"x_max":0,"o":"m 205 61 l 182 -25 l 203 -31 l 226 55 b 292 45 246 50 268 46 b 420 77 336 43 378 54 l 412 100 b 302 81 377 82 340 76 b 239 107 278 85 257 94 l 444 871 b 486 850 463 870 477 863 b 500 804 494 838 499 822 b 494 751 501 786 498 768 b 505 746 497 749 501 747 b 513 743 508 745 511 745 b 518 845 526 781 527 815 b 453 903 510 875 488 894 l 473 978 l 453 983 l 432 907 b 414 907 427 907 420 907 b 232 849 345 905 284 885 b 103 709 180 813 137 766 b 32 524 70 652 45 591 b 22 330 18 458 15 393 b 79 164 30 267 49 212 b 205 61 109 116 151 82 z m 419 869 b 422 869 420 869 421 869 l 222 122 b 164 256 191 155 172 200 b 168 440 156 313 157 374 b 220 632 178 507 195 570 b 308 789 244 694 273 746 b 419 869 342 832 379 859 z "},"£":{"ha":506,"x_min":0,"x_max":0,"o":"m 204 513 l 282 513 l 282 534 l 203 534 b 201 698 199 591 199 646 b 224 835 203 750 210 795 b 269 905 235 863 250 886 b 334 935 289 925 311 935 b 406 893 358 935 382 921 b 435 820 421 874 431 850 b 427 710 439 788 437 751 l 447 705 b 456 823 458 749 460 789 b 422 906 451 857 439 884 b 315 958 393 941 357 959 b 224 937 284 958 254 951 b 151 874 193 922 170 901 b 98 719 124 829 106 778 b 89 534 90 661 87 599 l 12 534 l 12 513 l 90 513 b 94 397 90 474 92 435 b 99 237 97 341 99 288 b 86 102 99 186 95 141 b 37 13 77 64 60 34 l 37 -9 l 288 -9 l 288 13 l 99 13 b 187 119 142 35 171 71 b 212 286 203 168 212 223 b 206 483 213 350 211 415 b 204 513 205 493 205 503 z "},"¤":{"ha":650,"x_min":0,"x_max":0,"o":"m 41 -39 l 59 -50 l 115 47 b 235 -4 147 16 188 -1 b 347 26 276 -5 313 5 b 438 114 380 47 411 76 l 470 -5 l 490 0 l 454 137 b 546 358 493 201 524 275 b 584 608 568 442 581 525 b 563 823 587 690 580 762 l 635 947 l 616 958 l 553 849 b 515 915 543 876 530 898 b 475 944 503 928 489 938 b 431 957 460 951 446 955 b 382 960 415 959 399 960 b 244 918 331 959 285 945 l 244 919 l 227 985 l 206 980 l 226 906 b 90 730 170 863 125 805 b 20 490 55 656 32 576 b 21 248 7 405 8 324 b 100 63 34 172 60 110 l 41 -39 z m 444 932 b 526 861 480 927 507 903 b 559 699 545 818 556 764 b 548 490 563 633 559 563 b 496 280 537 416 520 347 b 406 113 472 214 441 158 b 281 35 370 69 328 43 b 243 39 267 34 254 35 b 170 130 209 52 185 82 b 152 307 156 179 150 237 b 178 520 154 375 163 446 b 242 726 194 594 216 663 b 334 879 269 790 299 841 b 444 932 368 917 405 935 z "},"¥":{"ha":528,"x_min":0,"x_max":0,"o":"m 287 530 b 277 471 283 511 281 491 b 260 370 271 438 265 404 l 163 370 l 163 348 l 256 348 b 250 304 254 334 252 319 l 163 304 l 163 283 l 248 283 b 237 101 239 221 236 161 b 248 19 238 71 241 44 b 282 -38 255 -5 267 -24 b 347 -54 298 -52 319 -57 b 336 79 336 -25 332 19 b 353 256 340 138 345 197 b 356 283 353 265 355 274 l 433 283 l 433 304 l 359 304 b 366 348 361 319 363 334 l 433 348 l 433 370 l 369 370 b 410 578 381 439 395 509 b 453 766 425 647 439 709 b 483 895 466 819 476 863 b 466 933 485 911 479 924 b 419 952 452 942 437 949 b 380 958 401 956 388 958 b 366 891 377 942 372 920 b 340 781 356 847 347 810 b 320 700 333 754 326 727 b 300 600 314 672 307 639 b 214 486 274 543 245 505 b 135 494 182 467 156 470 b 110 633 113 517 105 564 b 140 812 117 699 127 758 b 152 869 146 836 149 855 b 151 918 155 888 155 905 b 122 948 147 931 137 941 b 52 958 107 955 83 958 b 49 907 54 946 53 929 b 34 831 45 885 40 860 b 15 735 27 801 21 769 b 3 635 9 701 5 667 b 28 505 1 580 9 536 b 102 444 47 473 72 452 b 197 452 133 435 164 437 b 287 530 231 466 260 492 z "},"¦":{"ha":225,"x_min":0,"x_max":0,"o":"m 96 873 b 62 527 83 758 73 642 b 75 492 61 507 65 496 b 116 488 85 488 99 487 b 144 489 125 489 134 489 l 157 648 b 159 673 158 656 159 665 b 187 944 170 827 179 918 b 132 947 169 958 150 959 b 96 873 113 937 100 911 z m 104 62 b 137 404 117 176 127 290 b 124 448 139 429 135 444 b 81 449 114 452 99 452 b 56 446 73 448 64 447 l 47 349 b 46 326 47 341 47 334 b 28 102 39 239 33 164 b 13 -9 22 41 18 4 b 68 -12 31 -22 50 -24 b 104 62 87 -1 100 23 z "},"§":{"ha":443,"x_min":0,"x_max":0,"o":"m 178 20 b 218 91 201 41 214 64 b 213 172 222 117 220 144 b 184 249 205 199 196 224 b 161 293 177 264 169 278 b 300 304 216 281 262 286 b 381 389 337 323 364 351 b 395 519 397 427 402 471 b 333 663 388 567 367 614 b 291 718 319 682 305 700 b 280 732 288 722 283 727 b 250 779 269 745 259 761 b 229 834 239 797 233 815 b 247 908 225 866 231 891 b 300 935 262 926 280 935 b 350 907 321 936 338 926 b 353 817 362 888 363 858 l 350 806 l 384 796 l 387 807 b 393 875 393 829 395 852 b 361 934 389 897 379 918 b 296 958 342 950 321 958 b 229 932 271 958 248 949 b 189 862 206 911 193 888 b 195 781 185 836 187 808 b 224 704 202 754 212 728 b 247 660 231 689 239 674 b 108 648 191 671 145 667 b 27 564 71 630 43 602 b 13 434 10 525 5 482 b 75 290 20 386 41 338 b 115 237 87 272 101 254 b 127 221 119 232 123 227 b 180 113 159 179 176 143 b 163 43 183 83 178 60 b 113 18 149 27 133 19 b 61 47 92 18 75 28 b 55 136 47 67 45 97 l 58 147 l 24 156 l 20 146 b 15 78 14 123 12 100 b 46 18 18 55 28 35 b 112 -5 65 3 87 -5 b 178 20 137 -5 159 4 z m 279 600 b 311 446 304 545 315 494 b 260 343 308 398 291 363 b 129 353 230 323 186 326 b 98 470 110 393 100 432 b 115 567 96 507 101 540 b 176 619 127 594 149 612 b 279 600 203 627 238 620 z "},"¨":{"ha":232,"x_min":0,"x_max":0,"o":"m 68 848 b 102 870 84 848 95 855 b 105 917 109 885 109 901 b 73 944 100 932 90 942 b 42 922 58 943 48 936 b 40 876 37 907 36 892 b 68 848 44 861 54 851 z m 154 848 b 187 870 170 848 180 855 b 191 917 194 885 195 901 b 158 944 186 932 176 942 b 128 922 144 943 134 936 b 125 876 122 907 121 892 b 154 848 130 861 139 851 z "},"©":{"ha":647,"x_min":0,"x_max":0,"o":"m 398 960 b 221 889 331 958 271 935 b 98 713 171 844 130 785 b 35 485 67 642 46 566 b 36 254 24 404 24 327 b 106 74 47 182 71 121 b 252 -4 142 27 191 1 b 393 47 304 -5 351 12 b 500 191 435 83 470 130 b 570 387 530 250 553 315 b 600 599 587 458 596 529 b 587 787 603 669 599 732 b 531 915 576 844 557 886 b 491 944 519 928 505 938 b 447 957 477 951 462 955 b 398 960 431 959 415 960 z m 554 431 b 519 348 545 399 533 372 b 473 289 505 324 489 304 b 385 254 441 261 412 250 b 330 302 358 259 340 275 b 319 401 319 330 316 363 b 345 519 323 441 331 479 b 396 621 358 558 375 592 b 465 674 416 649 439 667 b 512 648 490 679 506 671 b 486 561 519 626 510 597 b 486 555 485 559 485 557 b 492 551 488 553 490 551 b 498 551 494 550 496 550 b 524 661 528 595 537 631 b 473 694 513 681 496 692 b 407 686 450 696 428 694 b 322 626 374 674 346 654 b 267 532 299 598 280 567 b 242 431 254 497 245 464 b 250 338 239 399 242 368 b 294 263 258 307 273 283 b 380 233 316 243 345 233 b 479 275 410 231 443 245 b 532 339 498 291 515 313 b 474 193 516 286 496 237 b 395 85 451 149 425 113 b 298 35 366 58 334 41 b 260 39 283 34 271 35 b 186 130 225 52 201 82 b 168 307 172 179 166 237 b 195 520 170 375 179 446 b 258 726 210 594 232 663 b 350 879 285 790 315 841 b 460 932 384 917 421 935 b 547 849 499 926 528 899 b 577 663 566 800 576 737 b 554 431 578 588 570 511 z "},"¯":{"ha":201,"x_min":0,"x_max":0,"o":"m 168 873 b 170 884 169 876 170 880 b 169 897 170 888 170 892 b 149 905 168 900 161 903 b 106 910 137 907 123 909 b 61 911 90 911 75 911 b 35 907 47 911 39 909 b 28 897 32 905 30 901 b 31 871 27 883 28 875 b 37 867 33 869 35 868 b 42 866 39 867 41 866 b 103 863 61 864 81 863 b 158 866 124 863 142 864 b 165 869 160 867 163 867 b 168 873 167 869 168 871 z "},"°":{"ha":201,"x_min":0,"x_max":0,"o":"m 94 937 b 131 922 109 937 121 932 b 146 886 140 912 146 900 b 131 849 146 871 140 859 b 94 835 121 840 109 835 b 58 849 80 835 68 840 b 43 886 48 859 43 871 b 58 922 43 900 48 912 b 94 937 68 932 81 937 z m 96 975 b 31 949 71 975 49 966 b 5 884 14 931 5 909 b 31 820 5 859 14 838 b 96 793 48 802 70 793 b 159 821 120 793 142 802 b 186 884 178 838 186 859 b 160 949 186 909 178 931 b 96 975 142 966 121 975 z "},"±":{"ha":323,"x_min":0,"x_max":0,"o":"m 111 349 b 134 286 112 317 119 297 b 178 284 148 275 163 275 b 178 442 175 302 175 354 l 267 442 l 267 463 l 178 463 l 179 557 b 156 618 178 587 170 608 b 112 621 142 629 127 630 b 113 463 115 604 115 551 l 22 463 l 22 442 l 112 442 l 111 349 z m 98 242 b 52 231 77 242 62 239 b 34 205 41 224 35 216 b 41 175 33 195 35 185 b 95 180 54 178 72 180 b 168 178 118 180 142 179 b 225 176 189 176 208 176 b 272 186 245 176 261 179 b 290 212 282 193 288 201 b 282 242 291 222 288 233 b 229 237 269 239 252 237 b 155 240 205 238 181 239 b 98 242 134 241 115 241 z "},"´":{"ha":197,"x_min":0,"x_max":0,"o":"m 106 824 b 113 820 109 822 111 821 b 119 820 115 819 117 819 b 130 826 122 821 126 823 b 140 836 134 829 137 832 b 135 859 143 839 141 846 b 111 899 128 870 120 884 b 81 938 100 913 90 926 b 60 958 71 949 64 956 b 46 956 56 959 52 958 b 26 936 34 948 27 941 b 26 929 25 934 26 932 b 28 924 27 926 28 924 b 67 869 40 905 53 887 b 106 824 81 850 95 836 z "},"·":{"ha":345,"x_min":0,"x_max":0,"o":"m 172 432 b 225 454 193 432 210 439 b 247 507 239 468 247 486 b 225 559 247 527 239 545 b 172 581 210 574 193 581 b 119 559 151 581 134 574 b 98 507 105 545 98 527 b 119 454 98 486 105 468 b 172 432 134 439 151 432 z "},"∙":{"ha":345,"x_min":0,"x_max":0,"o":"m 172 432 b 225 454 193 432 210 439 b 247 507 239 468 247 486 b 225 559 247 527 239 545 b 172 581 210 574 193 581 b 119 559 151 581 134 574 b 98 507 105 545 98 527 b 119 454 98 486 105 468 b 172 432 134 439 151 432 z "},"¸":{"ha":302,"x_min":0,"x_max":0,"o":"m 138 -139 b 76 -118 119 -139 99 -132 b 66 -134 62 -109 59 -115 b 89 -157 68 -140 76 -149 b 153 -170 102 -166 123 -170 b 218 -152 180 -170 202 -164 b 242 -103 234 -140 242 -123 b 222 -57 242 -83 235 -68 b 168 -40 210 -46 191 -40 b 142 -42 160 -41 151 -41 l 158 0 l 132 0 b 113 -72 102 -50 95 -74 b 126 -71 117 -71 122 -71 b 168 -77 143 -71 157 -73 b 188 -104 181 -83 188 -92 b 176 -130 188 -116 184 -125 b 138 -139 169 -136 156 -139 z "},"¿":{"ha":443,"x_min":0,"x_max":0,"o":"m 365 220 b 335 94 367 169 357 127 b 252 26 313 61 285 39 b 162 24 220 15 190 14 b 108 93 134 35 116 58 b 134 238 99 128 108 176 b 188 336 149 271 168 304 b 252 428 209 368 231 399 b 309 511 273 458 292 486 b 367 625 333 549 352 587 b 386 728 381 663 388 697 b 347 803 385 760 371 785 b 302 690 343 770 328 732 b 206 555 275 648 243 603 b 98 402 168 505 132 454 b 24 245 64 349 39 297 b 24 106 10 189 10 143 b 92 23 38 69 60 41 b 192 -5 122 4 156 -5 b 290 20 227 -5 260 3 b 363 96 321 37 345 62 b 385 222 381 130 389 172 l 365 220 z m 349 848 b 387 873 366 848 379 856 b 390 927 394 890 395 908 b 353 958 385 945 373 956 b 318 932 336 958 325 949 b 316 880 312 916 311 898 b 349 848 321 862 332 852 z "},"À":{"ha":1066,"x_min":0,"x_max":0,"o":"m 13 61 b 70 9 26 37 45 20 b 159 1 94 -2 124 -5 b 309 89 205 10 256 39 b 469 273 361 138 414 199 b 625 500 522 345 574 421 b 707 480 652 494 680 487 b 711 479 708 479 709 479 b 793 459 740 471 767 465 b 772 237 780 380 773 306 b 802 68 772 168 781 112 b 907 -1 822 25 857 2 b 1032 77 956 -1 998 25 b 1043 97 1036 84 1040 90 b 1075 181 1057 123 1067 151 b 1090 271 1084 212 1088 242 l 1069 273 b 1055 186 1068 245 1063 216 b 1025 106 1047 158 1037 131 b 1015 88 1021 100 1017 94 b 964 39 999 64 983 48 b 911 39 945 29 928 29 b 874 119 892 52 880 79 b 876 264 869 159 869 208 b 902 446 881 321 890 382 b 966 477 932 447 954 458 l 956 488 b 905 467 944 475 927 469 b 979 796 931 593 956 703 b 1004 900 991 842 999 876 b 987 937 1006 916 1000 928 b 940 957 974 947 958 954 b 901 962 922 961 909 962 b 835 880 886 951 863 924 b 733 716 806 836 772 781 b 731 713 732 715 732 714 b 614 524 695 654 656 591 b 524 541 585 531 555 537 b 311 536 444 553 372 551 b 152 466 249 522 196 498 b 47 356 108 434 73 397 b -11 197 14 303 -5 250 b 13 61 -16 144 -9 98 z m 751 705 b 894 927 814 811 862 885 b 868 817 888 897 879 861 b 796 479 843 718 819 606 b 720 498 772 485 747 492 b 711 500 717 499 714 500 l 636 519 b 751 705 677 585 715 647 z m 521 521 b 603 505 549 517 576 511 b 451 283 553 428 503 354 b 297 106 399 213 347 154 b 155 21 246 58 199 30 b 54 46 109 14 75 22 b 28 144 34 70 25 102 b 69 277 31 185 45 230 b 170 409 94 325 127 368 b 323 503 213 450 264 481 b 521 521 382 524 448 530 z m 944 1006 b 950 1002 946 1004 948 1003 b 956 1002 953 1002 955 1001 b 966 1008 960 1004 963 1006 b 977 1018 970 1012 974 1015 b 972 1041 980 1021 978 1029 b 947 1081 966 1053 958 1066 b 918 1120 937 1096 927 1109 b 897 1140 909 1131 901 1138 b 883 1138 893 1141 888 1141 b 863 1118 871 1131 864 1124 b 863 1112 863 1116 863 1114 b 866 1106 864 1109 865 1107 b 904 1051 877 1088 890 1069 b 944 1006 918 1033 932 1018 z "},"Á":{"ha":1066,"x_min":0,"x_max":0,"o":"m 13 61 b 70 9 26 37 45 20 b 159 1 94 -2 124 -5 b 309 89 205 10 256 39 b 469 273 361 138 414 199 b 625 500 522 345 574 421 b 707 480 652 494 680 487 b 711 479 708 479 709 479 b 793 459 740 471 767 465 b 772 237 780 380 773 306 b 802 68 772 168 781 112 b 907 -1 822 25 857 2 b 1032 77 956 -1 998 25 b 1043 97 1036 84 1040 90 b 1075 181 1057 123 1067 151 b 1090 271 1084 212 1088 242 l 1069 273 b 1055 186 1068 245 1063 216 b 1025 106 1047 158 1037 131 b 1015 88 1021 100 1017 94 b 964 39 999 64 983 48 b 911 39 945 29 928 29 b 874 119 892 52 880 79 b 876 264 869 159 869 208 b 902 446 881 321 890 382 b 966 477 932 447 954 458 l 956 488 b 905 467 944 475 927 469 b 979 796 931 593 956 703 b 1004 900 991 842 999 876 b 987 937 1006 916 1000 928 b 940 957 974 947 958 954 b 901 962 922 961 909 962 b 835 880 886 951 863 924 b 733 716 806 836 772 781 b 731 713 732 715 732 714 b 614 524 695 654 656 591 b 524 541 585 531 555 537 b 311 536 444 553 372 551 b 152 466 249 522 196 498 b 47 356 108 434 73 397 b -11 197 14 303 -5 250 b 13 61 -16 144 -9 98 z m 751 705 b 894 927 814 811 862 885 b 868 817 888 897 879 861 b 796 479 843 718 819 606 b 720 498 772 485 747 492 b 711 500 717 499 714 500 l 636 519 b 751 705 677 585 715 647 z m 521 521 b 603 505 549 517 576 511 b 451 283 553 428 503 354 b 297 106 399 213 347 154 b 155 21 246 58 199 30 b 54 46 109 14 75 22 b 28 144 34 70 25 102 b 69 277 31 185 45 230 b 170 409 94 325 127 368 b 323 503 213 450 264 481 b 521 521 382 524 448 530 z m 939 1006 b 979 1051 951 1018 964 1033 b 1017 1106 994 1069 1006 1088 b 1020 1112 1019 1107 1019 1109 b 1020 1118 1021 1114 1021 1116 b 1000 1138 1019 1124 1013 1131 b 986 1140 995 1141 990 1141 b 965 1120 981 1138 975 1131 b 936 1081 956 1109 946 1096 b 911 1041 926 1066 918 1053 b 905 1018 905 1029 903 1021 b 916 1008 909 1015 913 1012 b 927 1002 920 1006 924 1004 b 933 1002 928 1001 930 1002 b 939 1006 935 1003 937 1004 z "},"Â":{"ha":1066,"x_min":0,"x_max":0,"o":"m 13 61 b 70 9 26 37 45 20 b 159 1 94 -2 124 -5 b 309 89 205 10 256 39 b 469 273 361 138 414 199 b 625 500 522 345 574 421 b 707 480 652 494 680 487 b 711 479 708 479 709 479 b 793 459 740 471 767 465 b 772 237 780 380 773 306 b 802 68 772 168 781 112 b 907 -1 822 25 857 2 b 1032 77 956 -1 998 25 b 1043 97 1036 84 1040 90 b 1075 181 1057 123 1067 151 b 1090 271 1084 212 1088 242 l 1069 273 b 1055 186 1068 245 1063 216 b 1025 106 1047 158 1037 131 b 1015 88 1021 100 1017 94 b 964 39 999 64 983 48 b 911 39 945 29 928 29 b 874 119 892 52 880 79 b 876 264 869 159 869 208 b 902 446 881 321 890 382 b 966 477 932 447 954 458 l 956 488 b 905 467 944 475 927 469 b 979 796 931 593 956 703 b 1004 900 991 842 999 876 b 987 937 1006 916 1000 928 b 940 957 974 947 958 954 b 901 962 922 961 909 962 b 835 880 886 951 863 924 b 733 716 806 836 772 781 b 731 713 732 715 732 714 b 614 524 695 654 656 591 b 524 541 585 531 555 537 b 311 536 444 553 372 551 b 152 466 249 522 196 498 b 47 356 108 434 73 397 b -11 197 14 303 -5 250 b 13 61 -16 144 -9 98 z m 751 705 b 894 927 814 811 862 885 b 868 817 888 897 879 861 b 796 479 843 718 819 606 b 720 498 772 485 747 492 b 711 500 717 499 714 500 l 636 519 b 751 705 677 585 715 647 z m 521 521 b 603 505 549 517 576 511 b 451 283 553 428 503 354 b 297 106 399 213 347 154 b 155 21 246 58 199 30 b 54 46 109 14 75 22 b 28 144 34 70 25 102 b 69 277 31 185 45 230 b 170 409 94 325 127 368 b 323 503 213 450 264 481 b 521 521 382 524 448 530 z m 915 1008 b 927 1040 919 1017 923 1028 b 939 1074 930 1051 935 1062 b 941 1076 940 1076 941 1077 b 943 1073 941 1076 942 1075 b 950 1056 944 1069 947 1064 b 963 1030 954 1048 958 1039 b 977 1006 968 1021 972 1013 b 984 1006 978 1005 980 1004 b 996 1010 987 1006 991 1008 b 1006 1018 1000 1013 1004 1015 b 1010 1026 1010 1021 1011 1023 b 962 1137 1001 1065 985 1101 b 942 1144 958 1142 951 1144 b 920 1137 932 1143 925 1141 b 904 1106 916 1131 910 1121 b 886 1060 897 1092 892 1076 b 876 1021 881 1044 878 1031 b 884 1009 876 1016 878 1012 b 903 1004 890 1006 896 1004 b 915 1008 909 1004 913 1005 z "},"Ã":{"ha":1066,"x_min":0,"x_max":0,"o":"m 13 61 b 70 9 26 37 45 20 b 159 1 94 -2 124 -5 b 309 89 205 10 256 39 b 469 273 361 138 414 199 b 625 500 522 345 574 421 b 707 480 652 494 680 487 b 711 479 708 479 709 479 b 793 459 740 471 767 465 b 772 237 780 380 773 306 b 802 68 772 168 781 112 b 907 -1 822 25 857 2 b 1032 77 956 -1 998 25 b 1043 97 1036 84 1040 90 b 1075 181 1057 123 1067 151 b 1090 271 1084 212 1088 242 l 1069 273 b 1055 186 1068 245 1063 216 b 1025 106 1047 158 1037 131 b 1015 88 1021 100 1017 94 b 964 39 999 64 983 48 b 911 39 945 29 928 29 b 874 119 892 52 880 79 b 876 264 869 159 869 208 b 902 446 881 321 890 382 b 966 477 932 447 954 458 l 956 488 b 905 467 944 475 927 469 b 979 796 931 593 956 703 b 1004 900 991 842 999 876 b 987 937 1006 916 1000 928 b 940 957 974 947 958 954 b 901 962 922 961 909 962 b 835 880 886 951 863 924 b 733 716 806 836 772 781 b 731 713 732 715 732 714 b 614 524 695 654 656 591 b 524 541 585 531 555 537 b 311 536 444 553 372 551 b 152 466 249 522 196 498 b 47 356 108 434 73 397 b -11 197 14 303 -5 250 b 13 61 -16 144 -9 98 z m 751 705 b 894 927 814 811 862 885 b 868 817 888 897 879 861 b 796 479 843 718 819 606 b 720 498 772 485 747 492 b 711 500 717 499 714 500 l 636 519 b 751 705 677 585 715 647 z m 521 521 b 603 505 549 517 576 511 b 451 283 553 428 503 354 b 297 106 399 213 347 154 b 155 21 246 58 199 30 b 54 46 109 14 75 22 b 28 144 34 70 25 102 b 69 277 31 185 45 230 b 170 409 94 325 127 368 b 323 503 213 450 264 481 b 521 521 382 524 448 530 z m 852 1031 l 859 1026 b 887 1037 866 1036 876 1040 b 927 1021 899 1034 913 1029 b 968 1005 941 1015 955 1009 b 1006 1006 982 1001 995 1002 b 1035 1047 1018 1012 1027 1025 l 1027 1053 b 999 1042 1021 1042 1011 1039 b 959 1057 987 1044 974 1050 b 918 1074 945 1064 932 1070 b 880 1072 905 1078 892 1078 b 852 1031 869 1067 859 1053 z "},"Ä":{"ha":1066,"x_min":0,"x_max":0,"o":"m 13 61 b 70 9 26 37 45 20 b 159 1 94 -2 124 -5 b 309 89 205 10 256 39 b 469 273 361 138 414 199 b 625 500 522 345 574 421 b 707 480 652 494 680 487 b 711 479 708 479 709 479 b 793 459 740 471 767 465 b 772 237 780 380 773 306 b 802 68 772 168 781 112 b 907 -1 822 25 857 2 b 1032 77 956 -1 998 25 b 1043 97 1036 84 1040 90 b 1075 181 1057 123 1067 151 b 1090 271 1084 212 1088 242 l 1069 273 b 1055 186 1068 245 1063 216 b 1025 106 1047 158 1037 131 b 1015 88 1021 100 1017 94 b 964 39 999 64 983 48 b 911 39 945 29 928 29 b 874 119 892 52 880 79 b 876 264 869 159 869 208 b 902 446 881 321 890 382 b 966 477 932 447 954 458 l 956 488 b 905 467 944 475 927 469 b 979 796 931 593 956 703 b 1004 900 991 842 999 876 b 987 937 1006 916 1000 928 b 940 957 974 947 958 954 b 901 962 922 961 909 962 b 835 880 886 951 863 924 b 733 716 806 836 772 781 b 731 713 732 715 732 714 b 614 524 695 654 656 591 b 524 541 585 531 555 537 b 311 536 444 553 372 551 b 152 466 249 522 196 498 b 47 356 108 434 73 397 b -11 197 14 303 -5 250 b 13 61 -16 144 -9 98 z m 751 705 b 894 927 814 811 862 885 b 868 817 888 897 879 861 b 796 479 843 718 819 606 b 720 498 772 485 747 492 b 711 500 717 499 714 500 l 636 519 b 751 705 677 585 715 647 z m 521 521 b 603 505 549 517 576 511 b 451 283 553 428 503 354 b 297 106 399 213 347 154 b 155 21 246 58 199 30 b 54 46 109 14 75 22 b 28 144 34 70 25 102 b 69 277 31 185 45 230 b 170 409 94 325 127 368 b 323 503 213 450 264 481 b 521 521 382 524 448 530 z m 890 1000 b 923 1022 905 1000 916 1007 b 926 1069 929 1037 930 1053 b 894 1096 922 1084 911 1094 b 863 1074 879 1095 869 1088 b 861 1028 858 1059 857 1044 b 890 1000 865 1013 875 1003 z m 975 1000 b 1008 1022 991 1000 1002 1007 b 1012 1069 1015 1037 1016 1053 b 979 1096 1007 1084 996 1094 b 949 1074 965 1095 955 1088 b 947 1028 943 1059 943 1044 b 975 1000 951 1013 960 1003 z "},"Å":{"ha":1066,"x_min":0,"x_max":0,"o":"m 751 705 b 894 927 814 811 862 885 b 868 817 888 897 879 861 b 796 479 843 718 819 606 b 720 498 772 485 747 492 b 711 500 717 499 714 500 l 636 519 b 751 705 677 585 715 647 z m 521 521 b 603 505 549 517 576 511 b 451 283 553 428 503 354 b 297 106 399 213 347 154 b 155 21 246 58 199 30 b 54 46 109 14 75 22 b 28 144 34 70 25 102 b 69 277 31 185 45 230 b 170 409 94 325 127 368 b 323 503 213 450 264 481 b 521 521 382 524 448 530 z m 936 1018 b 949 1048 936 1029 940 1040 b 980 1061 958 1057 968 1061 b 1010 1048 991 1061 1002 1057 b 1023 1018 1019 1040 1023 1029 b 1011 987 1023 1006 1019 996 b 980 974 1002 978 992 974 b 949 987 967 974 957 978 b 936 1018 940 996 936 1006 z m 983 940 b 1036 962 1004 941 1021 948 b 1058 1018 1050 977 1058 996 b 1036 1073 1058 1040 1050 1058 b 980 1095 1021 1088 1002 1095 b 925 1073 958 1095 940 1088 b 903 1018 910 1058 903 1040 b 925 962 903 996 910 977 l 928 959 b 901 962 916 961 907 962 b 835 880 886 951 864 924 b 733 716 806 836 772 781 b 731 713 732 715 732 714 b 614 524 695 654 656 591 b 524 541 585 531 555 536 b 311 536 444 553 372 551 b 152 466 249 522 196 498 b 47 356 108 434 73 397 b -11 197 14 303 -5 250 b 13 61 -16 144 -8 98 b 70 9 26 37 45 20 b 159 1 94 -3 124 -5 b 309 90 205 10 256 40 b 469 273 361 139 415 200 b 625 500 522 345 574 421 b 707 480 652 494 680 487 b 711 479 708 479 709 479 b 793 459 740 471 767 465 b 772 237 780 380 773 306 b 802 68 772 168 781 112 b 907 -1 822 25 857 2 b 1032 77 956 -1 998 25 b 1043 97 1036 84 1040 91 b 1075 181 1056 123 1067 151 b 1090 271 1084 212 1088 242 l 1069 273 b 1055 186 1067 245 1063 216 b 1025 106 1047 157 1037 131 b 1015 88 1021 100 1018 94 b 964 39 999 64 982 48 b 911 39 945 29 928 29 b 874 119 892 52 879 79 b 876 264 869 159 869 208 b 902 446 881 321 890 382 b 966 477 932 447 954 458 l 956 488 b 905 467 944 475 927 469 b 979 796 931 593 956 703 b 1004 900 991 842 999 876 b 987 938 1006 916 1000 928 b 983 940 986 939 985 939 z "},"Æ":{"ha":1550,"x_min":0,"x_max":0,"o":"m 935 264 b 943 454 920 328 922 391 b 1058 616 964 518 1002 572 b 1272 688 1113 660 1184 684 l 1273 685 b 1322 628 1285 663 1302 644 b 1345 616 1329 623 1337 619 b 1371 617 1354 614 1363 614 b 1382 629 1376 620 1380 624 b 1382 650 1385 636 1385 643 b 1371 667 1379 656 1375 662 b 1343 690 1362 676 1354 684 b 1291 712 1329 699 1311 707 l 1280 717 b 1293 788 1272 737 1276 761 b 1355 791 1314 789 1335 789 b 1491 827 1409 795 1455 807 b 1527 852 1503 833 1515 841 b 1552 887 1538 863 1546 874 b 1546 935 1558 906 1556 922 b 1505 966 1536 947 1522 958 b 1456 981 1487 973 1471 979 b 1331 974 1412 990 1371 987 b 1236 909 1291 960 1260 939 b 1204 810 1212 880 1201 847 b 1135 810 1183 811 1160 810 b 1072 807 1110 809 1089 808 b 1072 795 1072 803 1072 799 b 1072 788 1072 793 1072 791 b 1208 789 1118 791 1164 791 b 1246 722 1214 767 1227 745 b 1091 710 1189 725 1137 721 b 964 657 1042 699 1000 681 b 989 765 972 695 981 731 b 1019 900 1002 818 1012 863 b 1002 937 1022 916 1016 928 b 956 957 989 947 973 954 b 916 962 938 961 924 962 b 850 880 901 951 879 924 b 749 716 822 836 788 781 b 745 710 747 714 746 712 b 630 524 709 651 671 589 b 540 541 601 531 570 537 b 326 536 459 553 388 551 b 168 466 264 522 212 498 b 62 356 123 434 89 397 b 5 197 30 303 11 250 b 28 61 -1 144 7 98 b 85 9 42 37 61 20 b 174 1 110 -2 140 -5 b 324 89 221 10 271 39 b 484 273 377 138 430 199 b 640 500 538 345 590 421 b 722 480 668 494 695 487 b 808 459 752 472 781 465 b 788 237 795 380 789 306 b 817 68 787 168 797 112 b 922 -1 838 25 873 2 l 924 -1 b 895 117 908 31 899 71 b 1023 33 928 82 971 54 b 1206 -1 1075 12 1136 0 b 1438 68 1294 -1 1372 22 b 1575 267 1505 115 1550 181 l 1554 273 b 1464 117 1536 208 1506 156 b 1320 43 1422 79 1374 55 b 1160 44 1266 31 1213 31 b 1019 119 1106 58 1059 82 b 935 264 978 156 950 205 z m 1462 937 b 1527 933 1493 947 1514 945 b 1534 899 1537 922 1540 911 b 1509 865 1529 886 1520 876 b 1481 845 1497 855 1488 848 b 1354 811 1447 827 1404 816 b 1308 809 1339 810 1324 810 b 1388 889 1331 839 1358 865 b 1462 937 1418 913 1443 929 z m 171 21 b 70 46 124 14 90 22 b 44 144 50 70 41 102 b 85 277 47 185 60 230 b 185 409 109 325 142 368 b 338 503 229 450 279 481 b 536 521 397 524 464 530 b 618 505 564 517 591 511 b 467 283 569 428 519 354 b 313 106 414 213 363 154 b 171 21 262 58 215 30 z m 812 479 b 727 500 785 486 757 493 l 652 519 b 766 705 693 585 731 647 b 909 927 830 811 878 885 b 884 817 903 897 895 861 b 812 479 859 718 835 605 z "},"Ç":{"ha":538,"x_min":0,"x_max":0,"o":"m 287 786 b 315 743 297 772 307 758 l 334 753 b 298 805 323 771 311 789 b 363 884 319 838 341 864 b 432 924 386 905 409 918 b 500 903 463 930 486 922 b 511 827 513 882 517 857 b 418 668 496 764 465 711 b 260 570 372 625 319 592 b 186 547 236 560 212 553 b 287 786 212 637 245 718 z m 32 928 b 205 867 92 924 150 903 b 91 720 161 827 122 777 b 18 536 59 663 35 602 l 7 538 b -134 589 -54 547 -100 564 b -206 692 -174 618 -197 653 b -194 808 -215 732 -211 770 b -110 899 -177 845 -149 876 b 32 928 -71 922 -24 932 z m 277 -1 l 296 -1 b 399 28 335 0 369 9 b 483 101 430 45 458 70 b 541 194 507 132 527 163 b 565 273 555 225 563 252 l 565 274 l 551 274 l 544 275 l 544 274 b 522 201 542 254 534 230 b 467 115 508 172 490 143 b 380 43 438 81 410 57 b 296 27 351 28 323 24 b 180 114 241 35 203 64 b 147 298 156 163 145 225 b 180 524 149 370 160 446 b 268 550 210 530 239 539 b 436 654 331 574 387 609 b 532 823 484 700 516 755 b 519 925 541 865 537 900 b 426 962 501 950 470 963 b 222 882 349 959 281 932 b 192 903 212 889 202 896 b 9 962 132 941 71 962 b -132 933 -47 962 -95 951 b -218 859 -170 914 -199 890 b -248 766 -237 830 -246 799 b -227 668 -249 732 -242 700 b -143 572 -210 631 -182 599 b 4 517 -104 544 -55 526 l 13 516 b -5 327 -1 452 -7 389 b 32 160 -3 265 9 210 b 130 41 54 110 86 71 b 255 1 164 18 206 5 b 248 -41 239 -28 237 -42 b 259 -40 252 -40 256 -40 b 290 -45 272 -40 282 -41 b 306 -65 300 -49 306 -56 b 297 -85 306 -74 303 -81 b 267 -92 291 -90 281 -92 b 220 -76 254 -92 238 -87 b 213 -89 210 -69 207 -73 b 230 -106 214 -94 220 -99 b 279 -116 240 -113 256 -116 b 329 -102 300 -116 317 -111 b 347 -64 341 -93 347 -80 b 332 -29 347 -50 342 -38 b 290 -16 322 -20 309 -16 b 271 -18 284 -17 278 -18 z "},"È":{"ha":900,"x_min":0,"x_max":0,"o":"m 83 385 l 90 393 b 44 513 56 428 41 468 b 90 642 47 558 62 601 b 194 735 117 682 152 713 b 372 784 250 762 309 778 b 559 789 436 790 498 792 b 597 722 565 767 578 745 b 442 710 540 725 488 721 b 245 600 359 689 293 652 b 156 420 197 547 168 487 b 176 224 144 353 151 288 b 309 66 201 160 245 108 b 557 -1 372 24 455 1 b 789 68 645 -1 722 22 b 926 267 856 115 901 181 l 905 273 b 814 117 887 208 857 155 b 671 43 772 79 725 54 b 510 44 617 31 564 31 b 370 119 457 58 410 82 b 285 264 329 156 301 204 b 294 454 270 328 273 391 b 408 616 315 518 353 572 b 622 688 464 660 535 684 l 624 685 b 673 628 636 663 652 644 b 696 616 680 623 688 619 b 722 617 705 614 713 614 b 733 629 727 620 730 624 b 732 650 735 636 735 643 b 722 667 730 656 726 662 b 694 690 713 676 705 684 b 641 712 680 699 662 707 l 631 717 b 644 788 623 737 627 761 b 705 791 665 788 686 789 b 842 826 760 795 805 807 b 878 852 854 833 866 841 b 903 887 889 863 897 874 b 897 935 909 906 907 922 b 855 966 887 947 873 958 b 806 981 838 973 822 979 b 682 974 763 990 722 987 b 587 909 642 960 610 939 b 555 810 562 880 552 847 b 507 812 539 810 523 811 b 336 812 450 815 393 815 b 170 775 279 809 224 797 b 64 699 127 757 92 731 b 7 591 36 665 16 629 b 9 477 -3 551 -3 514 b 83 385 21 441 45 410 z m 813 937 b 878 933 844 947 865 945 b 885 899 888 922 890 911 b 859 865 880 886 871 876 b 832 845 848 855 839 848 b 704 811 798 827 755 815 b 659 809 690 810 674 810 b 739 889 682 839 709 865 b 813 937 769 913 794 929 z m 758 1006 b 764 1002 760 1004 762 1003 b 770 1002 767 1002 769 1001 b 781 1008 774 1004 777 1006 b 792 1018 785 1012 789 1015 b 786 1041 794 1021 792 1029 b 762 1081 780 1053 772 1066 b 732 1120 751 1096 742 1109 b 711 1140 723 1131 715 1138 b 697 1138 707 1141 703 1141 b 677 1118 685 1131 678 1124 b 677 1112 677 1116 677 1114 b 680 1106 678 1109 679 1107 b 718 1051 691 1088 704 1069 b 758 1006 733 1033 746 1018 z "},"É":{"ha":900,"x_min":0,"x_max":0,"o":"m 83 385 l 90 393 b 44 513 56 428 41 468 b 90 642 47 558 62 601 b 194 735 117 682 152 713 b 372 784 250 762 309 778 b 559 789 436 790 498 792 b 597 722 565 767 578 745 b 442 710 540 725 488 721 b 245 600 359 689 293 652 b 156 420 197 547 168 487 b 176 224 144 353 151 288 b 309 66 201 160 245 108 b 557 -1 372 24 455 1 b 789 68 645 -1 722 22 b 926 267 856 115 901 181 l 905 273 b 814 117 887 208 857 155 b 671 43 772 79 725 54 b 510 44 617 31 564 31 b 370 119 457 58 410 82 b 285 264 329 156 301 204 b 294 454 270 328 273 391 b 408 616 315 518 353 572 b 622 688 464 660 535 684 l 624 685 b 673 628 636 663 652 644 b 696 616 680 623 688 619 b 722 617 705 614 713 614 b 733 629 727 620 730 624 b 732 650 735 636 735 643 b 722 667 730 656 726 662 b 694 690 713 676 705 684 b 641 712 680 699 662 707 l 631 717 b 644 788 623 737 627 761 b 705 791 665 788 686 789 b 842 826 760 795 805 807 b 878 852 854 833 866 841 b 903 887 889 863 897 874 b 897 935 909 906 907 922 b 855 966 887 947 873 958 b 806 981 838 973 822 979 b 682 974 763 990 722 987 b 587 909 642 960 610 939 b 555 810 562 880 552 847 b 507 812 539 810 523 811 b 336 812 450 815 393 815 b 170 775 279 809 224 797 b 64 699 127 757 92 731 b 7 591 36 665 16 629 b 9 477 -3 551 -3 514 b 83 385 21 441 45 410 z m 813 937 b 878 933 844 947 865 945 b 885 899 888 922 890 911 b 859 865 880 886 871 876 b 832 845 848 855 839 848 b 704 811 798 827 755 815 b 659 809 690 810 674 810 b 739 889 682 839 709 865 b 813 937 769 913 794 929 z m 775 1006 b 815 1051 787 1018 801 1033 b 853 1106 829 1069 842 1088 b 856 1112 854 1107 855 1109 b 856 1118 857 1114 857 1116 b 836 1138 855 1124 848 1131 b 822 1140 831 1141 826 1141 b 801 1120 818 1138 810 1131 b 772 1081 791 1109 782 1096 b 747 1041 762 1066 753 1053 b 741 1018 741 1029 739 1021 b 752 1008 745 1015 749 1012 b 763 1002 756 1006 760 1004 b 769 1002 764 1001 766 1002 b 775 1006 771 1003 773 1004 z "},"Ê":{"ha":900,"x_min":0,"x_max":0,"o":"m 83 385 l 90 393 b 44 513 56 428 41 468 b 90 642 47 558 62 601 b 194 735 117 682 152 713 b 372 784 250 762 309 778 b 559 789 436 790 498 792 b 597 722 565 767 578 745 b 442 710 540 725 488 721 b 245 600 359 689 293 652 b 156 420 197 547 168 487 b 176 224 144 353 151 288 b 309 66 201 160 245 108 b 557 -1 372 24 455 1 b 789 68 645 -1 722 22 b 926 267 856 115 901 181 l 905 273 b 814 117 887 208 857 155 b 671 43 772 79 725 54 b 510 44 617 31 564 31 b 370 119 457 58 410 82 b 285 264 329 156 301 204 b 294 454 270 328 273 391 b 408 616 315 518 353 572 b 622 688 464 660 535 684 l 624 685 b 673 628 636 663 652 644 b 696 616 680 623 688 619 b 722 617 705 614 713 614 b 733 629 727 620 730 624 b 732 650 735 636 735 643 b 722 667 730 656 726 662 b 694 690 713 676 705 684 b 641 712 680 699 662 707 l 631 717 b 644 788 623 737 627 761 b 705 791 665 788 686 789 b 842 826 760 795 805 807 b 878 852 854 833 866 841 b 903 887 889 863 897 874 b 897 935 909 906 907 922 b 855 966 887 947 873 958 b 806 981 838 973 822 979 b 682 974 763 990 722 987 b 587 909 642 960 610 939 b 555 810 562 880 552 847 b 507 812 539 810 523 811 b 336 812 450 815 393 815 b 170 775 279 809 224 797 b 64 699 127 757 92 731 b 7 591 36 665 16 629 b 9 477 -3 551 -3 514 b 83 385 21 441 45 410 z m 813 937 b 878 933 844 947 865 945 b 885 899 888 922 890 911 b 859 865 880 886 871 876 b 832 845 848 855 839 848 b 704 811 798 827 755 815 b 659 809 690 810 674 810 b 739 889 682 839 709 865 b 813 937 769 913 794 929 z m 739 1008 b 751 1040 743 1017 747 1028 b 764 1074 755 1051 759 1062 b 766 1076 764 1076 765 1077 b 767 1073 766 1076 766 1075 b 775 1056 768 1069 771 1064 b 787 1030 779 1048 783 1039 b 801 1006 792 1021 797 1013 b 808 1006 802 1005 805 1004 b 821 1010 812 1006 816 1008 b 831 1018 825 1013 828 1015 b 835 1026 834 1021 836 1023 b 787 1137 825 1065 810 1101 b 766 1144 783 1142 776 1144 b 745 1137 757 1143 750 1141 b 728 1106 740 1131 734 1121 b 711 1060 722 1092 716 1076 b 701 1021 705 1044 702 1031 b 709 1009 700 1016 703 1012 b 727 1004 715 1006 721 1004 b 739 1008 734 1004 738 1005 z "},"Ë":{"ha":900,"x_min":0,"x_max":0,"o":"m 83 385 l 90 393 b 44 513 56 428 41 468 b 90 642 47 558 62 601 b 194 735 117 682 152 713 b 372 784 250 762 309 778 b 559 789 436 790 498 792 b 597 722 565 767 578 745 b 442 710 540 725 488 721 b 245 600 359 689 293 652 b 156 420 197 547 168 487 b 176 224 144 353 151 288 b 309 66 201 160 245 108 b 557 -1 372 24 455 1 b 789 68 645 -1 722 22 b 926 267 856 115 901 181 l 905 273 b 814 117 887 208 857 155 b 671 43 772 79 725 54 b 510 44 617 31 564 31 b 370 119 457 58 410 82 b 285 264 329 156 301 204 b 294 454 270 328 273 391 b 408 616 315 518 353 572 b 622 688 464 660 535 684 l 624 685 b 673 628 636 663 652 644 b 696 616 680 623 688 619 b 722 617 705 614 713 614 b 733 629 727 620 730 624 b 732 650 735 636 735 643 b 722 667 730 656 726 662 b 694 690 713 676 705 684 b 641 712 680 699 662 707 l 631 717 b 644 788 623 737 627 761 b 705 791 665 788 686 789 b 842 826 760 795 805 807 b 878 852 854 833 866 841 b 903 887 889 863 897 874 b 897 935 909 906 907 922 b 855 966 887 947 873 958 b 806 981 838 973 822 979 b 682 974 763 990 722 987 b 587 909 642 960 610 939 b 555 810 562 880 552 847 b 507 812 539 810 523 811 b 336 812 450 815 393 815 b 170 775 279 809 224 797 b 64 699 127 757 92 731 b 7 591 36 665 16 629 b 9 477 -3 551 -3 514 b 83 385 21 441 45 410 z m 813 937 b 878 933 844 947 865 945 b 885 899 888 922 890 911 b 859 865 880 886 871 876 b 832 845 848 855 839 848 b 704 811 798 827 755 815 b 659 809 690 810 674 810 b 739 889 682 839 709 865 b 813 937 769 913 794 929 z m 728 1000 b 762 1022 744 1000 755 1007 b 765 1069 768 1037 769 1053 b 732 1096 760 1084 749 1094 b 702 1074 718 1095 708 1088 b 700 1028 696 1059 696 1044 b 728 1000 704 1013 713 1003 z m 814 1000 b 847 1022 829 1000 840 1007 b 850 1069 854 1037 854 1053 b 818 1096 846 1084 836 1094 b 788 1074 804 1095 793 1088 b 785 1028 782 1059 781 1044 b 814 1000 790 1013 799 1003 z "},"Ì":{"ha":776,"x_min":0,"x_max":0,"o":"m 189 298 b 307 406 232 324 271 360 b 395 540 344 452 373 497 b 485 782 444 635 474 716 b 473 938 495 848 492 900 b 464 956 471 944 467 950 b 534 983 487 968 511 977 b 587 972 557 987 575 983 b 595 896 600 960 603 934 b 570 787 587 859 578 823 b 511 514 548 696 528 606 b 485 329 498 451 490 389 b 486 166 479 269 480 215 b 524 49 491 117 504 78 b 616 3 545 20 575 4 b 741 81 665 3 707 28 b 752 100 745 87 749 94 b 784 184 766 126 776 154 b 800 275 793 216 798 245 l 779 277 b 764 190 777 248 772 220 b 733 110 756 161 746 134 b 724 92 730 103 726 97 b 673 42 708 68 692 52 b 621 42 654 33 637 33 b 581 148 597 58 584 94 b 593 340 578 201 582 266 b 634 565 604 414 617 489 b 682 772 650 642 667 710 l 683 774 l 687 789 b 673 958 703 866 699 922 b 557 1012 648 995 609 1013 b 439 985 517 1010 477 1002 b 401 1010 428 996 415 1004 b 294 1019 369 1023 334 1026 b 136 941 241 1010 189 984 b 4 769 83 899 39 842 l 23 760 b 149 924 57 829 98 884 b 298 998 198 965 248 989 b 393 991 333 1004 365 1002 b 418 976 401 987 410 982 l 406 970 b 224 833 342 937 282 892 b 78 644 168 775 119 712 b 2 450 38 576 13 512 b 12 334 -5 405 -2 366 b 77 274 24 302 46 282 b 189 298 107 265 144 273 z m 37 435 b 127 606 54 486 84 544 b 270 787 169 669 217 730 b 424 930 323 845 374 892 b 446 945 431 935 438 941 b 454 929 449 940 452 935 b 463 782 471 894 474 845 b 376 549 453 719 424 642 b 287 414 354 506 324 461 b 165 309 249 367 209 332 b 80 296 132 293 103 289 b 33 345 57 304 41 320 b 37 435 25 370 26 399 z m 660 1049 b 667 1045 662 1047 664 1046 b 673 1045 669 1044 671 1044 b 683 1051 675 1046 679 1048 b 694 1061 686 1055 690 1057 b 688 1084 696 1064 694 1072 b 663 1124 682 1095 673 1109 b 634 1163 653 1139 644 1152 b 613 1183 625 1174 618 1181 b 600 1181 609 1184 604 1183 b 579 1161 587 1173 580 1166 b 579 1154 578 1159 578 1157 b 582 1149 580 1152 581 1149 b 620 1094 593 1131 606 1112 b 660 1049 635 1076 648 1061 z "},"Í":{"ha":776,"x_min":0,"x_max":0,"o":"m 189 298 b 307 406 232 324 271 360 b 395 540 344 452 373 497 b 485 782 444 635 474 716 b 473 938 495 848 492 900 b 464 956 471 944 467 950 b 534 983 487 968 511 977 b 587 972 557 987 575 983 b 595 896 600 960 603 934 b 570 787 587 859 578 823 b 511 514 548 696 528 606 b 485 329 498 451 490 389 b 486 166 479 269 480 215 b 524 49 491 117 504 78 b 616 3 545 20 575 4 b 741 81 665 3 707 28 b 752 100 745 87 749 94 b 784 184 766 126 776 154 b 800 275 793 216 798 245 l 779 277 b 764 190 777 248 772 220 b 733 110 756 161 746 134 b 724 92 730 103 726 97 b 673 42 708 68 692 52 b 621 42 654 33 637 33 b 581 148 597 58 584 94 b 593 340 578 201 582 266 b 634 565 604 414 617 489 b 682 772 650 642 667 710 l 683 774 l 687 789 b 673 958 703 866 699 922 b 557 1012 648 995 609 1013 b 439 985 517 1010 477 1002 b 401 1010 428 996 415 1004 b 294 1019 369 1023 334 1026 b 136 941 241 1010 189 984 b 4 769 83 899 39 842 l 23 760 b 149 924 57 829 98 884 b 298 998 198 965 248 989 b 393 991 333 1004 365 1002 b 418 976 401 987 410 982 l 406 970 b 224 833 342 937 282 892 b 78 644 168 775 119 712 b 2 450 38 576 13 512 b 12 334 -5 405 -2 366 b 77 274 24 302 46 282 b 189 298 107 265 144 273 z m 37 435 b 127 606 54 486 84 544 b 270 787 169 669 217 730 b 424 930 323 845 374 892 b 446 945 431 935 438 941 b 454 929 449 940 452 935 b 463 782 471 894 474 845 b 376 549 453 719 424 642 b 287 414 354 506 324 461 b 165 309 249 367 209 332 b 80 296 132 293 103 289 b 33 345 57 304 41 320 b 37 435 25 370 26 399 z m 655 1048 b 695 1093 667 1060 681 1075 b 734 1148 709 1112 722 1130 b 736 1154 734 1149 735 1151 b 736 1160 736 1156 736 1158 b 716 1180 735 1166 728 1173 b 702 1182 711 1183 706 1183 b 682 1162 698 1180 691 1173 b 652 1123 672 1151 662 1138 b 627 1083 642 1108 633 1095 b 622 1060 621 1071 619 1063 b 633 1050 625 1057 629 1054 b 643 1044 636 1048 640 1046 b 649 1044 644 1043 646 1044 b 655 1048 651 1045 653 1046 z "},"Î":{"ha":776,"x_min":0,"x_max":0,"o":"m 189 298 b 307 406 232 324 271 360 b 395 540 344 452 373 497 b 485 782 444 635 474 716 b 473 938 495 848 492 900 b 464 956 471 944 467 950 b 534 983 487 968 511 977 b 587 972 557 987 575 983 b 595 896 600 960 603 934 b 570 787 587 859 578 823 b 511 514 548 696 528 606 b 485 329 498 451 490 389 b 486 166 479 269 480 215 b 524 49 491 117 504 78 b 616 3 545 20 575 4 b 741 81 665 3 707 28 b 752 100 745 87 749 94 b 784 184 766 126 776 154 b 800 275 793 216 798 245 l 779 277 b 764 190 777 248 772 220 b 733 110 756 161 746 134 b 724 92 730 103 726 97 b 673 42 708 68 692 52 b 621 42 654 33 637 33 b 581 148 597 58 584 94 b 593 340 578 201 582 266 b 634 565 604 414 617 489 b 682 772 650 642 667 710 l 683 774 l 687 789 b 673 958 703 866 699 922 b 557 1012 648 995 609 1013 b 439 985 517 1010 477 1002 b 401 1010 428 996 415 1004 b 294 1019 369 1023 334 1026 b 136 941 241 1010 189 984 b 4 769 83 899 39 842 l 23 760 b 149 924 57 829 98 884 b 298 998 198 965 248 989 b 393 991 333 1004 365 1002 b 418 976 401 987 410 982 l 406 970 b 224 833 342 937 282 892 b 78 644 168 775 119 712 b 2 450 38 576 13 512 b 12 334 -5 405 -2 366 b 77 274 24 302 46 282 b 189 298 107 265 144 273 z m 37 435 b 127 606 54 486 84 544 b 270 787 169 669 217 730 b 424 930 323 845 374 892 b 446 945 431 935 438 941 b 454 929 449 940 452 935 b 463 782 471 894 474 845 b 376 549 453 719 424 642 b 287 414 354 506 324 461 b 165 309 249 367 209 332 b 80 296 132 293 103 289 b 33 345 57 304 41 320 b 37 435 25 370 26 399 z m 627 1053 b 639 1086 631 1063 635 1074 b 651 1119 642 1097 646 1107 b 653 1122 652 1121 652 1122 b 654 1118 654 1121 654 1120 b 663 1101 656 1115 659 1109 b 675 1076 666 1093 671 1084 b 688 1052 680 1066 684 1059 b 696 1051 690 1050 692 1050 b 708 1056 700 1052 703 1053 b 719 1063 712 1058 715 1061 b 722 1072 722 1066 723 1069 b 674 1182 713 1110 697 1147 b 654 1190 670 1187 663 1190 b 632 1182 644 1189 637 1187 b 616 1152 627 1177 622 1166 b 598 1105 609 1137 604 1122 b 588 1067 593 1089 589 1076 b 596 1055 587 1061 590 1057 b 614 1049 602 1051 608 1050 b 627 1053 621 1049 625 1050 z "},"Ï":{"ha":776,"x_min":0,"x_max":0,"o":"m 189 298 b 307 406 232 324 271 360 b 395 540 344 452 373 497 b 485 782 444 635 474 716 b 473 938 495 848 492 900 b 464 956 471 944 467 950 b 534 983 487 968 511 977 b 587 972 557 987 575 983 b 595 896 600 960 603 934 b 570 787 587 859 578 823 b 511 514 548 696 528 606 b 485 329 498 451 490 389 b 486 166 479 269 480 215 b 524 49 491 117 504 78 b 616 3 545 20 575 4 b 741 81 665 3 707 28 b 752 100 745 87 749 94 b 784 184 766 126 776 154 b 800 275 793 216 798 245 l 779 277 b 764 190 777 248 772 220 b 733 110 756 161 746 134 b 724 92 730 103 726 97 b 673 42 708 68 692 52 b 621 42 654 33 637 33 b 581 148 597 58 584 94 b 593 340 578 201 582 266 b 634 565 604 414 617 489 b 682 772 650 642 667 710 l 683 774 l 687 789 b 673 958 703 866 699 922 b 557 1012 648 995 609 1013 b 439 985 517 1010 477 1002 b 401 1010 428 996 415 1004 b 294 1019 369 1023 334 1026 b 136 941 241 1010 189 984 b 4 769 83 899 39 842 l 23 760 b 149 924 57 829 98 884 b 298 998 198 965 248 989 b 393 991 333 1004 365 1002 b 418 976 401 987 410 982 l 406 970 b 224 833 342 937 282 892 b 78 644 168 775 119 712 b 2 450 38 576 13 512 b 12 334 -5 405 -2 366 b 77 274 24 302 46 282 b 189 298 107 265 144 273 z m 37 435 b 127 606 54 486 84 544 b 270 787 169 669 217 730 b 424 930 323 845 374 892 b 446 945 431 935 438 941 b 454 929 449 940 452 935 b 463 782 471 894 474 845 b 376 549 453 719 424 642 b 287 414 354 506 324 461 b 165 309 249 367 209 332 b 80 296 132 293 103 289 b 33 345 57 304 41 320 b 37 435 25 370 26 399 z m 602 1067 b 635 1088 617 1066 628 1074 b 638 1135 642 1103 642 1119 b 606 1162 633 1151 623 1160 b 576 1140 591 1162 581 1154 b 573 1095 570 1125 569 1110 b 602 1067 577 1079 587 1069 z m 687 1067 b 720 1088 703 1066 714 1074 b 724 1135 727 1103 728 1119 b 691 1162 720 1151 709 1160 b 661 1140 677 1162 667 1154 b 659 1095 656 1125 654 1110 b 687 1067 663 1079 673 1069 z "},"Ð":{"ha":678,"x_min":0,"x_max":0,"o":"m 435 959 b 374 949 415 959 395 956 b 307 911 353 943 330 930 b 216 795 275 884 245 845 b 206 951 229 863 227 916 b 111 1012 186 987 155 1007 l 107 996 b 127 968 119 991 125 982 b 128 924 130 955 130 940 b 120 882 125 909 123 895 b 119 875 119 880 119 878 b 104 811 113 852 109 831 b 97 783 101 800 99 791 b 93 764 96 777 94 770 b 76 691 87 740 81 715 b 43 536 64 640 53 587 l -31 536 l -31 514 l 39 514 b 30 467 35 498 33 483 b 14 364 24 433 19 399 b 3 272 9 333 6 302 b -3 178 0 242 -2 211 b 5 87 -3 146 -1 115 b 42 20 12 58 24 36 b 120 1 60 4 86 -2 b 100 118 108 30 101 68 b 113 93 104 109 108 101 b 182 20 132 60 155 35 b 269 -1 209 4 238 -3 b 424 77 326 3 378 29 b 540 257 469 124 508 184 b 608 488 572 330 594 407 b 620 716 623 568 627 644 b 566 890 614 787 595 846 b 435 959 535 935 492 958 z m 260 41 b 191 44 236 33 214 35 b 131 103 168 54 148 73 b 110 180 120 125 113 151 b 110 260 106 210 106 237 b 153 514 120 342 134 427 l 239 514 l 239 536 l 157 536 b 178 633 164 569 172 602 b 194 692 182 650 187 670 b 215 749 201 715 208 733 b 320 895 248 814 283 863 b 398 922 352 920 378 929 b 446 873 418 915 434 899 b 470 789 457 847 465 819 b 477 712 475 758 477 733 b 463 511 477 650 473 583 b 417 301 452 439 437 369 b 348 130 397 234 374 177 b 260 41 321 82 292 53 z "},"Ñ":{"ha":1111,"x_min":0,"x_max":0,"o":"m 1101 190 b 1071 110 1093 161 1083 134 b 1061 92 1067 103 1064 97 b 1010 42 1046 68 1029 52 b 958 42 991 33 974 33 b 918 154 933 59 920 96 b 933 357 916 212 921 279 b 977 593 945 435 960 514 b 1026 800 995 671 1011 741 b 1026 920 1038 854 1038 894 b 968 962 1014 947 995 961 b 848 905 934 966 894 947 b 762 802 811 868 783 833 b 638 553 716 736 675 653 b 651 612 642 571 646 591 b 688 795 665 673 678 734 b 677 954 699 867 696 920 b 589 1013 660 989 630 1008 b 442 985 549 1017 500 1007 b 404 1010 431 996 418 1004 b 297 1019 372 1023 336 1026 b 139 941 244 1010 191 984 b 7 769 86 899 42 842 l 26 760 b 151 924 60 829 102 884 b 300 998 201 965 251 989 b 395 991 336 1004 368 1002 b 421 976 404 987 413 982 l 409 970 b 228 833 346 937 285 892 b 81 644 170 775 121 712 b 5 450 41 576 16 512 b 14 334 -3 405 1 366 b 79 274 27 302 49 282 b 192 298 110 265 147 273 b 310 406 235 324 274 360 b 397 540 347 452 376 497 b 488 782 447 635 477 716 b 476 938 498 848 494 900 b 467 955 473 944 471 949 b 538 982 491 968 514 977 b 593 972 562 987 580 984 b 600 896 606 960 608 935 b 576 790 592 860 584 825 b 516 514 554 699 534 606 l 516 515 b 492 364 507 465 498 415 b 481 271 488 333 484 302 b 475 178 477 242 476 211 b 483 87 474 145 477 115 b 519 20 490 58 501 36 b 598 1 537 3 564 -3 b 578 124 585 31 578 72 l 578 125 b 626 442 584 241 600 347 b 695 638 646 515 669 580 b 779 789 722 696 750 747 b 862 890 800 821 827 854 b 895 915 872 899 883 907 b 926 922 908 922 918 925 b 930 885 933 920 935 907 b 914 819 926 865 920 843 b 870 627 901 762 886 697 b 831 412 854 555 842 484 b 819 212 821 339 817 273 b 853 63 821 150 832 100 b 953 3 873 25 907 5 b 1078 81 1002 3 1044 28 b 1090 100 1083 87 1086 94 b 1122 184 1103 126 1114 154 b 1137 275 1130 216 1135 245 l 1116 277 b 1101 190 1114 248 1109 220 z m 379 549 b 290 414 357 506 327 461 b 168 309 252 367 212 332 b 71 301 127 290 95 288 b 31 374 46 315 33 340 b 99 554 34 424 56 484 b 253 762 141 625 193 694 b 429 930 313 831 372 887 b 449 944 435 935 441 939 b 457 929 452 939 454 935 b 466 782 473 894 477 845 b 379 549 456 719 427 642 z m 706 1049 l 713 1044 b 741 1055 720 1054 730 1057 b 781 1039 753 1052 767 1046 b 823 1023 795 1032 809 1027 b 861 1024 836 1019 849 1019 b 889 1065 872 1029 882 1043 l 882 1070 b 853 1059 875 1060 865 1057 b 813 1075 842 1062 828 1067 b 772 1092 800 1082 786 1088 b 734 1090 759 1096 746 1095 b 706 1049 723 1084 713 1071 z "},"Ò":{"ha":844,"x_min":0,"x_max":0,"o":"m 722 951 b 684 962 711 958 698 962 b 638 958 670 963 655 962 l 632 956 b 558 1002 610 977 586 993 b 414 1009 514 1019 466 1021 b 276 943 368 998 321 977 b 148 812 230 911 187 867 b 42 589 104 751 69 677 b -2 320 17 511 3 420 l 19 319 b 62 583 24 418 38 506 b 165 800 88 669 123 741 b 288 926 203 852 243 895 b 419 988 331 958 375 978 b 551 983 467 999 511 998 b 591 962 565 978 578 971 l 580 962 b 382 890 505 960 439 935 b 245 716 326 844 280 787 b 173 491 210 646 186 570 b 172 263 161 411 160 336 b 261 70 186 182 216 117 b 418 -1 306 22 358 -1 b 543 41 465 1 506 15 b 638 138 579 66 610 98 b 707 264 665 178 688 220 b 753 387 726 307 741 349 b 805 749 791 516 809 637 b 781 876 803 798 795 840 b 722 951 768 911 748 937 z m 627 932 b 649 901 635 922 642 912 b 689 781 669 869 682 829 b 683 611 696 732 694 676 b 655 497 677 575 668 537 b 606 385 643 457 627 419 b 535 301 587 349 563 321 b 473 281 513 285 492 279 b 425 318 454 285 438 297 b 399 437 409 345 401 385 b 429 634 399 490 408 555 b 522 841 450 713 481 782 b 627 932 552 884 587 915 z m 733 393 b 685 267 720 349 703 307 b 629 166 671 235 652 201 b 548 76 606 131 579 101 b 443 37 516 51 481 38 b 340 104 396 39 362 62 b 304 269 318 147 306 202 b 335 524 303 349 313 434 b 427 766 357 614 387 694 b 559 914 465 838 509 887 b 505 853 539 897 521 877 b 409 640 463 792 431 721 b 379 434 387 558 377 490 b 408 307 380 378 390 336 b 469 261 424 281 444 265 b 547 283 494 257 520 264 b 623 371 576 305 602 334 b 675 488 644 408 661 447 b 704 608 688 530 698 570 b 709 785 715 675 717 734 b 667 912 703 836 688 878 b 648 938 661 922 655 930 b 682 941 661 941 672 942 b 711 933 694 941 703 938 b 764 865 734 920 751 898 b 785 747 775 833 782 793 b 733 393 788 638 771 520 z m 637 1017 b 644 1013 640 1015 642 1014 b 650 1013 646 1013 648 1012 b 661 1019 654 1015 657 1017 b 671 1029 665 1023 668 1025 b 666 1052 674 1032 672 1040 b 642 1092 660 1063 652 1077 b 612 1131 631 1107 621 1120 b 591 1151 602 1142 595 1149 b 577 1149 587 1152 583 1152 b 557 1129 565 1141 558 1135 b 557 1122 556 1127 557 1125 b 559 1117 558 1120 559 1118 b 598 1062 571 1099 584 1080 b 637 1017 612 1044 626 1029 z "},"Ó":{"ha":844,"x_min":0,"x_max":0,"o":"m 722 951 b 684 962 711 958 698 962 b 638 958 670 963 655 962 l 632 956 b 558 1002 610 977 586 993 b 414 1009 514 1019 466 1021 b 276 943 368 998 321 977 b 148 812 230 911 187 867 b 42 589 104 751 69 677 b -2 320 17 511 3 420 l 19 319 b 62 583 24 418 38 506 b 165 800 88 669 123 741 b 288 926 203 852 243 895 b 419 988 331 958 375 978 b 551 983 467 999 511 998 b 591 962 565 978 578 971 l 580 962 b 382 890 505 960 439 935 b 245 716 326 844 280 787 b 173 491 210 646 186 570 b 172 263 161 411 160 336 b 261 70 186 182 216 117 b 418 -1 306 22 358 -1 b 543 41 465 1 506 15 b 638 138 579 66 610 98 b 707 264 665 178 688 220 b 753 387 726 307 741 349 b 805 749 791 516 809 637 b 781 876 803 798 795 840 b 722 951 768 911 748 937 z m 627 932 b 649 901 635 922 642 912 b 689 781 669 869 682 829 b 683 611 696 732 694 676 b 655 497 677 575 668 537 b 606 385 643 457 627 419 b 535 301 587 349 563 321 b 473 281 513 285 492 279 b 425 318 454 285 438 297 b 399 437 409 345 401 385 b 429 634 399 490 408 555 b 522 841 450 713 481 782 b 627 932 552 884 587 915 z m 733 393 b 685 267 720 349 703 307 b 629 166 671 235 652 201 b 548 76 606 131 579 101 b 443 37 516 51 481 38 b 340 104 396 39 362 62 b 304 269 318 147 306 202 b 335 524 303 349 313 434 b 427 766 357 614 387 694 b 559 914 465 838 509 887 b 505 853 539 897 521 877 b 409 640 463 792 431 721 b 379 434 387 558 377 490 b 408 307 380 378 390 336 b 469 261 424 281 444 265 b 547 283 494 257 520 264 b 623 371 576 305 602 334 b 675 488 644 408 661 447 b 704 608 688 530 698 570 b 709 785 715 675 717 734 b 667 912 703 836 688 878 b 648 938 661 922 655 930 b 682 941 661 941 672 942 b 711 933 694 941 703 938 b 764 865 734 920 751 898 b 785 747 775 833 782 793 b 733 393 788 638 771 520 z m 665 1006 b 705 1051 677 1018 690 1033 b 743 1106 720 1069 732 1088 b 746 1112 744 1107 745 1109 b 746 1118 747 1114 747 1116 b 726 1138 745 1124 739 1131 b 712 1140 720 1141 716 1141 b 691 1120 707 1138 701 1131 b 662 1081 682 1109 672 1096 b 637 1041 652 1066 644 1053 b 631 1018 631 1029 629 1021 b 642 1008 635 1015 638 1012 b 652 1002 646 1006 650 1004 b 659 1002 654 1001 656 1002 b 665 1006 661 1003 663 1004 z "},"Ô":{"ha":844,"x_min":0,"x_max":0,"o":"m 722 951 b 684 962 711 958 698 962 b 638 958 670 963 655 962 l 632 956 b 558 1002 610 977 586 993 b 414 1009 514 1019 466 1021 b 276 943 368 998 321 977 b 148 812 230 911 187 867 b 42 589 104 751 69 677 b -2 320 17 511 3 420 l 19 319 b 62 583 24 418 38 506 b 165 800 88 669 123 741 b 288 926 203 852 243 895 b 419 988 331 958 375 978 b 551 983 467 999 511 998 b 591 962 565 978 578 971 l 580 962 b 382 890 505 960 439 935 b 245 716 326 844 280 787 b 173 491 210 646 186 570 b 172 263 161 411 160 336 b 261 70 186 182 216 117 b 418 -1 306 22 358 -1 b 543 41 465 1 506 15 b 638 138 579 66 610 98 b 707 264 665 178 688 220 b 753 387 726 307 741 349 b 805 749 791 516 809 637 b 781 876 803 798 795 840 b 722 951 768 911 748 937 z m 627 932 b 649 901 635 922 642 912 b 689 781 669 869 682 829 b 683 611 696 732 694 676 b 655 497 677 575 668 537 b 606 385 643 457 627 419 b 535 301 587 349 563 321 b 473 281 513 285 492 279 b 425 318 454 285 438 297 b 399 437 409 345 401 385 b 429 634 399 490 408 555 b 522 841 450 713 481 782 b 627 932 552 884 587 915 z m 733 393 b 685 267 720 349 703 307 b 629 166 671 235 652 201 b 548 76 606 131 579 101 b 443 37 516 51 481 38 b 340 104 396 39 362 62 b 304 269 318 147 306 202 b 335 524 303 349 313 434 b 427 766 357 614 387 694 b 559 914 465 838 509 887 b 505 853 539 897 521 877 b 409 640 463 792 431 721 b 379 434 387 558 377 490 b 408 307 380 378 390 336 b 469 261 424 281 444 265 b 547 283 494 257 520 264 b 623 371 576 305 602 334 b 675 488 644 408 661 447 b 704 608 688 530 698 570 b 709 785 715 675 717 734 b 667 912 703 836 688 878 b 648 938 661 922 655 930 b 682 941 661 941 672 942 b 711 933 694 941 703 938 b 764 865 734 920 751 898 b 785 747 775 833 782 793 b 733 393 788 638 771 520 z m 616 1019 b 628 1051 620 1028 624 1039 b 640 1084 632 1062 636 1073 b 642 1087 642 1086 642 1088 b 644 1084 643 1086 644 1086 b 652 1067 646 1080 648 1075 b 665 1041 656 1059 660 1050 b 678 1017 669 1031 674 1024 b 686 1017 679 1016 682 1015 b 697 1021 689 1017 693 1019 b 708 1029 702 1023 705 1026 b 712 1037 711 1031 712 1034 b 664 1147 703 1076 686 1112 b 643 1155 659 1153 652 1155 b 622 1147 634 1154 627 1152 b 605 1117 617 1142 612 1132 b 588 1071 599 1103 593 1087 b 577 1032 583 1055 579 1042 b 586 1020 577 1027 580 1023 b 604 1015 591 1017 597 1015 b 616 1019 610 1015 614 1016 z "},"Õ":{"ha":844,"x_min":0,"x_max":0,"o":"m 722 951 b 684 962 711 958 698 962 b 638 958 670 963 655 962 l 632 956 b 558 1002 610 977 586 993 b 414 1009 514 1019 466 1021 b 276 943 368 998 321 977 b 148 812 230 911 187 867 b 42 589 104 751 69 677 b -2 320 17 511 3 420 l 19 319 b 62 583 24 418 38 506 b 165 800 88 669 123 741 b 288 926 203 852 243 895 b 419 988 331 958 375 978 b 551 983 467 999 511 998 b 591 962 565 978 578 971 l 580 962 b 382 890 505 960 439 935 b 245 716 326 844 280 787 b 173 491 210 646 186 570 b 172 263 161 411 160 336 b 261 70 186 182 216 117 b 418 -1 306 22 358 -1 b 543 41 465 1 506 15 b 638 138 579 66 610 98 b 707 264 665 178 688 220 b 753 387 726 307 741 349 b 805 749 791 516 809 637 b 781 876 803 798 795 840 b 722 951 768 911 748 937 z m 627 932 b 649 901 635 922 642 912 b 689 781 669 869 682 829 b 683 611 696 732 694 676 b 655 497 677 575 668 537 b 606 385 643 457 627 419 b 535 301 587 349 563 321 b 473 281 513 285 492 279 b 425 318 454 285 438 297 b 399 437 409 345 401 385 b 429 634 399 490 408 555 b 522 841 450 713 481 782 b 627 932 552 884 587 915 z m 733 393 b 685 267 720 349 703 307 b 629 166 671 235 652 201 b 548 76 606 131 579 101 b 443 37 516 51 481 38 b 340 104 396 39 362 62 b 304 269 318 147 306 202 b 335 524 303 349 313 434 b 427 766 357 614 387 694 b 559 914 465 838 509 887 b 505 853 539 897 521 877 b 409 640 463 792 431 721 b 379 434 387 558 377 490 b 408 307 380 378 390 336 b 469 261 424 281 444 265 b 547 283 494 257 520 264 b 623 371 576 305 602 334 b 675 488 644 408 661 447 b 704 608 688 530 698 570 b 709 785 715 675 717 734 b 667 912 703 836 688 878 b 648 938 661 922 655 930 b 682 941 661 941 672 942 b 711 933 694 941 703 938 b 764 865 734 920 751 898 b 785 747 775 833 782 793 b 733 393 788 638 771 520 z m 564 1046 l 570 1040 b 599 1051 577 1050 587 1054 b 639 1036 611 1048 625 1043 b 680 1019 652 1029 667 1023 b 718 1021 694 1015 707 1016 b 747 1061 730 1026 739 1040 l 739 1067 b 711 1056 732 1057 723 1053 b 671 1072 699 1059 686 1064 b 630 1088 657 1078 644 1084 b 592 1086 616 1093 604 1092 b 564 1046 581 1081 571 1067 z "},"Ö":{"ha":844,"x_min":0,"x_max":0,"o":"m 722 951 b 684 962 711 958 698 962 b 638 958 670 963 655 962 l 632 956 b 558 1002 610 977 586 993 b 414 1009 514 1019 466 1021 b 276 943 368 998 321 977 b 148 812 230 911 187 867 b 42 589 104 751 69 677 b -2 320 17 511 3 420 l 19 319 b 62 583 24 418 38 506 b 165 800 88 669 123 741 b 288 926 203 852 243 895 b 419 988 331 958 375 978 b 551 983 467 999 511 998 b 591 962 565 978 578 971 l 580 962 b 382 890 505 960 439 935 b 245 716 326 844 280 787 b 173 491 210 646 186 570 b 172 263 161 411 160 336 b 261 70 186 182 216 117 b 418 -1 306 22 358 -1 b 543 41 465 1 506 15 b 638 138 579 66 610 98 b 707 264 665 178 688 220 b 753 387 726 307 741 349 b 805 749 791 516 809 637 b 781 876 803 798 795 840 b 722 951 768 911 748 937 z m 627 932 b 649 901 635 922 642 912 b 689 781 669 869 682 829 b 683 611 696 732 694 676 b 655 497 677 575 668 537 b 606 385 643 457 627 419 b 535 301 587 349 563 321 b 473 281 513 285 492 279 b 425 318 454 285 438 297 b 399 437 409 345 401 385 b 429 634 399 490 408 555 b 522 841 450 713 481 782 b 627 932 552 884 587 915 z m 733 393 b 685 267 720 349 703 307 b 629 166 671 235 652 201 b 548 76 606 131 579 101 b 443 37 516 51 481 38 b 340 104 396 39 362 62 b 304 269 318 147 306 202 b 335 524 303 349 313 434 b 427 766 357 614 387 694 b 559 914 465 838 509 887 b 505 853 539 897 521 877 b 409 640 463 792 431 721 b 379 434 387 558 377 490 b 408 307 380 378 390 336 b 469 261 424 281 444 265 b 547 283 494 257 520 264 b 623 371 576 305 602 334 b 675 488 644 408 661 447 b 704 608 688 530 698 570 b 709 785 715 675 717 734 b 667 912 703 836 688 878 b 648 938 661 922 655 930 b 682 941 661 941 672 942 b 711 933 694 941 703 938 b 764 865 734 920 751 898 b 785 747 775 833 782 793 b 733 393 788 638 771 520 z m 587 1025 b 621 1046 603 1024 614 1031 b 623 1093 627 1061 628 1077 b 591 1120 619 1109 608 1118 b 561 1098 576 1120 566 1112 b 559 1053 555 1083 555 1068 b 587 1025 563 1037 572 1027 z m 673 1025 b 706 1046 688 1024 699 1031 b 709 1093 712 1061 713 1077 b 677 1120 705 1109 694 1118 b 646 1098 662 1120 652 1112 b 644 1053 641 1083 640 1068 b 673 1025 648 1037 658 1027 z "},"×":{"ha":524,"x_min":0,"x_max":0,"o":"m 364 642 b 323 582 359 629 345 610 b 248 492 301 555 276 525 b 188 420 227 467 207 444 b 117 565 165 476 141 524 b 40 642 93 606 67 631 l 33 621 b 104 547 57 612 81 587 b 173 401 127 506 150 458 b 146 368 163 389 155 378 b 92 292 127 342 110 317 b 42 213 75 268 58 241 b 5 129 26 185 13 157 b 4 53 -3 101 -4 76 b 64 -1 12 31 32 12 b 99 102 66 28 78 62 b 180 231 120 142 146 185 b 220 287 192 248 205 267 b 279 158 239 241 259 198 b 345 55 300 117 321 83 b 418 1 368 27 392 9 l 424 21 b 355 75 400 28 377 46 b 293 177 334 102 313 136 b 235 306 273 218 254 260 b 413 526 296 387 355 460 b 431 581 428 545 434 562 b 408 626 429 599 421 614 b 364 642 395 637 380 643 z "},"Ø":{"ha":622,"x_min":0,"x_max":0,"o":"m 469 941 l 479 983 l 459 988 l 449 951 b 408 962 436 957 422 960 b 362 964 393 964 378 964 b 188 897 296 963 237 940 b 66 726 138 852 98 795 b 1 503 35 656 13 582 b -3 275 -11 424 -12 348 b 60 92 7 203 28 142 b 195 3 93 43 138 13 l 189 -20 l 209 -26 l 216 1 b 357 52 269 -1 316 16 b 464 195 399 87 435 136 b 534 392 494 255 517 321 b 564 604 550 463 560 534 b 551 792 566 673 563 736 b 495 919 541 848 522 890 b 469 941 486 928 477 935 z m 425 937 b 444 932 431 936 438 935 l 208 50 b 145 155 178 69 157 104 b 133 332 133 205 129 264 b 162 542 136 401 146 471 b 227 741 178 614 200 680 b 316 886 252 802 283 850 b 425 937 350 922 386 939 z m 262 40 b 227 42 249 39 237 39 l 463 922 b 530 789 495 897 517 853 b 537 572 541 726 544 653 b 492 332 531 490 515 410 b 398 134 469 254 437 188 b 262 40 359 80 314 49 z "},"Ù":{"ha":1131,"x_min":0,"x_max":0,"o":"m 1118 186 b 1087 106 1109 158 1099 131 b 1077 88 1084 100 1080 94 b 1027 39 1062 64 1045 48 b 975 39 1008 29 991 29 b 934 151 949 56 937 93 b 949 355 932 208 937 276 b 994 590 961 433 976 511 b 1042 797 1011 669 1027 738 b 1067 900 1053 842 1061 877 b 1050 937 1069 916 1063 928 b 1002 957 1036 947 1021 954 b 963 962 985 961 971 962 b 898 649 947 863 925 758 b 850 439 880 578 865 508 b 806 256 840 383 825 322 b 782 182 801 236 793 212 b 743 98 772 153 758 125 b 691 41 728 74 711 55 b 640 26 674 30 657 24 b 600 60 622 30 608 41 b 583 128 591 79 585 102 b 583 204 581 155 581 180 b 587 262 584 229 585 248 b 587 264 587 263 587 264 b 624 500 595 343 608 422 b 677 732 640 578 658 656 b 690 789 682 751 686 770 b 671 966 708 871 702 930 b 539 1011 642 1002 597 1017 b 442 985 506 1007 473 998 b 403 1010 431 996 418 1004 b 297 1019 372 1023 336 1026 b 138 941 244 1010 191 984 b 7 769 86 899 42 842 l 26 760 b 151 924 60 829 101 884 b 300 998 201 965 251 989 b 395 991 336 1004 368 1002 b 420 976 404 987 413 982 l 409 970 b 227 833 345 937 285 892 b 81 644 170 775 121 712 b 4 450 41 576 15 512 b 14 332 -3 404 0 364 b 81 274 28 301 50 281 b 192 298 112 266 149 274 b 310 406 234 324 273 360 b 397 540 346 452 375 497 b 487 782 447 635 477 716 b 476 938 498 848 494 900 b 467 956 473 944 470 950 b 545 983 493 970 519 979 b 593 969 566 987 582 982 b 598 896 604 956 606 932 b 574 795 591 863 583 829 b 516 529 553 707 533 618 b 488 265 498 439 489 351 b 497 153 487 231 490 194 b 539 48 504 113 517 78 b 634 0 560 18 592 3 b 707 22 661 -1 685 6 b 762 89 728 39 747 62 b 802 174 778 117 791 144 b 827 250 812 203 821 229 l 836 284 b 842 140 833 231 836 182 b 883 39 849 98 863 64 b 969 -1 903 14 932 1 b 1095 77 1019 -1 1060 25 b 1106 97 1099 84 1103 90 b 1138 181 1119 123 1130 151 b 1154 271 1146 212 1152 242 l 1133 273 b 1118 186 1131 245 1126 216 z m 379 549 b 289 414 357 506 327 461 b 168 309 252 367 211 332 b 75 299 127 290 97 287 b 37 362 54 311 41 332 b 50 462 34 393 38 426 b 155 644 72 520 107 581 b 302 817 202 707 251 765 b 427 930 353 868 395 906 b 448 945 433 935 441 940 b 456 929 452 940 454 935 b 466 782 473 894 477 845 b 379 549 456 719 427 642 z m 827 1006 b 833 1002 829 1004 831 1003 b 840 1002 836 1002 838 1001 b 850 1008 842 1004 846 1006 b 861 1018 854 1012 857 1015 b 854 1041 863 1021 861 1029 b 831 1081 848 1053 840 1066 b 801 1120 821 1096 810 1109 b 781 1140 791 1131 785 1138 b 766 1138 777 1141 772 1141 b 746 1118 754 1131 747 1124 b 747 1112 745 1116 745 1114 b 749 1106 747 1109 748 1107 b 787 1051 760 1088 772 1069 b 827 1006 802 1033 815 1018 z "},"Ú":{"ha":1131,"x_min":0,"x_max":0,"o":"m 1118 186 b 1087 106 1109 158 1099 131 b 1077 88 1084 100 1080 94 b 1027 39 1062 64 1045 48 b 975 39 1008 29 991 29 b 934 151 949 56 937 93 b 949 355 932 208 937 276 b 994 590 961 433 976 511 b 1042 797 1011 669 1027 738 b 1067 900 1053 842 1061 877 b 1050 937 1069 916 1063 928 b 1002 957 1036 947 1021 954 b 963 962 985 961 971 962 b 898 649 947 863 925 758 b 850 439 880 578 865 508 b 806 256 840 383 825 322 b 782 182 801 236 793 212 b 743 98 772 153 758 125 b 691 41 728 74 711 55 b 640 26 674 30 657 24 b 600 60 622 30 608 41 b 583 128 591 79 585 102 b 583 204 581 155 581 180 b 587 262 584 229 585 248 b 587 264 587 263 587 264 b 624 500 595 343 608 422 b 677 732 640 578 658 656 b 690 789 682 751 686 770 b 671 966 708 871 702 930 b 539 1011 642 1002 597 1017 b 442 985 506 1007 473 998 b 403 1010 431 996 418 1004 b 297 1019 372 1023 336 1026 b 138 941 244 1010 191 984 b 7 769 86 899 42 842 l 26 760 b 151 924 60 829 101 884 b 300 998 201 965 251 989 b 395 991 336 1004 368 1002 b 420 976 404 987 413 982 l 409 970 b 227 833 345 937 285 892 b 81 644 170 775 121 712 b 4 450 41 576 15 512 b 14 332 -3 404 0 364 b 81 274 28 301 50 281 b 192 298 112 266 149 274 b 310 406 234 324 273 360 b 397 540 346 452 375 497 b 487 782 447 635 477 716 b 476 938 498 848 494 900 b 467 956 473 944 470 950 b 545 983 493 970 519 979 b 593 969 566 987 582 982 b 598 896 604 956 606 932 b 574 795 591 863 583 829 b 516 529 553 707 533 618 b 488 265 498 439 489 351 b 497 153 487 231 490 194 b 539 48 504 113 517 78 b 634 0 560 18 592 3 b 707 22 661 -1 685 6 b 762 89 728 39 747 62 b 802 174 778 117 791 144 b 827 250 812 203 821 229 l 836 284 b 842 140 833 231 836 182 b 883 39 849 98 863 64 b 969 -1 903 14 932 1 b 1095 77 1019 -1 1060 25 b 1106 97 1099 84 1103 90 b 1138 181 1119 123 1130 151 b 1154 271 1146 212 1152 242 l 1133 273 b 1118 186 1131 245 1126 216 z m 379 549 b 289 414 357 506 327 461 b 168 309 252 367 211 332 b 75 299 127 290 97 287 b 37 362 54 311 41 332 b 50 462 34 393 38 426 b 155 644 72 520 107 581 b 302 817 202 707 251 765 b 427 930 353 868 395 906 b 448 945 433 935 441 940 b 456 929 452 940 454 935 b 466 782 473 894 477 845 b 379 549 456 719 427 642 z m 816 1006 b 855 1051 828 1018 841 1033 b 894 1106 870 1069 882 1088 b 897 1112 895 1107 896 1109 b 897 1118 897 1114 897 1116 b 876 1138 895 1124 888 1131 b 863 1140 871 1141 866 1141 b 842 1120 858 1138 851 1131 b 812 1081 832 1109 822 1096 b 788 1041 802 1066 794 1053 b 782 1018 781 1029 780 1021 b 793 1008 785 1015 789 1012 b 803 1002 797 1006 800 1004 b 809 1002 805 1001 807 1002 b 816 1006 812 1003 814 1004 z "},"Û":{"ha":1131,"x_min":0,"x_max":0,"o":"m 1118 186 b 1087 106 1109 158 1099 131 b 1077 88 1084 100 1080 94 b 1027 39 1062 64 1045 48 b 975 39 1008 29 991 29 b 934 151 949 56 937 93 b 949 355 932 208 937 276 b 994 590 961 433 976 511 b 1042 797 1011 669 1027 738 b 1067 900 1053 842 1061 877 b 1050 937 1069 916 1063 928 b 1002 957 1036 947 1021 954 b 963 962 985 961 971 962 b 898 649 947 863 925 758 b 850 439 880 578 865 508 b 806 256 840 383 825 322 b 782 182 801 236 793 212 b 743 98 772 153 758 125 b 691 41 728 74 711 55 b 640 26 674 30 657 24 b 600 60 622 30 608 41 b 583 128 591 79 585 102 b 583 204 581 155 581 180 b 587 262 584 229 585 248 b 587 264 587 263 587 264 b 624 500 595 343 608 422 b 677 732 640 578 658 656 b 690 789 682 751 686 770 b 671 966 708 871 702 930 b 539 1011 642 1002 597 1017 b 442 985 506 1007 473 998 b 403 1010 431 996 418 1004 b 297 1019 372 1023 336 1026 b 138 941 244 1010 191 984 b 7 769 86 899 42 842 l 26 760 b 151 924 60 829 101 884 b 300 998 201 965 251 989 b 395 991 336 1004 368 1002 b 420 976 404 987 413 982 l 409 970 b 227 833 345 937 285 892 b 81 644 170 775 121 712 b 4 450 41 576 15 512 b 14 332 -3 404 0 364 b 81 274 28 301 50 281 b 192 298 112 266 149 274 b 310 406 234 324 273 360 b 397 540 346 452 375 497 b 487 782 447 635 477 716 b 476 938 498 848 494 900 b 467 956 473 944 470 950 b 545 983 493 970 519 979 b 593 969 566 987 582 982 b 598 896 604 956 606 932 b 574 795 591 863 583 829 b 516 529 553 707 533 618 b 488 265 498 439 489 351 b 497 153 487 231 490 194 b 539 48 504 113 517 78 b 634 0 560 18 592 3 b 707 22 661 -1 685 6 b 762 89 728 39 747 62 b 802 174 778 117 791 144 b 827 250 812 203 821 229 l 836 284 b 842 140 833 231 836 182 b 883 39 849 98 863 64 b 969 -1 903 14 932 1 b 1095 77 1019 -1 1060 25 b 1106 97 1099 84 1103 90 b 1138 181 1119 123 1130 151 b 1154 271 1146 212 1152 242 l 1133 273 b 1118 186 1131 245 1126 216 z m 379 549 b 289 414 357 506 327 461 b 168 309 252 367 211 332 b 75 299 127 290 97 287 b 37 362 54 311 41 332 b 50 462 34 393 38 426 b 155 644 72 520 107 581 b 302 817 202 707 251 765 b 427 930 353 868 395 906 b 448 945 433 935 441 940 b 456 929 452 940 454 935 b 466 782 473 894 477 845 b 379 549 456 719 427 642 z m 795 1008 b 806 1040 798 1017 802 1028 b 819 1074 810 1051 814 1062 b 821 1076 819 1076 820 1077 b 823 1073 821 1076 822 1075 b 830 1056 824 1069 826 1064 b 843 1030 834 1048 838 1039 b 857 1006 848 1021 852 1013 b 863 1006 857 1005 860 1004 b 876 1010 867 1006 871 1008 b 886 1018 880 1013 884 1015 b 890 1026 889 1021 890 1023 b 842 1137 881 1065 865 1101 b 821 1144 838 1142 831 1144 b 800 1137 812 1143 805 1141 b 783 1106 795 1131 790 1121 b 766 1060 777 1092 771 1076 b 755 1021 761 1044 758 1031 b 764 1009 755 1016 758 1012 b 783 1004 770 1006 776 1004 b 795 1008 789 1004 793 1005 z "},"Ü":{"ha":1131,"x_min":0,"x_max":0,"o":"m 1118 186 b 1087 106 1109 158 1099 131 b 1077 88 1084 100 1080 94 b 1027 39 1062 64 1045 48 b 975 39 1008 29 991 29 b 934 151 949 56 937 93 b 949 355 932 208 937 276 b 994 590 961 433 976 511 b 1042 797 1011 669 1027 738 b 1067 900 1053 842 1061 877 b 1050 937 1069 916 1063 928 b 1002 957 1036 947 1021 954 b 963 962 985 961 971 962 b 898 649 947 863 925 758 b 850 439 880 578 865 508 b 806 256 840 383 825 322 b 782 182 801 236 793 212 b 743 98 772 153 758 125 b 691 41 728 74 711 55 b 640 26 674 30 657 24 b 600 60 622 30 608 41 b 583 128 591 79 585 102 b 583 204 581 155 581 180 b 587 262 584 229 585 248 b 587 264 587 263 587 264 b 624 500 595 343 608 422 b 677 732 640 578 658 656 b 690 789 682 751 686 770 b 671 966 708 871 702 930 b 539 1011 642 1002 597 1017 b 442 985 506 1007 473 998 b 403 1010 431 996 418 1004 b 297 1019 372 1023 336 1026 b 138 941 244 1010 191 984 b 7 769 86 899 42 842 l 26 760 b 151 924 60 829 101 884 b 300 998 201 965 251 989 b 395 991 336 1004 368 1002 b 420 976 404 987 413 982 l 409 970 b 227 833 345 937 285 892 b 81 644 170 775 121 712 b 4 450 41 576 15 512 b 14 332 -3 404 0 364 b 81 274 28 301 50 281 b 192 298 112 266 149 274 b 310 406 234 324 273 360 b 397 540 346 452 375 497 b 487 782 447 635 477 716 b 476 938 498 848 494 900 b 467 956 473 944 470 950 b 545 983 493 970 519 979 b 593 969 566 987 582 982 b 598 896 604 956 606 932 b 574 795 591 863 583 829 b 516 529 553 707 533 618 b 488 265 498 439 489 351 b 497 153 487 231 490 194 b 539 48 504 113 517 78 b 634 0 560 18 592 3 b 707 22 661 -1 685 6 b 762 89 728 39 747 62 b 802 174 778 117 791 144 b 827 250 812 203 821 229 l 836 284 b 842 140 833 231 836 182 b 883 39 849 98 863 64 b 969 -1 903 14 932 1 b 1095 77 1019 -1 1060 25 b 1106 97 1099 84 1103 90 b 1138 181 1119 123 1130 151 b 1154 271 1146 212 1152 242 l 1133 273 b 1118 186 1131 245 1126 216 z m 379 549 b 289 414 357 506 327 461 b 168 309 252 367 211 332 b 75 299 127 290 97 287 b 37 362 54 311 41 332 b 50 462 34 393 38 426 b 155 644 72 520 107 581 b 302 817 202 707 251 765 b 427 930 353 868 395 906 b 448 945 433 935 441 940 b 456 929 452 940 454 935 b 466 782 473 894 477 845 b 379 549 456 719 427 642 z m 783 1000 b 816 1022 798 1000 810 1007 b 819 1069 823 1037 824 1053 b 787 1096 815 1084 804 1094 b 757 1074 772 1095 762 1088 b 755 1028 751 1059 751 1044 b 783 1000 759 1013 768 1003 z m 869 1000 b 902 1022 884 1000 895 1007 b 905 1069 908 1037 909 1053 b 873 1096 901 1084 890 1094 b 842 1074 858 1095 848 1088 b 840 1028 837 1059 836 1044 b 869 1000 844 1013 854 1003 z "},"Ý":{"ha":1013,"x_min":0,"x_max":0,"o":"m 928 962 b 914 896 925 946 921 924 b 893 806 907 865 900 836 b 831 521 871 711 850 616 b 800 461 822 500 811 479 b 788 444 795 455 791 449 b 696 398 759 410 728 394 b 648 439 671 404 655 417 b 638 512 640 461 636 485 b 645 580 640 538 642 561 b 669 696 652 618 660 658 b 688 779 677 726 683 753 l 686 774 l 690 789 b 692 927 703 847 703 892 b 629 999 680 962 659 986 b 522 1008 598 1013 563 1015 b 484 1000 506 1006 494 1003 b 453 989 473 997 463 994 b 443 985 450 988 446 987 b 404 1010 431 996 418 1004 b 298 1019 372 1023 337 1026 b 140 941 245 1010 192 984 b 7 769 87 899 43 842 l 26 760 b 152 924 60 829 102 884 b 301 998 201 965 252 989 b 396 991 336 1004 368 1002 b 421 976 405 987 414 982 b 170 770 329 928 245 860 b 14 492 94 680 42 587 b 1 396 5 462 1 430 b 24 309 1 362 8 334 b 109 272 41 286 68 273 b 193 298 134 272 162 281 b 311 406 235 324 275 360 b 398 540 347 452 376 497 b 488 782 448 635 477 716 b 477 938 498 848 495 900 b 467 956 474 944 471 950 b 537 982 490 968 514 977 b 591 971 560 987 578 983 b 598 896 604 959 606 934 b 581 825 593 876 587 852 b 537 626 563 762 549 696 b 536 504 531 586 530 545 b 582 401 541 462 557 428 b 696 366 606 374 645 363 b 747 382 714 368 731 373 b 804 431 768 393 787 410 b 817 450 809 438 814 444 l 819 452 b 805 364 814 422 809 394 b 794 271 801 333 798 302 b 793 257 794 267 793 262 b 785 157 790 227 787 193 b 790 53 784 120 785 85 b 822 -26 795 20 806 -6 b 896 -50 838 -45 863 -53 b 884 83 884 -20 880 24 b 901 260 888 143 893 202 b 946 524 911 346 926 433 b 1002 771 965 615 984 697 b 1031 900 1015 824 1024 867 b 1015 937 1034 916 1028 928 b 967 957 1001 947 985 953 b 928 962 949 961 936 962 z m 380 549 b 290 414 357 506 328 461 b 168 309 252 367 212 332 b 83 296 134 293 106 289 b 37 345 60 304 45 320 b 40 435 28 370 30 399 b 142 626 60 492 94 555 b 300 821 191 696 244 762 b 449 945 357 880 407 922 b 458 929 452 940 455 935 b 467 782 474 894 477 845 b 380 549 456 719 427 642 z m 800 1006 b 840 1051 812 1018 826 1033 b 878 1106 854 1069 867 1088 b 881 1112 880 1107 880 1109 b 882 1118 882 1114 882 1116 b 861 1138 880 1124 873 1131 b 847 1140 856 1141 851 1141 b 827 1120 843 1138 836 1131 b 797 1081 817 1109 807 1096 b 772 1041 787 1066 779 1053 b 767 1018 766 1029 764 1021 b 778 1008 770 1015 774 1012 b 788 1002 781 1006 785 1004 b 794 1002 789 1001 791 1002 b 800 1006 796 1003 798 1004 z "},"Þ":{"ha":657,"x_min":0,"x_max":0,"o":"m 429 637 b 178 643 345 648 262 650 b 207 767 188 687 197 728 b 237 900 220 822 230 866 b 220 937 239 916 234 928 b 173 957 207 947 191 953 b 134 962 155 961 142 962 b 120 896 132 946 127 924 b 99 804 113 865 106 834 b 50 586 81 731 65 659 b 12 364 35 513 22 439 b 1 271 7 333 3 302 b -5 178 -3 242 -5 211 b 3 87 -6 146 -3 115 b 39 20 9 58 21 36 b 117 1 57 3 83 -3 b 98 104 106 27 100 62 b 106 250 97 148 100 197 b 265 248 153 248 205 247 b 422 267 325 250 376 256 b 550 344 475 283 518 309 b 606 458 583 379 602 418 b 572 570 612 500 600 537 b 429 637 544 604 496 626 z m 405 311 b 281 280 370 293 329 283 b 142 279 233 277 186 277 b 109 280 131 279 119 279 b 171 612 125 390 145 500 b 297 617 207 616 249 618 b 420 600 345 616 387 611 b 505 517 466 581 494 553 b 494 405 516 481 513 443 b 405 311 477 366 447 335 z "},"ß":{"ha":538,"x_min":0,"x_max":0,"o":"m 380 621 l 380 621 l 372 628 b 366 633 369 630 368 632 b 367 642 366 635 366 638 b 374 657 368 645 370 650 b 411 754 388 686 400 718 b 419 860 421 790 424 825 b 366 947 411 902 393 931 b 273 958 338 963 307 966 b 181 897 239 949 208 928 b 90 725 145 853 115 795 b 30 501 64 654 45 580 b 1 281 16 422 6 349 b 3 118 -3 212 -3 158 b 37 28 7 81 18 51 b 123 1 56 6 84 -3 b 104 154 109 33 103 84 b 126 389 106 224 113 302 b 176 640 139 475 156 559 b 245 844 197 722 220 789 b 298 907 259 871 277 893 b 359 920 319 922 339 926 b 398 859 378 914 391 894 b 390 758 403 827 400 793 b 355 666 379 722 368 692 b 344 640 349 654 345 646 b 345 625 342 633 342 629 b 358 612 347 621 352 616 l 366 605 b 437 474 398 574 421 531 b 455 294 452 418 458 357 b 418 125 452 231 440 175 b 321 26 396 76 363 43 b 265 23 302 20 283 19 b 217 50 247 27 231 36 b 180 121 199 66 187 90 b 180 230 172 151 172 188 l 159 234 b 159 114 151 187 151 147 b 202 35 168 80 182 54 b 260 3 219 18 239 7 b 328 7 282 -3 304 -1 b 435 112 374 24 410 60 b 476 290 459 164 473 224 b 456 481 479 357 473 420 b 380 621 440 541 415 587 z "},"à":{"ha":638,"x_min":0,"x_max":0,"o":"m 218 138 b 343 295 271 176 313 228 b 346 180 340 262 342 224 b 381 62 351 136 362 97 b 425 16 394 41 409 25 b 477 0 442 5 460 0 b 604 78 527 0 569 26 b 614 98 608 85 611 91 b 646 182 627 123 638 151 b 662 272 654 212 660 243 l 641 274 b 626 187 639 245 634 217 b 595 107 618 159 608 132 b 585 89 592 100 589 94 b 537 41 571 66 555 50 b 487 37 519 31 503 30 b 450 90 471 44 458 62 b 442 236 440 130 437 178 b 467 407 448 294 456 351 b 497 543 479 463 489 509 b 503 570 500 553 502 562 b 506 590 505 578 506 585 b 493 620 506 600 502 610 b 459 640 484 629 473 635 b 428 642 449 642 439 643 b 401 635 418 640 409 637 b 385 532 405 625 399 591 b 311 631 373 583 349 616 b 186 627 273 648 232 646 b 81 538 145 608 110 578 b 16 408 52 499 31 456 b -1 269 2 359 -3 313 b 37 163 3 227 16 191 b 115 113 57 136 83 119 b 218 138 147 106 182 115 z m 294 600 b 346 572 315 600 332 590 b 367 490 360 554 367 526 b 355 396 366 459 363 428 b 327 311 347 364 338 336 b 285 243 319 294 305 271 b 216 173 264 215 241 191 b 140 161 183 151 157 146 b 108 231 123 174 112 198 b 113 344 104 264 106 302 b 149 465 120 385 132 426 b 211 562 165 504 186 536 b 294 600 235 587 263 600 z m 239 684 b 245 680 241 682 243 680 b 252 680 248 679 250 678 b 262 686 255 681 258 683 b 273 695 266 689 270 692 b 267 718 275 699 273 706 b 243 758 261 730 253 743 b 214 798 233 773 223 786 b 193 817 204 808 197 815 b 178 815 189 819 184 818 b 159 795 166 808 159 801 b 159 789 158 793 158 791 b 161 783 159 786 160 784 b 199 728 172 765 185 747 b 239 684 214 710 227 695 z "},"á":{"ha":638,"x_min":0,"x_max":0,"o":"m 218 138 b 343 295 271 176 313 228 b 346 180 340 262 342 224 b 381 62 351 136 362 97 b 425 16 394 41 409 25 b 477 0 442 5 460 0 b 604 78 527 0 569 26 b 614 98 608 85 611 91 b 646 182 627 123 638 151 b 662 272 654 212 660 243 l 641 274 b 626 187 639 245 634 217 b 595 107 618 159 608 132 b 585 89 592 100 589 94 b 537 41 571 66 555 50 b 487 37 519 31 503 30 b 450 90 471 44 458 62 b 442 236 440 130 437 178 b 467 407 448 294 456 351 b 497 543 479 463 489 509 b 503 570 500 553 502 562 b 506 590 505 578 506 585 b 493 620 506 600 502 610 b 459 640 484 629 473 635 b 428 642 449 642 439 643 b 401 635 418 640 409 637 b 385 532 405 625 399 591 b 311 631 373 583 349 616 b 186 627 273 648 232 646 b 81 538 145 608 110 578 b 16 408 52 499 31 456 b -1 269 2 359 -3 313 b 37 163 3 227 16 191 b 115 113 57 136 83 119 b 218 138 147 106 182 115 z m 294 600 b 346 572 315 600 332 590 b 367 490 360 554 367 526 b 355 396 366 459 363 428 b 327 311 347 364 338 336 b 285 243 319 294 305 271 b 216 173 264 215 241 191 b 140 161 183 151 157 146 b 108 231 123 174 112 198 b 113 344 104 264 106 302 b 149 465 120 385 132 426 b 211 562 165 504 186 536 b 294 600 235 587 263 600 z m 252 684 b 292 728 264 695 278 710 b 330 783 307 747 319 765 b 333 789 332 784 332 786 b 333 795 334 791 334 793 b 313 815 332 801 326 808 b 299 817 308 818 303 819 b 278 798 295 815 288 808 b 249 758 269 786 259 773 b 224 718 239 743 231 730 b 218 695 218 706 216 699 b 229 686 222 692 226 689 b 240 680 233 683 237 681 b 246 680 241 678 243 679 b 252 684 248 680 250 682 z "},"â":{"ha":638,"x_min":0,"x_max":0,"o":"m 218 138 b 343 295 271 176 313 228 b 346 180 340 262 342 224 b 381 62 351 136 362 97 b 425 16 394 41 409 25 b 477 0 442 5 460 0 b 604 78 527 0 569 26 b 614 98 608 85 611 91 b 646 182 627 123 638 151 b 662 272 654 212 660 243 l 641 274 b 626 187 639 245 634 217 b 595 107 618 159 608 132 b 585 89 592 100 589 94 b 537 41 571 66 555 50 b 487 37 519 31 503 30 b 450 90 471 44 458 62 b 442 236 440 130 437 178 b 467 407 448 294 456 351 b 497 543 479 463 489 509 b 503 570 500 553 502 562 b 506 590 505 578 506 585 b 493 620 506 600 502 610 b 459 640 484 629 473 635 b 428 642 449 642 439 643 b 401 635 418 640 409 637 b 385 532 405 625 399 591 b 311 631 373 583 349 616 b 186 627 273 648 232 646 b 81 538 145 608 110 578 b 16 408 52 499 31 456 b -1 269 2 359 -3 313 b 37 163 3 227 16 191 b 115 113 57 136 83 119 b 218 138 147 106 182 115 z m 294 600 b 346 572 315 600 332 590 b 367 490 360 554 367 526 b 355 396 366 459 363 428 b 327 311 347 364 338 336 b 285 243 319 294 305 271 b 216 173 264 215 241 191 b 140 161 183 151 157 146 b 108 231 123 174 112 198 b 113 344 104 264 106 302 b 149 465 120 385 132 426 b 211 562 165 504 186 536 b 294 600 235 587 263 600 z m 210 685 b 222 718 214 694 218 705 b 235 751 226 728 230 739 b 237 753 235 753 236 754 b 238 750 237 753 237 752 b 246 733 239 747 242 741 b 258 707 250 725 254 716 b 272 684 263 698 268 690 b 279 683 273 682 275 682 b 292 688 283 684 287 685 b 302 695 296 690 299 692 b 306 703 305 698 307 701 b 258 814 296 742 280 779 b 237 821 254 819 246 821 b 216 814 228 821 221 819 b 199 783 211 808 205 798 b 182 737 193 769 187 753 b 172 699 176 721 173 708 b 180 686 171 693 174 689 b 198 681 185 683 192 682 b 210 685 205 681 209 682 z "},"ã":{"ha":638,"x_min":0,"x_max":0,"o":"m 218 138 b 343 295 271 176 313 228 b 346 180 340 262 342 224 b 381 62 351 136 362 97 b 425 16 394 41 409 25 b 477 0 442 5 460 0 b 604 78 527 0 569 26 b 614 98 608 85 611 91 b 646 182 627 123 638 151 b 662 272 654 212 660 243 l 641 274 b 626 187 639 245 634 217 b 595 107 618 159 608 132 b 585 89 592 100 589 94 b 537 41 571 66 555 50 b 487 37 519 31 503 30 b 450 90 471 44 458 62 b 442 236 440 130 437 178 b 467 407 448 294 456 351 b 497 543 479 463 489 509 b 503 570 500 553 502 562 b 506 590 505 578 506 585 b 493 620 506 600 502 610 b 459 640 484 629 473 635 b 428 642 449 642 439 643 b 401 635 418 640 409 637 b 385 532 405 625 399 591 b 311 631 373 583 349 616 b 186 627 273 648 232 646 b 81 538 145 608 110 578 b 16 408 52 499 31 456 b -1 269 2 359 -3 313 b 37 163 3 227 16 191 b 115 113 57 136 83 119 b 218 138 147 106 182 115 z m 294 600 b 346 572 315 600 332 590 b 367 490 360 554 367 526 b 355 396 366 459 363 428 b 327 311 347 364 338 336 b 285 243 319 294 305 271 b 216 173 264 215 241 191 b 140 161 183 151 157 146 b 108 231 123 174 112 198 b 113 344 104 264 106 302 b 149 465 120 385 132 426 b 211 562 165 504 186 536 b 294 600 235 587 263 600 z m 161 709 l 168 703 b 197 714 176 713 185 717 b 237 699 209 711 222 706 b 278 682 251 692 264 686 b 316 684 292 678 304 679 b 345 724 328 689 337 703 l 338 730 b 309 719 330 720 321 716 b 269 734 297 722 283 727 b 228 751 255 741 241 747 b 190 749 214 755 201 755 b 161 709 178 744 169 730 z "},"ä":{"ha":638,"x_min":0,"x_max":0,"o":"m 218 138 b 343 295 271 176 313 228 b 346 180 340 262 342 224 b 381 62 351 136 362 97 b 425 16 394 41 409 25 b 477 0 442 5 460 0 b 604 78 527 0 569 26 b 614 98 608 85 611 91 b 646 182 627 123 638 151 b 662 272 654 212 660 243 l 641 274 b 626 187 639 245 634 217 b 595 107 618 159 608 132 b 585 89 592 100 589 94 b 537 41 571 66 555 50 b 487 37 519 31 503 30 b 450 90 471 44 458 62 b 442 236 440 130 437 178 b 467 407 448 294 456 351 b 497 543 479 463 489 509 b 503 570 500 553 502 562 b 506 590 505 578 506 585 b 493 620 506 600 502 610 b 459 640 484 629 473 635 b 428 642 449 642 439 643 b 401 635 418 640 409 637 b 385 532 405 625 399 591 b 311 631 373 583 349 616 b 186 627 273 648 232 646 b 81 538 145 608 110 578 b 16 408 52 499 31 456 b -1 269 2 359 -3 313 b 37 163 3 227 16 191 b 115 113 57 136 83 119 b 218 138 147 106 182 115 z m 294 600 b 346 572 315 600 332 590 b 367 490 360 554 367 526 b 355 396 366 459 363 428 b 327 311 347 364 338 336 b 285 243 319 294 305 271 b 216 173 264 215 241 191 b 140 161 183 151 157 146 b 108 231 123 174 112 198 b 113 344 104 264 106 302 b 149 465 120 385 132 426 b 211 562 165 504 186 536 b 294 600 235 587 263 600 z m 195 677 b 229 699 211 677 222 684 b 232 746 235 714 236 730 b 199 773 227 762 216 771 b 169 751 185 772 175 765 b 167 705 163 736 163 721 b 195 677 171 690 180 680 z m 281 677 b 314 699 296 677 307 684 b 317 746 321 714 321 730 b 285 773 313 762 302 771 b 255 751 271 772 260 765 b 252 705 249 736 248 721 b 281 677 257 690 266 680 z "},"å":{"ha":638,"x_min":0,"x_max":0,"o":"m 294 600 b 346 572 315 600 332 590 b 367 490 360 554 367 526 b 355 396 366 459 363 428 b 327 311 347 364 338 336 b 285 243 319 294 305 271 b 216 173 264 215 241 191 b 140 161 183 151 157 146 b 108 231 123 174 112 198 b 113 344 104 264 106 302 b 149 465 120 385 132 426 b 211 562 165 504 186 536 b 294 600 235 587 263 600 z m 264 698 b 277 728 264 709 269 720 b 309 741 286 737 296 741 b 339 728 320 741 330 737 b 352 698 348 720 352 709 b 340 667 352 686 348 675 b 309 654 331 658 321 654 b 277 667 296 654 286 658 b 264 698 269 675 264 686 z m 329 622 b 364 642 342 625 354 632 b 387 698 379 657 387 675 b 364 753 387 720 379 738 b 309 775 349 768 331 775 b 254 753 287 775 269 768 b 231 698 239 738 231 720 b 254 642 231 676 239 657 b 186 627 232 642 210 637 b 81 539 145 608 110 578 b 16 408 52 499 31 456 b -1 269 2 359 -3 313 b 37 163 3 227 16 191 b 116 113 58 136 84 119 b 218 138 148 106 182 115 b 343 295 271 176 313 228 b 347 180 341 262 342 224 b 381 62 351 136 362 97 b 426 16 394 41 409 26 b 477 0 442 5 459 0 b 604 78 527 0 569 26 b 614 98 608 85 611 92 b 646 182 627 123 638 151 b 662 272 654 212 660 243 l 641 274 b 626 187 639 246 634 217 b 595 107 618 158 608 132 b 585 89 592 100 589 94 b 537 41 571 66 555 50 b 487 37 519 31 503 30 b 450 90 471 45 459 62 b 443 236 440 130 437 178 b 467 407 448 294 456 351 b 497 543 479 463 488 509 b 503 570 500 553 502 562 b 506 590 505 578 506 585 b 493 620 506 600 502 610 b 459 640 484 629 473 636 b 429 642 449 642 439 643 b 401 635 418 640 409 638 b 385 532 405 625 399 590 b 329 622 375 574 357 604 z "},"æ":{"ha":765,"x_min":0,"x_max":0,"o":"m 660 77 b 522 34 610 33 564 18 b 454 120 488 48 465 77 b 450 269 444 163 443 213 b 548 296 483 269 515 278 b 637 368 580 315 610 338 b 704 458 664 397 686 427 b 736 546 722 489 732 519 b 718 612 739 575 733 597 b 659 640 703 627 684 636 b 586 635 635 643 611 642 b 504 595 556 627 529 614 b 488 622 502 605 496 614 b 457 639 480 630 469 635 b 427 641 448 642 437 642 b 400 634 416 640 407 637 b 382 532 403 624 397 590 b 309 631 372 582 347 615 b 184 626 272 647 230 646 b 79 538 143 607 108 577 b 14 407 50 498 28 455 b -2 268 0 359 -5 313 b 35 163 1 226 14 191 b 114 112 56 135 82 118 b 216 138 146 106 180 115 b 341 294 269 175 311 227 l 340 279 l 340 275 b 351 145 336 230 340 186 b 413 42 363 103 383 69 b 532 -1 442 15 482 1 b 668 58 573 -3 618 17 b 741 145 694 81 719 110 b 793 271 762 181 780 223 l 773 275 b 724 159 760 231 744 192 b 660 77 704 126 683 99 z m 600 586 b 655 610 618 600 636 608 b 701 600 673 613 689 610 b 715 549 713 589 718 572 b 685 468 712 524 702 498 b 622 382 669 438 647 409 b 541 317 597 355 570 334 b 454 290 511 299 483 290 b 509 461 465 350 483 408 b 600 586 534 515 564 557 z m 326 311 b 283 242 318 293 304 271 b 215 172 262 214 240 191 b 138 160 181 150 155 146 b 106 231 121 174 111 197 b 111 343 102 264 104 301 b 147 464 119 385 130 425 b 210 561 164 503 184 535 b 292 599 234 586 261 599 b 344 572 313 599 330 589 b 365 489 358 553 365 526 b 353 395 365 458 361 427 b 326 311 346 363 336 335 z "},"ç":{"ha":422,"x_min":0,"x_max":0,"o":"m 186 0 l 193 0 b 330 59 235 -2 280 18 b 401 146 356 81 380 110 b 454 271 423 182 441 223 l 434 275 b 385 160 421 231 405 193 b 321 78 366 127 344 100 b 199 30 278 39 237 24 b 123 98 162 37 137 60 b 109 235 109 135 104 181 b 143 397 113 288 124 342 b 214 538 161 452 185 498 b 310 613 243 578 275 603 b 363 602 332 618 350 614 b 378 543 376 589 380 569 b 340 455 375 517 362 488 b 340 447 338 452 338 450 b 349 441 342 444 345 442 b 356 443 352 440 354 441 b 397 526 377 472 391 499 b 392 593 402 552 401 574 b 351 633 383 613 370 626 b 291 642 333 641 313 644 b 229 629 269 640 249 636 b 113 546 184 612 144 585 b 36 416 80 507 54 465 b 1 275 17 368 5 321 b 13 146 -3 231 1 187 b 74 43 24 104 45 70 b 163 3 97 21 127 8 b 157 -37 148 -26 146 -39 b 168 -37 161 -37 165 -37 b 199 -41 181 -37 191 -38 b 215 -62 210 -45 215 -52 b 206 -82 215 -71 212 -77 b 176 -89 200 -87 191 -89 b 130 -73 163 -89 147 -83 b 122 -85 119 -66 116 -70 b 139 -102 123 -90 129 -96 b 188 -113 149 -109 165 -113 b 238 -98 209 -113 226 -108 b 256 -61 250 -90 256 -77 b 241 -26 256 -46 252 -35 b 199 -13 231 -17 218 -13 b 180 -15 193 -14 187 -14 z "},"è":{"ha":429,"x_min":0,"x_max":0,"o":"m 191 0 b 328 59 233 -2 278 18 b 400 146 354 81 378 111 b 453 271 422 182 439 224 l 433 275 b 384 160 420 231 404 193 b 319 78 363 127 342 100 b 181 35 269 34 222 19 b 114 121 147 49 125 77 b 110 269 103 164 102 213 b 208 297 142 269 175 279 b 296 368 239 315 269 339 b 363 458 323 397 346 427 b 395 547 381 490 392 519 b 378 612 398 576 392 597 b 319 640 363 627 343 637 b 245 635 295 644 271 642 b 123 561 199 623 158 598 b 39 429 88 524 60 480 b 0 275 18 379 5 328 b 11 146 -4 231 -1 187 b 72 43 22 104 43 70 b 191 0 102 16 142 1 z m 259 587 b 314 611 277 600 296 609 b 360 600 333 614 349 610 b 374 549 372 590 377 573 b 345 469 372 525 361 498 b 281 382 328 439 307 410 b 200 317 256 356 229 334 b 113 290 171 300 142 291 b 168 462 124 351 142 408 b 259 587 193 516 224 557 z m 229 684 b 236 680 231 682 233 680 b 242 680 238 679 240 678 b 252 686 245 681 249 683 b 263 695 256 689 260 692 b 258 718 266 699 264 706 b 233 758 251 730 243 743 b 203 798 223 773 213 786 b 183 817 194 808 187 815 b 169 815 179 819 174 818 b 149 795 157 808 150 801 b 149 789 148 793 149 791 b 151 783 150 786 151 784 b 190 728 163 765 175 747 b 229 684 204 710 218 695 z "},"é":{"ha":429,"x_min":0,"x_max":0,"o":"m 191 0 b 328 59 233 -2 278 18 b 400 146 354 81 378 111 b 453 271 422 182 439 224 l 433 275 b 384 160 420 231 404 193 b 319 78 363 127 342 100 b 181 35 269 34 222 19 b 114 121 147 49 125 77 b 110 269 103 164 102 213 b 208 297 142 269 175 279 b 296 368 239 315 269 339 b 363 458 323 397 346 427 b 395 547 381 490 392 519 b 378 612 398 576 392 597 b 319 640 363 627 343 637 b 245 635 295 644 271 642 b 123 561 199 623 158 598 b 39 429 88 524 60 480 b 0 275 18 379 5 328 b 11 146 -4 231 -1 187 b 72 43 22 104 43 70 b 191 0 102 16 142 1 z m 259 587 b 314 611 277 600 296 609 b 360 600 333 614 349 610 b 374 549 372 590 377 573 b 345 469 372 525 361 498 b 281 382 328 439 307 410 b 200 317 256 356 229 334 b 113 290 171 300 142 291 b 168 462 124 351 142 408 b 259 587 193 516 224 557 z m 222 684 b 261 728 234 695 247 710 b 300 783 276 747 289 765 b 302 789 300 784 302 786 b 302 795 303 791 303 793 b 282 815 301 801 294 808 b 269 817 277 818 273 819 b 248 798 264 815 257 808 b 218 758 238 786 229 773 b 194 718 208 743 200 730 b 188 695 188 706 186 699 b 199 686 191 692 195 689 b 209 680 203 683 206 681 b 215 680 211 678 213 679 b 222 684 218 680 220 682 z "},"ê":{"ha":429,"x_min":0,"x_max":0,"o":"m 191 0 b 328 59 233 -2 278 18 b 400 146 354 81 378 111 b 453 271 422 182 439 224 l 433 275 b 384 160 420 231 404 193 b 319 78 363 127 342 100 b 181 35 269 34 222 19 b 114 121 147 49 125 77 b 110 269 103 164 102 213 b 208 297 142 269 175 279 b 296 368 239 315 269 339 b 363 458 323 397 346 427 b 395 547 381 490 392 519 b 378 612 398 576 392 597 b 319 640 363 627 343 637 b 245 635 295 644 271 642 b 123 561 199 623 158 598 b 39 429 88 524 60 480 b 0 275 18 379 5 328 b 11 146 -4 231 -1 187 b 72 43 22 104 43 70 b 191 0 102 16 142 1 z m 259 587 b 314 611 277 600 296 609 b 360 600 333 614 349 610 b 374 549 372 590 377 573 b 345 469 372 525 361 498 b 281 382 328 439 307 410 b 200 317 256 356 229 334 b 113 290 171 300 142 291 b 168 462 124 351 142 408 b 259 587 193 516 224 557 z m 197 685 b 209 718 201 694 205 705 b 221 751 213 728 217 739 b 223 753 222 753 222 754 b 225 750 224 753 224 752 b 233 733 227 747 229 741 b 245 707 237 725 241 716 b 259 684 250 698 254 690 b 266 683 260 682 262 682 b 278 688 270 684 274 685 b 289 695 283 690 286 692 b 293 703 292 698 293 701 b 245 814 283 742 267 779 b 224 821 240 819 233 821 b 203 814 215 821 208 819 b 186 783 198 808 193 798 b 169 737 180 769 174 753 b 158 699 163 721 160 708 b 166 686 158 693 161 689 b 185 681 172 683 178 682 b 197 685 191 681 195 682 z "},"ë":{"ha":429,"x_min":0,"x_max":0,"o":"m 191 0 b 328 59 233 -2 278 18 b 400 146 354 81 378 111 b 453 271 422 182 439 224 l 433 275 b 384 160 420 231 404 193 b 319 78 363 127 342 100 b 181 35 269 34 222 19 b 114 121 147 49 125 77 b 110 269 103 164 102 213 b 208 297 142 269 175 279 b 296 368 239 315 269 339 b 363 458 323 397 346 427 b 395 547 381 490 392 519 b 378 612 398 576 392 597 b 319 640 363 627 343 637 b 245 635 295 644 271 642 b 123 561 199 623 158 598 b 39 429 88 524 60 480 b 0 275 18 379 5 328 b 11 146 -4 231 -1 187 b 72 43 22 104 43 70 b 191 0 102 16 142 1 z m 259 587 b 314 611 277 600 296 609 b 360 600 333 614 349 610 b 374 549 372 590 377 573 b 345 469 372 525 361 498 b 281 382 328 439 307 410 b 200 317 256 356 229 334 b 113 290 171 300 142 291 b 168 462 124 351 142 408 b 259 587 193 516 224 557 z m 178 677 b 212 699 194 677 205 684 b 215 746 218 714 220 730 b 183 773 211 762 200 771 b 153 751 168 772 158 765 b 151 705 147 736 146 721 b 178 677 155 690 164 680 z m 264 677 b 298 699 280 677 291 684 b 300 746 304 714 305 730 b 269 773 296 762 286 771 b 238 751 254 772 243 765 b 236 705 233 736 232 721 b 264 677 240 690 250 680 z "},"ì":{"ha":261,"x_min":0,"x_max":0,"o":"m 126 416 b 135 456 128 426 131 439 b 150 526 140 478 145 501 b 159 591 155 551 158 572 b 134 636 160 614 152 629 b 66 636 117 643 94 643 b 37 452 62 598 52 537 b 50 422 35 439 39 429 b 87 412 60 416 73 413 b 126 416 102 412 115 413 z m -14 170 b -10 94 -16 145 -15 119 b 20 28 -5 68 5 47 b 89 0 36 11 58 1 b 163 18 114 -1 138 5 b 225 78 187 32 208 52 b 236 98 229 85 233 91 b 268 182 250 123 260 151 b 283 272 277 212 281 243 l 262 274 b 248 187 260 245 256 217 b 218 107 240 159 230 132 b 208 89 214 100 210 94 b 158 39 193 66 176 50 b 110 37 140 29 124 28 b 84 98 96 45 87 65 b 88 172 83 121 84 146 b 99 245 92 199 95 223 b 106 288 102 263 104 277 b 86 339 111 314 104 331 b 12 345 69 347 44 349 b 3 289 10 329 7 310 b -14 170 -5 252 -11 212 z m 145 684 b 152 680 147 682 150 680 b 158 680 154 679 156 678 b 168 686 161 681 165 683 b 179 695 172 689 176 692 b 174 718 182 699 180 706 b 149 758 167 730 159 743 b 119 798 139 773 129 786 b 99 817 110 808 103 815 b 85 815 95 819 90 818 b 64 795 73 808 66 801 b 65 789 64 793 64 791 b 67 783 66 786 66 784 b 106 728 79 765 92 747 b 145 684 120 710 134 695 z "}}}
